<?xml version="1.0" encoding="utf-8" standalone="no"?>
<!DOCTYPE svg PUBLIC "-//W3C//DTD SVG 1.1//EN"
  "http://www.w3.org/Graphics/SVG/1.1/DTD/svg11.dtd">
<!-- Created with matplotlib (https://matplotlib.org/) -->
<svg height="345.6pt" version="1.1" viewBox="0 0 460.8 345.6" width="460.8pt" xmlns="http://www.w3.org/2000/svg" xmlns:xlink="http://www.w3.org/1999/xlink">
 <defs>
  <style type="text/css">
*{stroke-linecap:butt;stroke-linejoin:round;}
  </style>
 </defs>
 <g id="figure_1">
  <g id="patch_1">
   <path d="M 0 345.6 
L 460.8 345.6 
L 460.8 0 
L 0 0 
z
" style="fill:#ffffff;"/>
  </g>
  <g id="axes_1">
   <g id="patch_2">
    <path d="M 57.6 307.584 
L 414.72 307.584 
L 414.72 41.472 
L 57.6 41.472 
z
" style="fill:#ffffff;"/>
   </g>
   <g id="matplotlib.axis_1">
    <g id="xtick_1">
     <g id="line2d_1">
      <defs>
       <path d="M 0 0 
L 0 3.5 
" id="me7c8d18e50" style="stroke:#000000;stroke-width:0.8;"/>
      </defs>
      <g>
       <use style="stroke:#000000;stroke-width:0.8;" x="72.528894" xlink:href="#me7c8d18e50" y="307.584"/>
      </g>
     </g>
     <g id="text_1">
      <!-- 0 -->
      <defs>
       <path d="M 31.78125 66.40625 
Q 24.171875 66.40625 20.328125 58.90625 
Q 16.5 51.421875 16.5 36.375 
Q 16.5 21.390625 20.328125 13.890625 
Q 24.171875 6.390625 31.78125 6.390625 
Q 39.453125 6.390625 43.28125 13.890625 
Q 47.125 21.390625 47.125 36.375 
Q 47.125 51.421875 43.28125 58.90625 
Q 39.453125 66.40625 31.78125 66.40625 
z
M 31.78125 74.21875 
Q 44.046875 74.21875 50.515625 64.515625 
Q 56.984375 54.828125 56.984375 36.375 
Q 56.984375 17.96875 50.515625 8.265625 
Q 44.046875 -1.421875 31.78125 -1.421875 
Q 19.53125 -1.421875 13.0625 8.265625 
Q 6.59375 17.96875 6.59375 36.375 
Q 6.59375 54.828125 13.0625 64.515625 
Q 19.53125 74.21875 31.78125 74.21875 
z
" id="DejaVuSans-48"/>
      </defs>
      <g transform="translate(69.347644 322.182437)scale(0.1 -0.1)">
       <use xlink:href="#DejaVuSans-48"/>
      </g>
     </g>
    </g>
    <g id="xtick_2">
     <g id="line2d_2">
      <g>
       <use style="stroke:#000000;stroke-width:0.8;" x="137.72057" xlink:href="#me7c8d18e50" y="307.584"/>
      </g>
     </g>
     <g id="text_2">
      <!-- 50 -->
      <defs>
       <path d="M 10.796875 72.90625 
L 49.515625 72.90625 
L 49.515625 64.59375 
L 19.828125 64.59375 
L 19.828125 46.734375 
Q 21.96875 47.46875 24.109375 47.828125 
Q 26.265625 48.1875 28.421875 48.1875 
Q 40.625 48.1875 47.75 41.5 
Q 54.890625 34.8125 54.890625 23.390625 
Q 54.890625 11.625 47.5625 5.09375 
Q 40.234375 -1.421875 26.90625 -1.421875 
Q 22.3125 -1.421875 17.546875 -0.640625 
Q 12.796875 0.140625 7.71875 1.703125 
L 7.71875 11.625 
Q 12.109375 9.234375 16.796875 8.0625 
Q 21.484375 6.890625 26.703125 6.890625 
Q 35.15625 6.890625 40.078125 11.328125 
Q 45.015625 15.765625 45.015625 23.390625 
Q 45.015625 31 40.078125 35.4375 
Q 35.15625 39.890625 26.703125 39.890625 
Q 22.75 39.890625 18.8125 39.015625 
Q 14.890625 38.140625 10.796875 36.28125 
z
" id="DejaVuSans-53"/>
      </defs>
      <g transform="translate(131.35807 322.182437)scale(0.1 -0.1)">
       <use xlink:href="#DejaVuSans-53"/>
       <use x="63.623047" xlink:href="#DejaVuSans-48"/>
      </g>
     </g>
    </g>
    <g id="xtick_3">
     <g id="line2d_3">
      <g>
       <use style="stroke:#000000;stroke-width:0.8;" x="202.912245" xlink:href="#me7c8d18e50" y="307.584"/>
      </g>
     </g>
     <g id="text_3">
      <!-- 100 -->
      <defs>
       <path d="M 12.40625 8.296875 
L 28.515625 8.296875 
L 28.515625 63.921875 
L 10.984375 60.40625 
L 10.984375 69.390625 
L 28.421875 72.90625 
L 38.28125 72.90625 
L 38.28125 8.296875 
L 54.390625 8.296875 
L 54.390625 0 
L 12.40625 0 
z
" id="DejaVuSans-49"/>
      </defs>
      <g transform="translate(193.368495 322.182437)scale(0.1 -0.1)">
       <use xlink:href="#DejaVuSans-49"/>
       <use x="63.623047" xlink:href="#DejaVuSans-48"/>
       <use x="127.246094" xlink:href="#DejaVuSans-48"/>
      </g>
     </g>
    </g>
    <g id="xtick_4">
     <g id="line2d_4">
      <g>
       <use style="stroke:#000000;stroke-width:0.8;" x="268.103921" xlink:href="#me7c8d18e50" y="307.584"/>
      </g>
     </g>
     <g id="text_4">
      <!-- 150 -->
      <g transform="translate(258.560171 322.182437)scale(0.1 -0.1)">
       <use xlink:href="#DejaVuSans-49"/>
       <use x="63.623047" xlink:href="#DejaVuSans-53"/>
       <use x="127.246094" xlink:href="#DejaVuSans-48"/>
      </g>
     </g>
    </g>
    <g id="xtick_5">
     <g id="line2d_5">
      <g>
       <use style="stroke:#000000;stroke-width:0.8;" x="333.295597" xlink:href="#me7c8d18e50" y="307.584"/>
      </g>
     </g>
     <g id="text_5">
      <!-- 200 -->
      <defs>
       <path d="M 19.1875 8.296875 
L 53.609375 8.296875 
L 53.609375 0 
L 7.328125 0 
L 7.328125 8.296875 
Q 12.9375 14.109375 22.625 23.890625 
Q 32.328125 33.6875 34.8125 36.53125 
Q 39.546875 41.84375 41.421875 45.53125 
Q 43.3125 49.21875 43.3125 52.78125 
Q 43.3125 58.59375 39.234375 62.25 
Q 35.15625 65.921875 28.609375 65.921875 
Q 23.96875 65.921875 18.8125 64.3125 
Q 13.671875 62.703125 7.8125 59.421875 
L 7.8125 69.390625 
Q 13.765625 71.78125 18.9375 73 
Q 24.125 74.21875 28.421875 74.21875 
Q 39.75 74.21875 46.484375 68.546875 
Q 53.21875 62.890625 53.21875 53.421875 
Q 53.21875 48.921875 51.53125 44.890625 
Q 49.859375 40.875 45.40625 35.40625 
Q 44.1875 33.984375 37.640625 27.21875 
Q 31.109375 20.453125 19.1875 8.296875 
z
" id="DejaVuSans-50"/>
      </defs>
      <g transform="translate(323.751847 322.182437)scale(0.1 -0.1)">
       <use xlink:href="#DejaVuSans-50"/>
       <use x="63.623047" xlink:href="#DejaVuSans-48"/>
       <use x="127.246094" xlink:href="#DejaVuSans-48"/>
      </g>
     </g>
    </g>
    <g id="xtick_6">
     <g id="line2d_6">
      <g>
       <use style="stroke:#000000;stroke-width:0.8;" x="398.487273" xlink:href="#me7c8d18e50" y="307.584"/>
      </g>
     </g>
     <g id="text_6">
      <!-- 250 -->
      <g transform="translate(388.943523 322.182437)scale(0.1 -0.1)">
       <use xlink:href="#DejaVuSans-50"/>
       <use x="63.623047" xlink:href="#DejaVuSans-53"/>
       <use x="127.246094" xlink:href="#DejaVuSans-48"/>
      </g>
     </g>
    </g>
    <g id="text_7">
     <!-- Episodes -->
     <defs>
      <path d="M 9.8125 72.90625 
L 55.90625 72.90625 
L 55.90625 64.59375 
L 19.671875 64.59375 
L 19.671875 43.015625 
L 54.390625 43.015625 
L 54.390625 34.71875 
L 19.671875 34.71875 
L 19.671875 8.296875 
L 56.78125 8.296875 
L 56.78125 0 
L 9.8125 0 
z
" id="DejaVuSans-69"/>
      <path d="M 18.109375 8.203125 
L 18.109375 -20.796875 
L 9.078125 -20.796875 
L 9.078125 54.6875 
L 18.109375 54.6875 
L 18.109375 46.390625 
Q 20.953125 51.265625 25.265625 53.625 
Q 29.59375 56 35.59375 56 
Q 45.5625 56 51.78125 48.09375 
Q 58.015625 40.1875 58.015625 27.296875 
Q 58.015625 14.40625 51.78125 6.484375 
Q 45.5625 -1.421875 35.59375 -1.421875 
Q 29.59375 -1.421875 25.265625 0.953125 
Q 20.953125 3.328125 18.109375 8.203125 
z
M 48.6875 27.296875 
Q 48.6875 37.203125 44.609375 42.84375 
Q 40.53125 48.484375 33.40625 48.484375 
Q 26.265625 48.484375 22.1875 42.84375 
Q 18.109375 37.203125 18.109375 27.296875 
Q 18.109375 17.390625 22.1875 11.75 
Q 26.265625 6.109375 33.40625 6.109375 
Q 40.53125 6.109375 44.609375 11.75 
Q 48.6875 17.390625 48.6875 27.296875 
z
" id="DejaVuSans-112"/>
      <path d="M 9.421875 54.6875 
L 18.40625 54.6875 
L 18.40625 0 
L 9.421875 0 
z
M 9.421875 75.984375 
L 18.40625 75.984375 
L 18.40625 64.59375 
L 9.421875 64.59375 
z
" id="DejaVuSans-105"/>
      <path d="M 44.28125 53.078125 
L 44.28125 44.578125 
Q 40.484375 46.53125 36.375 47.5 
Q 32.28125 48.484375 27.875 48.484375 
Q 21.1875 48.484375 17.84375 46.4375 
Q 14.5 44.390625 14.5 40.28125 
Q 14.5 37.15625 16.890625 35.375 
Q 19.28125 33.59375 26.515625 31.984375 
L 29.59375 31.296875 
Q 39.15625 29.25 43.1875 25.515625 
Q 47.21875 21.78125 47.21875 15.09375 
Q 47.21875 7.46875 41.1875 3.015625 
Q 35.15625 -1.421875 24.609375 -1.421875 
Q 20.21875 -1.421875 15.453125 -0.5625 
Q 10.6875 0.296875 5.421875 2 
L 5.421875 11.28125 
Q 10.40625 8.6875 15.234375 7.390625 
Q 20.0625 6.109375 24.8125 6.109375 
Q 31.15625 6.109375 34.5625 8.28125 
Q 37.984375 10.453125 37.984375 14.40625 
Q 37.984375 18.0625 35.515625 20.015625 
Q 33.0625 21.96875 24.703125 23.78125 
L 21.578125 24.515625 
Q 13.234375 26.265625 9.515625 29.90625 
Q 5.8125 33.546875 5.8125 39.890625 
Q 5.8125 47.609375 11.28125 51.796875 
Q 16.75 56 26.8125 56 
Q 31.78125 56 36.171875 55.265625 
Q 40.578125 54.546875 44.28125 53.078125 
z
" id="DejaVuSans-115"/>
      <path d="M 30.609375 48.390625 
Q 23.390625 48.390625 19.1875 42.75 
Q 14.984375 37.109375 14.984375 27.296875 
Q 14.984375 17.484375 19.15625 11.84375 
Q 23.34375 6.203125 30.609375 6.203125 
Q 37.796875 6.203125 41.984375 11.859375 
Q 46.1875 17.53125 46.1875 27.296875 
Q 46.1875 37.015625 41.984375 42.703125 
Q 37.796875 48.390625 30.609375 48.390625 
z
M 30.609375 56 
Q 42.328125 56 49.015625 48.375 
Q 55.71875 40.765625 55.71875 27.296875 
Q 55.71875 13.875 49.015625 6.21875 
Q 42.328125 -1.421875 30.609375 -1.421875 
Q 18.84375 -1.421875 12.171875 6.21875 
Q 5.515625 13.875 5.515625 27.296875 
Q 5.515625 40.765625 12.171875 48.375 
Q 18.84375 56 30.609375 56 
z
" id="DejaVuSans-111"/>
      <path d="M 45.40625 46.390625 
L 45.40625 75.984375 
L 54.390625 75.984375 
L 54.390625 0 
L 45.40625 0 
L 45.40625 8.203125 
Q 42.578125 3.328125 38.25 0.953125 
Q 33.9375 -1.421875 27.875 -1.421875 
Q 17.96875 -1.421875 11.734375 6.484375 
Q 5.515625 14.40625 5.515625 27.296875 
Q 5.515625 40.1875 11.734375 48.09375 
Q 17.96875 56 27.875 56 
Q 33.9375 56 38.25 53.625 
Q 42.578125 51.265625 45.40625 46.390625 
z
M 14.796875 27.296875 
Q 14.796875 17.390625 18.875 11.75 
Q 22.953125 6.109375 30.078125 6.109375 
Q 37.203125 6.109375 41.296875 11.75 
Q 45.40625 17.390625 45.40625 27.296875 
Q 45.40625 37.203125 41.296875 42.84375 
Q 37.203125 48.484375 30.078125 48.484375 
Q 22.953125 48.484375 18.875 42.84375 
Q 14.796875 37.203125 14.796875 27.296875 
z
" id="DejaVuSans-100"/>
      <path d="M 56.203125 29.59375 
L 56.203125 25.203125 
L 14.890625 25.203125 
Q 15.484375 15.921875 20.484375 11.0625 
Q 25.484375 6.203125 34.421875 6.203125 
Q 39.59375 6.203125 44.453125 7.46875 
Q 49.3125 8.734375 54.109375 11.28125 
L 54.109375 2.78125 
Q 49.265625 0.734375 44.1875 -0.34375 
Q 39.109375 -1.421875 33.890625 -1.421875 
Q 20.796875 -1.421875 13.15625 6.1875 
Q 5.515625 13.8125 5.515625 26.8125 
Q 5.515625 40.234375 12.765625 48.109375 
Q 20.015625 56 32.328125 56 
Q 43.359375 56 49.78125 48.890625 
Q 56.203125 41.796875 56.203125 29.59375 
z
M 47.21875 32.234375 
Q 47.125 39.59375 43.09375 43.984375 
Q 39.0625 48.390625 32.421875 48.390625 
Q 24.90625 48.390625 20.390625 44.140625 
Q 15.875 39.890625 15.1875 32.171875 
z
" id="DejaVuSans-101"/>
     </defs>
     <g transform="translate(213.917812 335.860562)scale(0.1 -0.1)">
      <use xlink:href="#DejaVuSans-69"/>
      <use x="63.183594" xlink:href="#DejaVuSans-112"/>
      <use x="126.660156" xlink:href="#DejaVuSans-105"/>
      <use x="154.443359" xlink:href="#DejaVuSans-115"/>
      <use x="206.542969" xlink:href="#DejaVuSans-111"/>
      <use x="267.724609" xlink:href="#DejaVuSans-100"/>
      <use x="331.201172" xlink:href="#DejaVuSans-101"/>
      <use x="392.724609" xlink:href="#DejaVuSans-115"/>
     </g>
    </g>
   </g>
   <g id="matplotlib.axis_2">
    <g id="ytick_1">
     <g id="line2d_7">
      <defs>
       <path d="M 0 0 
L -3.5 0 
" id="m434fd852bf" style="stroke:#000000;stroke-width:0.8;"/>
      </defs>
      <g>
       <use style="stroke:#000000;stroke-width:0.8;" x="57.6" xlink:href="#m434fd852bf" y="301.385779"/>
      </g>
     </g>
     <g id="text_8">
      <!-- 0 -->
      <g transform="translate(44.2375 305.184998)scale(0.1 -0.1)">
       <use xlink:href="#DejaVuSans-48"/>
      </g>
     </g>
    </g>
    <g id="ytick_2">
     <g id="line2d_8">
      <g>
       <use style="stroke:#000000;stroke-width:0.8;" x="57.6" xlink:href="#m434fd852bf" y="270.539653"/>
      </g>
     </g>
     <g id="text_9">
      <!-- 50 -->
      <g transform="translate(37.875 274.338872)scale(0.1 -0.1)">
       <use xlink:href="#DejaVuSans-53"/>
       <use x="63.623047" xlink:href="#DejaVuSans-48"/>
      </g>
     </g>
    </g>
    <g id="ytick_3">
     <g id="line2d_9">
      <g>
       <use style="stroke:#000000;stroke-width:0.8;" x="57.6" xlink:href="#m434fd852bf" y="239.693527"/>
      </g>
     </g>
     <g id="text_10">
      <!-- 100 -->
      <g transform="translate(31.5125 243.492745)scale(0.1 -0.1)">
       <use xlink:href="#DejaVuSans-49"/>
       <use x="63.623047" xlink:href="#DejaVuSans-48"/>
       <use x="127.246094" xlink:href="#DejaVuSans-48"/>
      </g>
     </g>
    </g>
    <g id="ytick_4">
     <g id="line2d_10">
      <g>
       <use style="stroke:#000000;stroke-width:0.8;" x="57.6" xlink:href="#m434fd852bf" y="208.8474"/>
      </g>
     </g>
     <g id="text_11">
      <!-- 150 -->
      <g transform="translate(31.5125 212.646619)scale(0.1 -0.1)">
       <use xlink:href="#DejaVuSans-49"/>
       <use x="63.623047" xlink:href="#DejaVuSans-53"/>
       <use x="127.246094" xlink:href="#DejaVuSans-48"/>
      </g>
     </g>
    </g>
    <g id="ytick_5">
     <g id="line2d_11">
      <g>
       <use style="stroke:#000000;stroke-width:0.8;" x="57.6" xlink:href="#m434fd852bf" y="178.001274"/>
      </g>
     </g>
     <g id="text_12">
      <!-- 200 -->
      <g transform="translate(31.5125 181.800493)scale(0.1 -0.1)">
       <use xlink:href="#DejaVuSans-50"/>
       <use x="63.623047" xlink:href="#DejaVuSans-48"/>
       <use x="127.246094" xlink:href="#DejaVuSans-48"/>
      </g>
     </g>
    </g>
    <g id="ytick_6">
     <g id="line2d_12">
      <g>
       <use style="stroke:#000000;stroke-width:0.8;" x="57.6" xlink:href="#m434fd852bf" y="147.155147"/>
      </g>
     </g>
     <g id="text_13">
      <!-- 250 -->
      <g transform="translate(31.5125 150.954366)scale(0.1 -0.1)">
       <use xlink:href="#DejaVuSans-50"/>
       <use x="63.623047" xlink:href="#DejaVuSans-53"/>
       <use x="127.246094" xlink:href="#DejaVuSans-48"/>
      </g>
     </g>
    </g>
    <g id="ytick_7">
     <g id="line2d_13">
      <g>
       <use style="stroke:#000000;stroke-width:0.8;" x="57.6" xlink:href="#m434fd852bf" y="116.309021"/>
      </g>
     </g>
     <g id="text_14">
      <!-- 300 -->
      <defs>
       <path d="M 40.578125 39.3125 
Q 47.65625 37.796875 51.625 33 
Q 55.609375 28.21875 55.609375 21.1875 
Q 55.609375 10.40625 48.1875 4.484375 
Q 40.765625 -1.421875 27.09375 -1.421875 
Q 22.515625 -1.421875 17.65625 -0.515625 
Q 12.796875 0.390625 7.625 2.203125 
L 7.625 11.71875 
Q 11.71875 9.328125 16.59375 8.109375 
Q 21.484375 6.890625 26.8125 6.890625 
Q 36.078125 6.890625 40.9375 10.546875 
Q 45.796875 14.203125 45.796875 21.1875 
Q 45.796875 27.640625 41.28125 31.265625 
Q 36.765625 34.90625 28.71875 34.90625 
L 20.21875 34.90625 
L 20.21875 43.015625 
L 29.109375 43.015625 
Q 36.375 43.015625 40.234375 45.921875 
Q 44.09375 48.828125 44.09375 54.296875 
Q 44.09375 59.90625 40.109375 62.90625 
Q 36.140625 65.921875 28.71875 65.921875 
Q 24.65625 65.921875 20.015625 65.03125 
Q 15.375 64.15625 9.8125 62.3125 
L 9.8125 71.09375 
Q 15.4375 72.65625 20.34375 73.4375 
Q 25.25 74.21875 29.59375 74.21875 
Q 40.828125 74.21875 47.359375 69.109375 
Q 53.90625 64.015625 53.90625 55.328125 
Q 53.90625 49.265625 50.4375 45.09375 
Q 46.96875 40.921875 40.578125 39.3125 
z
" id="DejaVuSans-51"/>
      </defs>
      <g transform="translate(31.5125 120.10824)scale(0.1 -0.1)">
       <use xlink:href="#DejaVuSans-51"/>
       <use x="63.623047" xlink:href="#DejaVuSans-48"/>
       <use x="127.246094" xlink:href="#DejaVuSans-48"/>
      </g>
     </g>
    </g>
    <g id="ytick_8">
     <g id="line2d_14">
      <g>
       <use style="stroke:#000000;stroke-width:0.8;" x="57.6" xlink:href="#m434fd852bf" y="85.462895"/>
      </g>
     </g>
     <g id="text_15">
      <!-- 350 -->
      <g transform="translate(31.5125 89.262113)scale(0.1 -0.1)">
       <use xlink:href="#DejaVuSans-51"/>
       <use x="63.623047" xlink:href="#DejaVuSans-53"/>
       <use x="127.246094" xlink:href="#DejaVuSans-48"/>
      </g>
     </g>
    </g>
    <g id="ytick_9">
     <g id="line2d_15">
      <g>
       <use style="stroke:#000000;stroke-width:0.8;" x="57.6" xlink:href="#m434fd852bf" y="54.616768"/>
      </g>
     </g>
     <g id="text_16">
      <!-- 400 -->
      <defs>
       <path d="M 37.796875 64.3125 
L 12.890625 25.390625 
L 37.796875 25.390625 
z
M 35.203125 72.90625 
L 47.609375 72.90625 
L 47.609375 25.390625 
L 58.015625 25.390625 
L 58.015625 17.1875 
L 47.609375 17.1875 
L 47.609375 0 
L 37.796875 0 
L 37.796875 17.1875 
L 4.890625 17.1875 
L 4.890625 26.703125 
z
" id="DejaVuSans-52"/>
      </defs>
      <g transform="translate(31.5125 58.415987)scale(0.1 -0.1)">
       <use xlink:href="#DejaVuSans-52"/>
       <use x="63.623047" xlink:href="#DejaVuSans-48"/>
       <use x="127.246094" xlink:href="#DejaVuSans-48"/>
      </g>
     </g>
    </g>
    <g id="text_17">
     <!-- Reward -->
     <defs>
      <path d="M 44.390625 34.1875 
Q 47.5625 33.109375 50.5625 29.59375 
Q 53.5625 26.078125 56.59375 19.921875 
L 66.609375 0 
L 56 0 
L 46.6875 18.703125 
Q 43.0625 26.03125 39.671875 28.421875 
Q 36.28125 30.8125 30.421875 30.8125 
L 19.671875 30.8125 
L 19.671875 0 
L 9.8125 0 
L 9.8125 72.90625 
L 32.078125 72.90625 
Q 44.578125 72.90625 50.734375 67.671875 
Q 56.890625 62.453125 56.890625 51.90625 
Q 56.890625 45.015625 53.6875 40.46875 
Q 50.484375 35.9375 44.390625 34.1875 
z
M 19.671875 64.796875 
L 19.671875 38.921875 
L 32.078125 38.921875 
Q 39.203125 38.921875 42.84375 42.21875 
Q 46.484375 45.515625 46.484375 51.90625 
Q 46.484375 58.296875 42.84375 61.546875 
Q 39.203125 64.796875 32.078125 64.796875 
z
" id="DejaVuSans-82"/>
      <path d="M 4.203125 54.6875 
L 13.1875 54.6875 
L 24.421875 12.015625 
L 35.59375 54.6875 
L 46.1875 54.6875 
L 57.421875 12.015625 
L 68.609375 54.6875 
L 77.59375 54.6875 
L 63.28125 0 
L 52.6875 0 
L 40.921875 44.828125 
L 29.109375 0 
L 18.5 0 
z
" id="DejaVuSans-119"/>
      <path d="M 34.28125 27.484375 
Q 23.390625 27.484375 19.1875 25 
Q 14.984375 22.515625 14.984375 16.5 
Q 14.984375 11.71875 18.140625 8.90625 
Q 21.296875 6.109375 26.703125 6.109375 
Q 34.1875 6.109375 38.703125 11.40625 
Q 43.21875 16.703125 43.21875 25.484375 
L 43.21875 27.484375 
z
M 52.203125 31.203125 
L 52.203125 0 
L 43.21875 0 
L 43.21875 8.296875 
Q 40.140625 3.328125 35.546875 0.953125 
Q 30.953125 -1.421875 24.3125 -1.421875 
Q 15.921875 -1.421875 10.953125 3.296875 
Q 6 8.015625 6 15.921875 
Q 6 25.140625 12.171875 29.828125 
Q 18.359375 34.515625 30.609375 34.515625 
L 43.21875 34.515625 
L 43.21875 35.40625 
Q 43.21875 41.609375 39.140625 45 
Q 35.0625 48.390625 27.6875 48.390625 
Q 23 48.390625 18.546875 47.265625 
Q 14.109375 46.140625 10.015625 43.890625 
L 10.015625 52.203125 
Q 14.9375 54.109375 19.578125 55.046875 
Q 24.21875 56 28.609375 56 
Q 40.484375 56 46.34375 49.84375 
Q 52.203125 43.703125 52.203125 31.203125 
z
" id="DejaVuSans-97"/>
      <path d="M 41.109375 46.296875 
Q 39.59375 47.171875 37.8125 47.578125 
Q 36.03125 48 33.890625 48 
Q 26.265625 48 22.1875 43.046875 
Q 18.109375 38.09375 18.109375 28.8125 
L 18.109375 0 
L 9.078125 0 
L 9.078125 54.6875 
L 18.109375 54.6875 
L 18.109375 46.1875 
Q 20.953125 51.171875 25.484375 53.578125 
Q 30.03125 56 36.53125 56 
Q 37.453125 56 38.578125 55.875 
Q 39.703125 55.765625 41.0625 55.515625 
z
" id="DejaVuSans-114"/>
     </defs>
     <g transform="translate(25.432812 193.457687)rotate(-90)scale(0.1 -0.1)">
      <use xlink:href="#DejaVuSans-82"/>
      <use x="69.419922" xlink:href="#DejaVuSans-101"/>
      <use x="130.943359" xlink:href="#DejaVuSans-119"/>
      <use x="212.730469" xlink:href="#DejaVuSans-97"/>
      <use x="274.009766" xlink:href="#DejaVuSans-114"/>
      <use x="315.107422" xlink:href="#DejaVuSans-100"/>
     </g>
    </g>
   </g>
   <g id="line2d_16">
    <path clip-path="url(#pf6259782e8)" d="M 73.832727 286.579639 
L 75.136561 288.985637 
L 76.440394 287.973884 
L 77.744228 287.677761 
L 80.351895 291.971542 
L 81.655728 292.884587 
L 82.959562 292.181295 
L 84.263395 291.218896 
L 85.567229 292.69951 
L 86.871062 293.73594 
L 88.174896 293.995047 
L 89.478729 294.525601 
L 92.086396 294.513262 
L 93.39023 294.883416 
L 94.694064 294.439232 
L 95.997897 294.550278 
L 97.301731 295.031477 
L 98.605564 294.513262 
L 99.909398 294.439232 
L 101.213231 294.895754 
L 103.820898 294.957447 
L 105.124732 294.525601 
L 106.428565 295.1672 
L 107.732399 294.081417 
L 109.036232 294.710678 
L 110.340066 294.77237 
L 111.643899 294.192463 
L 112.947733 295.450985 
L 114.251566 295.475662 
L 115.5554 293.995047 
L 116.859233 295.130185 
L 118.163067 293.834648 
L 119.4669 294.945108 
L 120.770734 295.130185 
L 122.074567 293.859325 
L 123.378401 294.784708 
L 124.682234 294.229478 
L 125.986068 293.834648 
L 127.289901 294.019724 
L 128.593735 292.970956 
L 129.897568 294.710678 
L 131.201402 294.488586 
L 132.505235 293.464494 
L 133.809069 292.835233 
L 135.112903 293.995047 
L 136.416736 294.05674 
L 137.72057 293.649571 
L 139.024403 291.909849 
L 140.328237 292.637818 
L 142.935904 294.402216 
L 144.239737 293.846986 
L 145.543571 292.391049 
L 146.847404 294.254155 
L 148.151238 292.230649 
L 149.455071 292.403387 
L 150.758905 294.167786 
L 152.062738 291.42865 
L 153.366572 292.403387 
L 154.670405 287.961545 
L 155.974239 288.677175 
L 157.278072 288.923944 
L 158.581906 289.602559 
L 159.885739 289.03499 
L 161.189573 289.762959 
L 162.493406 290.94745 
L 163.79724 290.059082 
L 165.101073 286.468593 
L 166.404907 284.679517 
L 167.70874 285.567886 
L 169.012574 284.97564 
L 170.316407 281.594905 
L 171.620241 284.408071 
L 172.924074 280.91629 
L 174.227908 281.915704 
L 175.531742 279.966229 
L 176.835575 280.188321 
L 178.139409 276.227679 
L 179.443242 280.866936 
L 180.747076 280.324044 
L 182.050909 277.01734 
L 183.354743 276.844601 
L 185.96241 271.650114 
L 187.266243 274.043773 
L 188.570077 272.328728 
L 189.87391 271.255283 
L 191.177744 265.320488 
L 192.481577 265.30815 
L 193.785411 260.088985 
L 195.089244 263.210613 
L 196.393078 259.916247 
L 197.696911 255.844558 
L 199.000745 248.170042 
L 200.304578 248.996718 
L 201.608412 237.053098 
L 202.912245 237.59599 
L 204.216079 231.932641 
L 205.519912 234.425008 
L 206.823746 232.438518 
L 208.127579 223.382095 
L 209.431413 226.787507 
L 210.735246 233.326886 
L 212.03908 230.74815 
L 213.342913 229.884458 
L 214.646747 231.722888 
L 215.950581 226.775169 
L 217.254414 224.887386 
L 218.558248 227.441445 
L 219.862081 223.135326 
L 221.165915 231.550149 
L 223.773582 225.442616 
L 225.077415 232.969071 
L 226.381249 226.368 
L 227.685082 222.061881 
L 228.988916 214.991949 
L 230.292749 219.285729 
L 231.596583 212.437889 
L 232.900416 207.058325 
L 234.20425 193.362645 
L 235.508083 189.981909 
L 236.811917 187.218096 
L 238.11575 189.241602 
L 239.419584 185.700467 
L 240.723417 190.031263 
L 242.027251 185.35499 
L 243.331084 188.723387 
L 244.634918 189.439017 
L 245.938751 178.470135 
L 247.242585 176.878475 
L 248.546418 190.93197 
L 249.850252 182.467793 
L 251.154085 186.884958 
L 252.457919 201.76513 
L 253.761752 192.955476 
L 255.065586 196.891442 
L 256.369419 197.335626 
L 257.673253 201.76513 
L 258.977087 202.838575 
L 260.28092 193.88086 
L 261.584754 196.928457 
L 262.888587 193.23926 
L 264.192421 195.238089 
L 265.496254 197.027165 
L 266.800088 190.302709 
L 268.103921 200.80273 
L 269.407755 200.852084 
L 270.711588 202.456083 
L 272.015422 199.716947 
L 273.319255 203.541866 
L 274.623089 200.852084 
L 275.926922 203.110021 
L 278.534589 200.913777 
L 279.838423 201.987222 
L 281.142256 201.518361 
L 282.44609 203.134698 
L 283.749923 201.60473 
L 285.053757 200.839746 
L 286.35759 203.245744 
L 287.661424 201.431991 
L 288.965257 199.827993 
L 290.269091 201.987222 
L 291.572924 197.829164 
L 292.876758 198.988978 
L 294.180591 199.161717 
L 295.484425 198.014241 
L 296.788258 200.124116 
L 298.092092 197.829164 
L 299.395926 189.636433 
L 300.699759 200.592977 
L 302.003593 198.865594 
L 303.307426 196.447257 
L 304.61126 197.471349 
L 305.915093 194.584151 
L 307.218927 201.641745 
L 308.52276 204.269835 
L 309.826594 199.408486 
L 311.130427 184.40493 
L 312.434261 187.489542 
L 313.738094 198.112948 
L 315.041928 191.450185 
L 316.345761 182.998346 
L 317.649595 204.417896 
L 318.953428 193.510706 
L 321.561095 210.463737 
L 322.864929 200.198146 
L 324.168762 207.083002 
L 325.472596 188.562988 
L 326.776429 202.493098 
L 328.080263 208.070078 
L 329.384096 210.661152 
L 330.68793 187.316804 
L 331.991763 209.637061 
L 333.295597 190.907293 
L 334.59943 209.155861 
L 335.903264 184.56533 
L 337.207097 188.229849 
L 338.510931 188.994833 
L 339.814765 200.852084 
L 341.118598 184.367914 
L 342.422432 196.040089 
L 343.726265 199.729285 
L 345.030099 194.053598 
L 346.333932 193.745137 
L 347.637766 197.076518 
L 348.941599 189.796833 
L 350.245433 190.05594 
L 351.549266 204.837404 
L 352.8531 186.144651 
L 354.156933 190.413755 
L 355.460767 191.598246 
L 356.7646 193.621752 
L 358.068434 196.545965 
L 359.372267 194.633505 
L 360.676101 200.926115 
L 361.979934 201.456668 
L 363.283768 194.127629 
L 364.587601 213.215212 
L 365.891435 205.26925 
L 367.195268 203.221067 
L 368.499102 205.861495 
L 369.802935 201.518361 
L 371.106769 195.892027 
L 372.410602 211.771613 
L 373.714436 205.849157 
L 375.018269 207.885001 
L 376.322103 208.353862 
L 377.625936 203.887343 
L 378.92977 202.863252 
L 380.233604 197.668764 
L 381.537437 204.923773 
L 385.448938 190.956647 
L 386.752771 202.949621 
L 388.056605 192.634676 
L 389.360438 192.498953 
L 390.664272 195.423166 
L 391.968105 209.612384 
L 393.271939 193.56006 
L 394.575772 200.185808 
L 395.879606 190.672863 
L 397.183439 196.015412 
L 398.487273 207.551863 
L 398.487273 207.551863 
" style="fill:none;stroke:#cc4f1b;stroke-linecap:square;stroke-width:1.5;"/>
   </g>
   <g id="line2d_17">
    <path clip-path="url(#pf6259782e8)" d="M 73.832727 272.513805 
L 75.136561 275.931556 
L 76.440394 280.657182 
L 77.744228 284.025579 
L 79.048061 284.556133 
L 80.351895 285.345794 
L 81.655728 285.234748 
L 82.959562 284.371056 
L 84.263395 286.530285 
L 85.567229 285.789978 
L 86.871062 286.666008 
L 88.174896 286.443916 
L 89.478729 286.666008 
L 90.782563 286.01207 
L 92.086396 286.764715 
L 93.39023 286.801731 
L 94.694064 286.666008 
L 95.997897 285.864009 
L 97.301731 287.344623 
L 98.605564 286.431577 
L 99.909398 286.382223 
L 101.213231 286.8881 
L 102.517065 285.61724 
L 103.820898 286.690685 
L 106.428565 286.703023 
L 107.732399 286.271177 
L 109.036232 287.011484 
L 110.340066 286.517946 
L 111.643899 285.259424 
L 112.947733 285.826993 
L 114.251566 286.184808 
L 115.5554 286.777054 
L 116.859233 286.480931 
L 118.163067 286.678346 
L 119.4669 285.654255 
L 120.770734 286.197147 
L 122.074567 285.913362 
L 123.378401 287.332284 
L 124.682234 286.5673 
L 125.986068 286.271177 
L 128.593735 286.382223 
L 129.897568 285.950378 
L 131.201402 286.863423 
L 132.505235 285.715947 
L 133.809069 286.900438 
L 135.112903 286.036747 
L 139.024403 285.864009 
L 140.328237 286.098439 
L 141.63207 284.987979 
L 142.935904 285.654255 
L 144.239737 285.45684 
L 145.543571 285.469178 
L 146.847404 286.036747 
L 148.151238 285.271763 
L 150.758905 285.740624 
L 152.062738 286.382223 
L 153.366572 285.419824 
L 154.670405 284.309364 
L 155.974239 285.962716 
L 157.278072 284.605487 
L 158.581906 284.531456 
L 159.885739 284.728871 
L 161.189573 284.642502 
L 162.493406 285.432163 
L 163.79724 284.65484 
L 165.101073 285.444501 
L 166.404907 284.65484 
L 167.70874 284.26001 
L 169.012574 284.161302 
L 170.316407 283.889856 
L 171.620241 282.446258 
L 172.924074 284.087272 
L 174.227908 282.878104 
L 175.531742 284.445087 
L 176.835575 282.236504 
L 178.139409 283.495026 
L 179.443242 281.891027 
L 180.747076 283.458011 
L 182.050909 282.82875 
L 183.354743 281.866351 
L 184.658576 282.520288 
L 185.96241 280.459767 
L 187.266243 280.114291 
L 188.570077 280.891613 
L 189.87391 279.670106 
L 191.177744 280.101952 
L 192.481577 279.16423 
L 193.785411 279.818168 
L 195.089244 279.756476 
L 196.393078 278.1278 
L 197.696911 280.669521 
L 199.000745 276.881617 
L 200.304578 274.895126 
L 202.912245 267.948578 
L 204.216079 268.368086 
L 205.519912 267.29464 
L 206.823746 255.536097 
L 208.127579 264.691227 
L 209.431413 255.474405 
L 210.735246 251.871577 
L 212.03908 254.734098 
L 213.342913 258.670064 
L 214.646747 251.61247 
L 215.950581 255.708835 
L 217.254414 257.337511 
L 218.558248 251.809885 
L 219.862081 251.896254 
L 222.469748 243.247 
L 223.773582 243.185308 
L 225.077415 222.789849 
L 226.381249 217.829792 
L 227.685082 207.773955 
L 228.988916 206.120603 
L 230.292749 197.977225 
L 231.596583 156.384308 
L 232.900416 148.043516 
L 234.20425 142.010014 
L 235.508083 164.157532 
L 236.811917 135.285558 
L 238.11575 133.286729 
L 239.419584 134.249128 
L 240.723417 146.081702 
L 242.027251 152.830835 
L 243.331084 135.310235 
L 244.634918 126.401874 
L 245.938751 128.943594 
L 247.242585 99.405344 
L 248.546418 103.34131 
L 249.850252 106.105122 
L 251.154085 105.414169 
L 252.457919 112.878932 
L 253.761752 99.03519 
L 255.065586 107.314291 
L 256.369419 124.44006 
L 257.673253 93.964087 
L 258.977087 96.629192 
L 260.28092 93.421195 
L 261.584754 116.23499 
L 262.888587 56.541567 
L 264.192421 58.577411 
L 265.496254 53.568 
L 266.800088 55.542152 
L 268.103921 53.617354 
L 269.407755 70.126201 
L 270.711588 57.454612 
L 272.015422 66.733127 
L 273.319255 79.614469 
L 274.623089 61.193162 
L 275.926922 69.904109 
L 277.230756 73.371213 
L 278.534589 74.901181 
L 279.838423 77.874748 
L 281.142256 87.905908 
L 282.44609 65.153805 
L 283.749923 68.016326 
L 285.053757 81.749021 
L 286.35759 84.907664 
L 287.661424 60.428179 
L 288.965257 93.507564 
L 290.269091 100.651527 
L 291.572924 115.67976 
L 294.180591 76.974041 
L 295.484425 96.592177 
L 296.788258 87.400031 
L 298.092092 96.962331 
L 299.395926 92.631534 
L 300.699759 93.556918 
L 302.003593 103.785494 
L 303.307426 96.7279 
L 304.61126 85.857725 
L 305.915093 108.461767 
L 307.218927 112.052256 
L 308.52276 102.588664 
L 309.826594 97.887714 
L 311.130427 109.325458 
L 312.434261 123.1692 
L 313.738094 91.47172 
L 315.041928 120.146279 
L 316.345761 105.352477 
L 317.649595 77.048071 
L 318.953428 102.181495 
L 320.257262 111.78081 
L 321.561095 91.07689 
L 322.864929 96.518146 
L 324.168762 107.733798 
L 325.472596 121.663909 
L 326.776429 122.243816 
L 328.080263 113.940039 
L 329.384096 95.777839 
L 330.68793 111.990563 
L 331.991763 110.386565 
L 333.295597 109.744965 
L 334.59943 116.407729 
L 335.903264 127.981195 
L 337.207097 150.72096 
L 338.510931 81.514591 
L 339.814765 129.14101 
L 341.118598 136.70448 
L 342.422432 116.679175 
L 343.726265 167.809714 
L 345.030099 116.518775 
L 346.333932 126.549935 
L 347.637766 142.022352 
L 348.941599 119.517018 
L 350.245433 119.566372 
L 351.549266 136.22328 
L 352.8531 102.921802 
L 354.156933 136.025865 
L 355.460767 132.139253 
L 356.7646 137.111649 
L 358.068434 120.393048 
L 359.372267 137.777925 
L 360.676101 162.269749 
L 361.979934 126.846058 
L 363.283768 118.949449 
L 364.587601 119.146865 
L 365.891435 120.516433 
L 367.195268 114.310192 
L 368.499102 123.786122 
L 369.802935 117.148036 
L 371.106769 156.544708 
L 372.410602 112.65684 
L 373.714436 143.169828 
L 375.018269 144.490042 
L 376.322103 121.207386 
L 377.625936 111.262595 
L 378.92977 115.938868 
L 380.233604 124.514091 
L 381.537437 119.751449 
L 382.841271 108.227336 
L 384.145104 115.173884 
L 385.448938 138.913062 
L 386.752771 135.27322 
L 388.056605 136.087557 
L 389.360438 135.705065 
L 390.664272 122.317846 
L 391.968105 138.222109 
L 393.271939 152.571727 
L 394.575772 135.606358 
L 395.879606 124.217968 
L 397.183439 115.815483 
L 398.487273 109.781981 
L 398.487273 109.781981 
" style="fill:none;stroke:#1b2acc;stroke-linecap:square;stroke-width:1.5;"/>
   </g>
   <g id="line2d_18">
    <path clip-path="url(#pf6259782e8)" d="M 73.832727 287.44333 
L 75.136561 287.468007 
L 76.440394 288.886929 
L 77.744228 287.850499 
L 79.048061 288.529114 
L 80.351895 289.948036 
L 81.655728 291.98388 
L 82.959562 292.082588 
L 84.263395 293.119017 
L 85.567229 293.057325 
L 86.871062 293.291756 
L 88.174896 293.921017 
L 89.478729 293.73594 
L 92.086396 294.118432 
L 93.39023 294.747693 
L 94.694064 294.352863 
L 95.997897 294.377539 
L 97.301731 294.957447 
L 98.605564 295.1672 
L 99.909398 294.809385 
L 101.213231 295.1672 
L 102.517065 295.043816 
L 103.820898 294.797047 
L 105.124732 295.352277 
L 106.428565 295.376954 
L 109.036232 295.191877 
L 110.340066 295.154862 
L 111.643899 295.450985 
L 112.947733 294.969785 
L 114.251566 295.191877 
L 115.5554 293.908678 
L 116.859233 294.229478 
L 118.163067 294.143109 
L 119.4669 294.723016 
L 120.770734 294.439232 
L 122.074567 295.463323 
L 125.986068 295.488 
L 127.289901 295.339939 
L 128.593735 294.920431 
L 129.897568 295.216554 
L 131.201402 295.216554 
L 132.505235 294.05674 
L 133.809069 294.846401 
L 135.112903 292.613141 
L 136.416736 293.859325 
L 137.72057 294.05674 
L 139.024403 294.525601 
L 140.328237 293.674248 
L 141.63207 294.426893 
L 144.239737 293.822309 
L 145.543571 294.204801 
L 146.847404 294.093755 
L 148.151238 294.550278 
L 149.455071 293.921017 
L 150.758905 293.501509 
L 152.062738 293.760617 
L 153.366572 294.254155 
L 154.670405 289.269421 
L 155.974239 293.587879 
L 157.278072 290.861081 
L 158.581906 288.418068 
L 159.885739 283.235919 
L 161.189573 272.748236 
L 162.493406 280.385737 
L 163.79724 277.449185 
L 165.101073 275.49971 
L 166.404907 278.7694 
L 167.70874 278.399246 
L 169.012574 279.114876 
L 170.316407 277.523216 
L 171.620241 267.689471 
L 172.924074 266.690056 
L 174.227908 267.714148 
L 175.531742 266.554333 
L 176.835575 267.738825 
L 178.139409 253.993791 
L 179.443242 254.388621 
L 180.747076 239.409742 
L 182.050909 247.46675 
L 183.354743 245.838075 
L 184.658576 227.72523 
L 185.96241 225.17117 
L 187.266243 230.945565 
L 188.570077 230.106551 
L 189.87391 217.2869 
L 191.177744 213.585365 
L 192.481577 212.857397 
L 193.785411 220.198775 
L 195.089244 207.329771 
L 196.393078 204.578296 
L 197.696911 198.458425 
L 199.000745 214.646472 
L 200.304578 201.493684 
L 201.608412 215.979025 
L 204.216079 189.833848 
L 205.519912 208.045401 
L 206.823746 198.97664 
L 208.127579 206.688171 
L 209.431413 204.985465 
L 210.735246 207.058325 
L 212.03908 208.156447 
L 213.342913 208.390878 
L 214.646747 212.252813 
L 215.950581 206.231649 
L 217.254414 205.318603 
L 218.558248 205.293926 
L 219.862081 206.614141 
L 221.165915 210.007215 
L 222.469748 209.600046 
L 223.773582 207.366786 
L 225.077415 219.347422 
L 226.381249 218.32333 
L 227.685082 217.027793 
L 228.988916 211.722259 
L 230.292749 212.228136 
L 231.596583 214.202288 
L 232.900416 215.226379 
L 234.20425 187.42785 
L 235.508083 196.866765 
L 236.811917 194.497782 
L 238.11575 201.456668 
L 239.419584 211.105337 
L 240.723417 187.390835 
L 242.027251 181.357332 
L 243.331084 205.66408 
L 244.634918 196.916119 
L 245.938751 191.339139 
L 247.242585 206.37971 
L 248.546418 206.799217 
L 249.850252 205.022481 
L 251.154085 193.535383 
L 252.457919 194.11529 
L 253.761752 205.380296 
L 255.065586 195.015997 
L 256.369419 201.111192 
L 257.673253 194.547136 
L 258.977087 206.663494 
L 260.28092 204.825065 
L 261.584754 203.554205 
L 262.888587 192.326215 
L 264.192421 209.945522 
L 265.496254 184.590006 
L 266.800088 180.876133 
L 268.103921 187.699296 
L 269.407755 196.632334 
L 270.711588 202.55479 
L 272.015422 200.543623 
L 274.623089 173.312663 
L 275.926922 134.742666 
L 277.230756 162.010642 
L 278.534589 174.398446 
L 279.838423 192.548307 
L 281.142256 191.376154 
L 282.44609 196.397904 
L 283.749923 187.094712 
L 285.053757 184.306222 
L 286.35759 198.717532 
L 287.661424 174.867307 
L 288.965257 184.318561 
L 290.269091 138.876047 
L 291.572924 169.968943 
L 292.876758 177.569428 
L 294.180591 196.064765 
L 295.484425 184.886129 
L 296.788258 185.490713 
L 298.092092 183.0477 
L 299.395926 193.893198 
L 300.699759 179.889057 
L 302.003593 190.882616 
L 303.307426 183.282131 
L 304.61126 179.370842 
L 305.915093 188.637018 
L 307.218927 172.313248 
L 308.52276 182.369085 
L 309.826594 181.184594 
L 311.130427 181.283302 
L 312.434261 190.389078 
L 313.738094 185.231606 
L 315.041928 190.092955 
L 316.345761 181.098225 
L 317.649595 177.458382 
L 318.953428 178.852627 
L 320.257262 185.910221 
L 321.561095 185.799175 
L 322.864929 190.327386 
L 324.168762 199.667593 
L 325.472596 192.067107 
L 326.776429 201.197561 
L 328.080263 202.443744 
L 329.384096 178.98835 
L 330.68793 203.467836 
L 331.991763 184.40493 
L 333.295597 198.557132 
L 334.59943 210.537768 
L 335.903264 173.744508 
L 337.207097 213.239889 
L 338.510931 181.567086 
L 339.814765 180.431949 
L 341.118598 191.030678 
L 342.422432 206.37971 
L 343.726265 165.243316 
L 345.030099 186.428436 
L 346.333932 195.929042 
L 347.637766 207.57654 
L 348.941599 164.638732 
L 350.245433 187.686958 
L 351.549266 193.683444 
L 352.8531 176.138168 
L 354.156933 177.853212 
L 355.460767 179.86438 
L 356.7646 213.486658 
L 358.068434 180.839117 
L 359.372267 162.257411 
L 360.676101 206.404387 
L 361.979934 210.932598 
L 363.283768 212.524258 
L 364.587601 207.860324 
L 365.891435 204.07242 
L 367.195268 200.667007 
L 368.499102 212.795704 
L 369.802935 205.540695 
L 371.106769 210.266322 
L 372.410602 201.950206 
L 373.714436 204.837404 
L 375.018269 212.043059 
L 376.322103 200.938453 
L 377.625936 200.80273 
L 378.92977 209.526015 
L 380.233604 208.61297 
L 381.537437 189.599417 
L 382.841271 192.770399 
L 384.145104 167.587622 
L 385.448938 172.893155 
L 386.752771 147.266194 
L 388.056605 155.705694 
L 389.360438 154.78031 
L 390.664272 156.322616 
L 391.968105 175.16343 
L 393.271939 169.203959 
L 394.575772 164.515347 
L 395.879606 171.807372 
L 397.183439 178.235704 
L 398.487273 181.357332 
L 398.487273 181.357332 
" style="fill:none;stroke:#3f7f4c;stroke-linecap:square;stroke-width:1.5;"/>
   </g>
   <g id="patch_3">
    <path d="M 57.6 307.584 
L 57.6 41.472 
" style="fill:none;stroke:#000000;stroke-linecap:square;stroke-linejoin:miter;stroke-width:0.8;"/>
   </g>
   <g id="patch_4">
    <path d="M 414.72 307.584 
L 414.72 41.472 
" style="fill:none;stroke:#000000;stroke-linecap:square;stroke-linejoin:miter;stroke-width:0.8;"/>
   </g>
   <g id="patch_5">
    <path d="M 57.6 307.584 
L 414.72 307.584 
" style="fill:none;stroke:#000000;stroke-linecap:square;stroke-linejoin:miter;stroke-width:0.8;"/>
   </g>
   <g id="patch_6">
    <path d="M 57.6 41.472 
L 414.72 41.472 
" style="fill:none;stroke:#000000;stroke-linecap:square;stroke-linejoin:miter;stroke-width:0.8;"/>
   </g>
   <g id="text_18">
    <!-- Reward Comparison CartPole -->
    <defs>
     <path id="DejaVuSans-32"/>
     <path d="M 64.40625 67.28125 
L 64.40625 56.890625 
Q 59.421875 61.53125 53.78125 63.8125 
Q 48.140625 66.109375 41.796875 66.109375 
Q 29.296875 66.109375 22.65625 58.46875 
Q 16.015625 50.828125 16.015625 36.375 
Q 16.015625 21.96875 22.65625 14.328125 
Q 29.296875 6.6875 41.796875 6.6875 
Q 48.140625 6.6875 53.78125 8.984375 
Q 59.421875 11.28125 64.40625 15.921875 
L 64.40625 5.609375 
Q 59.234375 2.09375 53.4375 0.328125 
Q 47.65625 -1.421875 41.21875 -1.421875 
Q 24.65625 -1.421875 15.125 8.703125 
Q 5.609375 18.84375 5.609375 36.375 
Q 5.609375 53.953125 15.125 64.078125 
Q 24.65625 74.21875 41.21875 74.21875 
Q 47.75 74.21875 53.53125 72.484375 
Q 59.328125 70.75 64.40625 67.28125 
z
" id="DejaVuSans-67"/>
     <path d="M 52 44.1875 
Q 55.375 50.25 60.0625 53.125 
Q 64.75 56 71.09375 56 
Q 79.640625 56 84.28125 50.015625 
Q 88.921875 44.046875 88.921875 33.015625 
L 88.921875 0 
L 79.890625 0 
L 79.890625 32.71875 
Q 79.890625 40.578125 77.09375 44.375 
Q 74.3125 48.1875 68.609375 48.1875 
Q 61.625 48.1875 57.5625 43.546875 
Q 53.515625 38.921875 53.515625 30.90625 
L 53.515625 0 
L 44.484375 0 
L 44.484375 32.71875 
Q 44.484375 40.625 41.703125 44.40625 
Q 38.921875 48.1875 33.109375 48.1875 
Q 26.21875 48.1875 22.15625 43.53125 
Q 18.109375 38.875 18.109375 30.90625 
L 18.109375 0 
L 9.078125 0 
L 9.078125 54.6875 
L 18.109375 54.6875 
L 18.109375 46.1875 
Q 21.1875 51.21875 25.484375 53.609375 
Q 29.78125 56 35.6875 56 
Q 41.65625 56 45.828125 52.96875 
Q 50 49.953125 52 44.1875 
z
" id="DejaVuSans-109"/>
     <path d="M 54.890625 33.015625 
L 54.890625 0 
L 45.90625 0 
L 45.90625 32.71875 
Q 45.90625 40.484375 42.875 44.328125 
Q 39.84375 48.1875 33.796875 48.1875 
Q 26.515625 48.1875 22.3125 43.546875 
Q 18.109375 38.921875 18.109375 30.90625 
L 18.109375 0 
L 9.078125 0 
L 9.078125 54.6875 
L 18.109375 54.6875 
L 18.109375 46.1875 
Q 21.34375 51.125 25.703125 53.5625 
Q 30.078125 56 35.796875 56 
Q 45.21875 56 50.046875 50.171875 
Q 54.890625 44.34375 54.890625 33.015625 
z
" id="DejaVuSans-110"/>
     <path d="M 18.3125 70.21875 
L 18.3125 54.6875 
L 36.8125 54.6875 
L 36.8125 47.703125 
L 18.3125 47.703125 
L 18.3125 18.015625 
Q 18.3125 11.328125 20.140625 9.421875 
Q 21.96875 7.515625 27.59375 7.515625 
L 36.8125 7.515625 
L 36.8125 0 
L 27.59375 0 
Q 17.1875 0 13.234375 3.875 
Q 9.28125 7.765625 9.28125 18.015625 
L 9.28125 47.703125 
L 2.6875 47.703125 
L 2.6875 54.6875 
L 9.28125 54.6875 
L 9.28125 70.21875 
z
" id="DejaVuSans-116"/>
     <path d="M 19.671875 64.796875 
L 19.671875 37.40625 
L 32.078125 37.40625 
Q 38.96875 37.40625 42.71875 40.96875 
Q 46.484375 44.53125 46.484375 51.125 
Q 46.484375 57.671875 42.71875 61.234375 
Q 38.96875 64.796875 32.078125 64.796875 
z
M 9.8125 72.90625 
L 32.078125 72.90625 
Q 44.34375 72.90625 50.609375 67.359375 
Q 56.890625 61.8125 56.890625 51.125 
Q 56.890625 40.328125 50.609375 34.8125 
Q 44.34375 29.296875 32.078125 29.296875 
L 19.671875 29.296875 
L 19.671875 0 
L 9.8125 0 
z
" id="DejaVuSans-80"/>
     <path d="M 9.421875 75.984375 
L 18.40625 75.984375 
L 18.40625 0 
L 9.421875 0 
z
" id="DejaVuSans-108"/>
    </defs>
    <g transform="translate(148.37625 35.472)scale(0.12 -0.12)">
     <use xlink:href="#DejaVuSans-82"/>
     <use x="69.419922" xlink:href="#DejaVuSans-101"/>
     <use x="130.943359" xlink:href="#DejaVuSans-119"/>
     <use x="212.730469" xlink:href="#DejaVuSans-97"/>
     <use x="274.009766" xlink:href="#DejaVuSans-114"/>
     <use x="315.107422" xlink:href="#DejaVuSans-100"/>
     <use x="378.583984" xlink:href="#DejaVuSans-32"/>
     <use x="410.371094" xlink:href="#DejaVuSans-67"/>
     <use x="480.195312" xlink:href="#DejaVuSans-111"/>
     <use x="541.376953" xlink:href="#DejaVuSans-109"/>
     <use x="638.789062" xlink:href="#DejaVuSans-112"/>
     <use x="702.265625" xlink:href="#DejaVuSans-97"/>
     <use x="763.544922" xlink:href="#DejaVuSans-114"/>
     <use x="804.658203" xlink:href="#DejaVuSans-105"/>
     <use x="832.441406" xlink:href="#DejaVuSans-115"/>
     <use x="884.541016" xlink:href="#DejaVuSans-111"/>
     <use x="945.722656" xlink:href="#DejaVuSans-110"/>
     <use x="1009.101562" xlink:href="#DejaVuSans-32"/>
     <use x="1040.888672" xlink:href="#DejaVuSans-67"/>
     <use x="1110.712891" xlink:href="#DejaVuSans-97"/>
     <use x="1171.992188" xlink:href="#DejaVuSans-114"/>
     <use x="1213.105469" xlink:href="#DejaVuSans-116"/>
     <use x="1252.314453" xlink:href="#DejaVuSans-80"/>
     <use x="1312.570312" xlink:href="#DejaVuSans-111"/>
     <use x="1373.751953" xlink:href="#DejaVuSans-108"/>
     <use x="1401.535156" xlink:href="#DejaVuSans-101"/>
    </g>
   </g>
   <g id="legend_1">
    <g id="patch_7">
     <path d="M 64.6 93.506375 
L 153.685937 93.506375 
Q 155.685937 93.506375 155.685937 91.506375 
L 155.685937 48.472 
Q 155.685937 46.472 153.685937 46.472 
L 64.6 46.472 
Q 62.6 46.472 62.6 48.472 
L 62.6 91.506375 
Q 62.6 93.506375 64.6 93.506375 
z
" style="fill:#ffffff;opacity:0.8;stroke:#cccccc;stroke-linejoin:miter;"/>
    </g>
    <g id="line2d_19">
     <path d="M 66.6 54.570438 
L 86.6 54.570438 
" style="fill:none;stroke:#cc4f1b;stroke-linecap:square;stroke-width:1.5;"/>
    </g>
    <g id="line2d_20"/>
    <g id="text_19">
     <!-- DQN -->
     <defs>
      <path d="M 19.671875 64.796875 
L 19.671875 8.109375 
L 31.59375 8.109375 
Q 46.6875 8.109375 53.6875 14.9375 
Q 60.6875 21.78125 60.6875 36.53125 
Q 60.6875 51.171875 53.6875 57.984375 
Q 46.6875 64.796875 31.59375 64.796875 
z
M 9.8125 72.90625 
L 30.078125 72.90625 
Q 51.265625 72.90625 61.171875 64.09375 
Q 71.09375 55.28125 71.09375 36.53125 
Q 71.09375 17.671875 61.125 8.828125 
Q 51.171875 0 30.078125 0 
L 9.8125 0 
z
" id="DejaVuSans-68"/>
      <path d="M 39.40625 66.21875 
Q 28.65625 66.21875 22.328125 58.203125 
Q 16.015625 50.203125 16.015625 36.375 
Q 16.015625 22.609375 22.328125 14.59375 
Q 28.65625 6.59375 39.40625 6.59375 
Q 50.140625 6.59375 56.421875 14.59375 
Q 62.703125 22.609375 62.703125 36.375 
Q 62.703125 50.203125 56.421875 58.203125 
Q 50.140625 66.21875 39.40625 66.21875 
z
M 53.21875 1.3125 
L 66.21875 -12.890625 
L 54.296875 -12.890625 
L 43.5 -1.21875 
Q 41.890625 -1.3125 41.03125 -1.359375 
Q 40.1875 -1.421875 39.40625 -1.421875 
Q 24.03125 -1.421875 14.8125 8.859375 
Q 5.609375 19.140625 5.609375 36.375 
Q 5.609375 53.65625 14.8125 63.9375 
Q 24.03125 74.21875 39.40625 74.21875 
Q 54.734375 74.21875 63.90625 63.9375 
Q 73.09375 53.65625 73.09375 36.375 
Q 73.09375 23.6875 67.984375 14.640625 
Q 62.890625 5.609375 53.21875 1.3125 
z
" id="DejaVuSans-81"/>
      <path d="M 9.8125 72.90625 
L 23.09375 72.90625 
L 55.421875 11.921875 
L 55.421875 72.90625 
L 64.984375 72.90625 
L 64.984375 0 
L 51.703125 0 
L 19.390625 60.984375 
L 19.390625 0 
L 9.8125 0 
z
" id="DejaVuSans-78"/>
     </defs>
     <g transform="translate(94.6 58.070438)scale(0.1 -0.1)">
      <use xlink:href="#DejaVuSans-68"/>
      <use x="77.001953" xlink:href="#DejaVuSans-81"/>
      <use x="155.712891" xlink:href="#DejaVuSans-78"/>
     </g>
    </g>
    <g id="line2d_21">
     <path d="M 66.6 69.248563 
L 86.6 69.248563 
" style="fill:none;stroke:#1b2acc;stroke-linecap:square;stroke-width:1.5;"/>
    </g>
    <g id="line2d_22"/>
    <g id="text_20">
     <!-- DQN + CM -->
     <defs>
      <path d="M 46 62.703125 
L 46 35.5 
L 73.1875 35.5 
L 73.1875 27.203125 
L 46 27.203125 
L 46 0 
L 37.796875 0 
L 37.796875 27.203125 
L 10.59375 27.203125 
L 10.59375 35.5 
L 37.796875 35.5 
L 37.796875 62.703125 
z
" id="DejaVuSans-43"/>
      <path d="M 9.8125 72.90625 
L 24.515625 72.90625 
L 43.109375 23.296875 
L 61.8125 72.90625 
L 76.515625 72.90625 
L 76.515625 0 
L 66.890625 0 
L 66.890625 64.015625 
L 48.09375 14.015625 
L 38.1875 14.015625 
L 19.390625 64.015625 
L 19.390625 0 
L 9.8125 0 
z
" id="DejaVuSans-77"/>
     </defs>
     <g transform="translate(94.6 72.748563)scale(0.1 -0.1)">
      <use xlink:href="#DejaVuSans-68"/>
      <use x="77.001953" xlink:href="#DejaVuSans-81"/>
      <use x="155.712891" xlink:href="#DejaVuSans-78"/>
      <use x="230.517578" xlink:href="#DejaVuSans-32"/>
      <use x="262.304688" xlink:href="#DejaVuSans-43"/>
      <use x="346.09375" xlink:href="#DejaVuSans-32"/>
      <use x="377.880859" xlink:href="#DejaVuSans-67"/>
      <use x="447.705078" xlink:href="#DejaVuSans-77"/>
     </g>
    </g>
    <g id="line2d_23">
     <path d="M 66.6 83.926688 
L 86.6 83.926688 
" style="fill:none;stroke:#3f7f4c;stroke-linecap:square;stroke-width:1.5;"/>
    </g>
    <g id="line2d_24"/>
    <g id="text_21">
     <!-- DQN + PER -->
     <g transform="translate(94.6 87.426688)scale(0.1 -0.1)">
      <use xlink:href="#DejaVuSans-68"/>
      <use x="77.001953" xlink:href="#DejaVuSans-81"/>
      <use x="155.712891" xlink:href="#DejaVuSans-78"/>
      <use x="230.517578" xlink:href="#DejaVuSans-32"/>
      <use x="262.304688" xlink:href="#DejaVuSans-43"/>
      <use x="346.09375" xlink:href="#DejaVuSans-32"/>
      <use x="377.880859" xlink:href="#DejaVuSans-80"/>
      <use x="438.183594" xlink:href="#DejaVuSans-69"/>
      <use x="501.367188" xlink:href="#DejaVuSans-82"/>
     </g>
    </g>
   </g>
  </g>
 </g>
 <defs>
  <clipPath id="pf6259782e8">
   <rect height="266.112" width="357.12" x="57.6" y="41.472"/>
  </clipPath>
 </defs>
</svg>
