<?xml version="1.0" encoding="utf-8" standalone="no"?>
<!DOCTYPE svg PUBLIC "-//W3C//DTD SVG 1.1//EN"
  "http://www.w3.org/Graphics/SVG/1.1/DTD/svg11.dtd">
<!-- Created with matplotlib (https://matplotlib.org/) -->
<svg height="345.6pt" version="1.1" viewBox="0 0 460.8 345.6" width="460.8pt" xmlns="http://www.w3.org/2000/svg" xmlns:xlink="http://www.w3.org/1999/xlink">
 <defs>
  <style type="text/css">
*{stroke-linecap:butt;stroke-linejoin:round;}
  </style>
 </defs>
 <g id="figure_1">
  <g id="patch_1">
   <path d="M 0 345.6 
L 460.8 345.6 
L 460.8 0 
L 0 0 
z
" style="fill:#ffffff;"/>
  </g>
  <g id="axes_1">
   <g id="patch_2">
    <path d="M 57.6 307.584 
L 414.72 307.584 
L 414.72 41.472 
L 57.6 41.472 
z
" style="fill:#ffffff;"/>
   </g>
   <g id="PolyCollection_1">
    <defs>
     <path d="M 73.832727 -94.226552 
L 73.832727 -86.62357 
L 75.136561 -84.550715 
L 76.440394 -85.353992 
L 77.744228 -85.867031 
L 79.048061 -84.722185 
L 80.351895 -84.55141 
L 81.655728 -86.002201 
L 82.959562 -83.778776 
L 84.263395 -85.119465 
L 85.567229 -84.153771 
L 86.871062 -84.630961 
L 88.174896 -84.376047 
L 89.478729 -84.640341 
L 90.782563 -84.653052 
L 92.086396 -84.470264 
L 93.39023 -84.645563 
L 94.694064 -84.414978 
L 95.997897 -84.743402 
L 97.301731 -84.085636 
L 98.605564 -83.921051 
L 99.909398 -82.574435 
L 101.213231 -84.466842 
L 102.517065 -84.588235 
L 103.820898 -84.610626 
L 105.124732 -84.190865 
L 106.428565 -84.562769 
L 107.732399 -84.246253 
L 109.036232 -84.44003 
L 110.340066 -84.394589 
L 111.643899 -84.560002 
L 112.947733 -84.473382 
L 114.251566 -84.007632 
L 115.5554 -84.416274 
L 116.859233 -84.466576 
L 118.163067 -84.29607 
L 119.4669 -84.224707 
L 120.770734 -84.487454 
L 122.074567 -84.301609 
L 123.378401 -84.29607 
L 124.682234 -84.569926 
L 125.986068 -84.472574 
L 127.289901 -84.414978 
L 128.593735 -84.473382 
L 129.897568 -84.459874 
L 131.201402 -84.827334 
L 132.505235 -84.347959 
L 133.809069 -84.081662 
L 135.112903 -84.378541 
L 136.416736 -84.198477 
L 137.72057 -84.24526 
L 139.024403 -84.44468 
L 140.328237 -84.30036 
L 141.63207 -84.559353 
L 142.935904 -84.276021 
L 144.239737 -84.615448 
L 145.543571 -84.255046 
L 146.847404 -84.533854 
L 148.151238 -84.533079 
L 149.455071 -83.607474 
L 150.758905 -84.10848 
L 152.062738 -83.675954 
L 153.366572 -84.03642 
L 154.670405 -84.204734 
L 155.974239 -83.401448 
L 157.278072 -84.304185 
L 158.581906 -83.904163 
L 159.885739 -83.278645 
L 161.189573 -80.075792 
L 162.493406 -77.072548 
L 163.79724 -81.027741 
L 165.101073 -82.085179 
L 166.404907 -82.42406 
L 167.70874 -83.294702 
L 169.012574 -83.877924 
L 170.316407 -79.872075 
L 171.620241 -83.002662 
L 172.924074 -82.726445 
L 174.227908 -82.880201 
L 175.531742 -83.413508 
L 176.835575 -83.114426 
L 178.139409 -82.674842 
L 179.443242 -84.403224 
L 180.747076 -81.631735 
L 182.050909 -80.610982 
L 183.354743 -72.076233 
L 184.658576 -83.530069 
L 185.96241 -81.272199 
L 187.266243 -66.552578 
L 188.570077 -69.62598 
L 189.87391 -75.216974 
L 191.177744 -74.873696 
L 192.481577 -78.304513 
L 193.785411 -65.097854 
L 195.089244 -70.137578 
L 196.393078 -73.138527 
L 197.696911 -77.135301 
L 199.000745 -79.853875 
L 200.304578 -78.493565 
L 201.608412 -78.135682 
L 202.912245 -77.428481 
L 204.216079 -77.701492 
L 205.519912 -80.684438 
L 206.823746 -78.148024 
L 208.127579 -77.213079 
L 209.431413 -79.926266 
L 210.735246 -79.368912 
L 212.03908 -81.087411 
L 213.342913 -83.039183 
L 214.646747 -82.54195 
L 215.950581 -82.074283 
L 217.254414 -81.723793 
L 218.558248 -82.380388 
L 219.862081 -80.386891 
L 221.165915 -81.368984 
L 222.469748 -84.665131 
L 223.773582 -81.423298 
L 225.077415 -89.187594 
L 226.381249 -86.264478 
L 227.685082 -88.682321 
L 228.988916 -92.443907 
L 230.292749 -96.476486 
L 231.596583 -97.139092 
L 232.900416 -97.060686 
L 234.20425 -98.088679 
L 235.508083 -101.649903 
L 236.811917 -99.470382 
L 238.11575 -106.478159 
L 239.419584 -94.187959 
L 240.723417 -105.808957 
L 242.027251 -101.028845 
L 243.331084 -115.759879 
L 244.634918 -98.656472 
L 245.938751 -108.430148 
L 247.242585 -109.783156 
L 248.546418 -107.623823 
L 249.850252 -105.240267 
L 251.154085 -105.890476 
L 252.457919 -111.083508 
L 253.761752 -101.304174 
L 255.065586 -114.479339 
L 256.369419 -114.95184 
L 257.673253 -117.167441 
L 258.977087 -121.408588 
L 260.28092 -121.325379 
L 261.584754 -119.771411 
L 262.888587 -117.581284 
L 264.192421 -108.250216 
L 265.496254 -108.574145 
L 266.800088 -106.162212 
L 268.103921 -110.428724 
L 269.407755 -112.651226 
L 270.711588 -109.41463 
L 272.015422 -104.199524 
L 273.319255 -114.528407 
L 274.623089 -115.305326 
L 275.926922 -116.551771 
L 277.230756 -114.74887 
L 278.534589 -113.710682 
L 279.838423 -125.61164 
L 281.142256 -130.289596 
L 282.44609 -116.341894 
L 283.749923 -132.36414 
L 285.053757 -127.63051 
L 286.35759 -137.043471 
L 287.661424 -136.09953 
L 288.965257 -137.672812 
L 290.269091 -131.61816 
L 291.572924 -140.853361 
L 292.876758 -132.980425 
L 294.180591 -132.145661 
L 295.484425 -142.246902 
L 296.788258 -129.765057 
L 298.092092 -141.773649 
L 299.395926 -137.706149 
L 300.699759 -138.321906 
L 302.003593 -130.468317 
L 303.307426 -130.706848 
L 304.61126 -136.952286 
L 305.915093 -135.360542 
L 307.218927 -140.369857 
L 308.52276 -132.596973 
L 309.826594 -142.228722 
L 311.130427 -135.506568 
L 312.434261 -142.277581 
L 313.738094 -142.097026 
L 315.041928 -131.169981 
L 316.345761 -131.044083 
L 317.649595 -121.758026 
L 318.953428 -140.714764 
L 320.257262 -115.052565 
L 321.561095 -120.309241 
L 322.864929 -117.476172 
L 324.168762 -116.371707 
L 325.472596 -121.429629 
L 326.776429 -121.189079 
L 328.080263 -129.672844 
L 329.384096 -120.374343 
L 330.68793 -124.280885 
L 331.991763 -120.632494 
L 333.295597 -120.882888 
L 334.59943 -138.134456 
L 335.903264 -125.56473 
L 337.207097 -128.496848 
L 338.510931 -127.143095 
L 339.814765 -127.075832 
L 341.118598 -132.478997 
L 342.422432 -119.573515 
L 343.726265 -128.580195 
L 345.030099 -121.915649 
L 346.333932 -122.020071 
L 347.637766 -117.220122 
L 348.941599 -115.782221 
L 350.245433 -114.288541 
L 351.549266 -109.049935 
L 352.8531 -122.062887 
L 354.156933 -121.281083 
L 355.460767 -122.317896 
L 356.7646 -122.257625 
L 358.068434 -124.642865 
L 359.372267 -119.267242 
L 360.676101 -119.99981 
L 361.979934 -135.97136 
L 363.283768 -126.381227 
L 364.587601 -111.258632 
L 365.891435 -105.91482 
L 367.195268 -116.636379 
L 368.499102 -122.168496 
L 369.802935 -98.507238 
L 371.106769 -122.893286 
L 372.410602 -126.50424 
L 373.714436 -111.404906 
L 375.018269 -113.476335 
L 376.322103 -125.637814 
L 377.625936 -119.899589 
L 378.92977 -136.759098 
L 380.233604 -136.047211 
L 381.537437 -139.627229 
L 382.841271 -134.103226 
L 384.145104 -138.66585 
L 385.448938 -136.77131 
L 386.752771 -117.873306 
L 388.056605 -131.410233 
L 389.360438 -125.026628 
L 390.664272 -135.834422 
L 391.968105 -133.249222 
L 393.271939 -135.182606 
L 394.575772 -132.355109 
L 395.879606 -137.607462 
L 397.183439 -129.350072 
L 398.487273 -134.801016 
L 398.487273 -178.085663 
L 398.487273 -178.085663 
L 397.183439 -178.423385 
L 395.879606 -178.083241 
L 394.575772 -176.985303 
L 393.271939 -163.354065 
L 391.968105 -169.988314 
L 390.664272 -162.949663 
L 389.360438 -183.818957 
L 388.056605 -189.970989 
L 386.752771 -220.084649 
L 385.448938 -182.218245 
L 384.145104 -179.581463 
L 382.841271 -159.650109 
L 381.537437 -159.156856 
L 380.233604 -153.087732 
L 378.92977 -157.736479 
L 377.625936 -175.750587 
L 376.322103 -174.053456 
L 375.018269 -168.648548 
L 373.714436 -173.606472 
L 372.410602 -167.743924 
L 371.106769 -164.097403 
L 369.802935 -211.163059 
L 368.499102 -166.719033 
L 367.195268 -157.653729 
L 365.891435 -154.685052 
L 364.587601 -165.258201 
L 363.283768 -153.681872 
L 361.979934 -163.307553 
L 360.676101 -220.26734 
L 359.372267 -172.506782 
L 358.068434 -192.367379 
L 356.7646 -200.937966 
L 355.460767 -199.640626 
L 354.156933 -182.121396 
L 352.8531 -212.761158 
L 351.549266 -209.774677 
L 350.245433 -204.783485 
L 348.941599 -212.031763 
L 347.637766 -206.800182 
L 346.333932 -234.576398 
L 345.030099 -214.062994 
L 343.726265 -203.027469 
L 342.422432 -212.034149 
L 341.118598 -201.437863 
L 339.814765 -190.099354 
L 338.510931 -194.073185 
L 337.207097 -188.760809 
L 335.903264 -215.032306 
L 334.59943 -174.669751 
L 333.295597 -207.17851 
L 331.991763 -215.181207 
L 330.68793 -213.429656 
L 329.384096 -210.820964 
L 328.080263 -181.234523 
L 326.776429 -208.439274 
L 325.472596 -199.539237 
L 324.168762 -206.988827 
L 322.864929 -207.286374 
L 321.561095 -212.040665 
L 320.257262 -205.83383 
L 318.953428 -161.450644 
L 317.649595 -210.839293 
L 316.345761 -168.317301 
L 315.041928 -182.871296 
L 313.738094 -168.233042 
L 312.434261 -160.959955 
L 311.130427 -195.441326 
L 309.826594 -164.307666 
L 308.52276 -183.341143 
L 307.218927 -172.104465 
L 305.915093 -177.196251 
L 304.61126 -168.511975 
L 303.307426 -184.983855 
L 302.003593 -187.119226 
L 300.699759 -183.636616 
L 299.395926 -167.67564 
L 298.092092 -162.783428 
L 296.788258 -188.152371 
L 295.484425 -181.196104 
L 294.180591 -204.657695 
L 292.876758 -205.719771 
L 291.572924 -184.156599 
L 290.269091 -201.061631 
L 288.965257 -175.873637 
L 287.661424 -172.086284 
L 286.35759 -173.451539 
L 285.053757 -196.554737 
L 283.749923 -181.594665 
L 282.44609 -208.420652 
L 281.142256 -188.040188 
L 279.838423 -169.131351 
L 278.534589 -211.629163 
L 277.230756 -217.106208 
L 275.926922 -219.179458 
L 274.623089 -228.095734 
L 273.319255 -213.862877 
L 272.015422 -206.46043 
L 270.711588 -212.214006 
L 269.407755 -234.048686 
L 268.103921 -213.756523 
L 266.800088 -209.858376 
L 265.496254 -217.42547 
L 264.192421 -219.151412 
L 262.888587 -188.955103 
L 261.584754 -187.094862 
L 260.28092 -176.798936 
L 258.977087 -171.684978 
L 257.673253 -172.792214 
L 256.369419 -187.543454 
L 255.065586 -166.738359 
L 253.761752 -201.108649 
L 252.457919 -202.133055 
L 251.154085 -207.820915 
L 249.850252 -197.667384 
L 248.546418 -181.346177 
L 247.242585 -183.722766 
L 245.938751 -187.302499 
L 244.634918 -202.106925 
L 243.331084 -172.137995 
L 242.027251 -193.30179 
L 240.723417 -172.604717 
L 239.419584 -204.761069 
L 238.11575 -181.007358 
L 236.811917 -186.44818 
L 235.508083 -178.578139 
L 234.20425 -178.345683 
L 232.900416 -174.59034 
L 231.596583 -172.94498 
L 230.292749 -178.30845 
L 228.988916 -172.526944 
L 227.685082 -176.618415 
L 226.381249 -181.180512 
L 225.077415 -164.814574 
L 223.773582 -181.320828 
L 222.469748 -183.027273 
L 221.165915 -174.447552 
L 219.862081 -185.326201 
L 218.558248 -166.920916 
L 217.254414 -170.464006 
L 215.950581 -159.887074 
L 214.646747 -163.460501 
L 213.342913 -153.891425 
L 212.03908 -162.770786 
L 210.735246 -164.076929 
L 209.431413 -153.540547 
L 208.127579 -161.119541 
L 206.823746 -155.648674 
L 205.519912 -142.555934 
L 204.216079 -139.84836 
L 202.912245 -148.615915 
L 201.608412 -139.331698 
L 200.304578 -148.293072 
L 199.000745 -148.417246 
L 197.696911 -131.837535 
L 196.393078 -145.236037 
L 195.089244 -146.422618 
L 193.785411 -158.142518 
L 192.481577 -128.689012 
L 191.177744 -130.965231 
L 189.87391 -128.395228 
L 188.570077 -143.882778 
L 187.266243 -145.636639 
L 185.96241 -117.80408 
L 184.658576 -108.123793 
L 183.354743 -128.731944 
L 182.050909 -113.022192 
L 180.747076 -108.867529 
L 179.443242 -91.003791 
L 178.139409 -97.268095 
L 176.835575 -96.498626 
L 175.531742 -92.405864 
L 174.227908 -92.444344 
L 172.924074 -93.092927 
L 171.620241 -93.476481 
L 170.316407 -99.658505 
L 169.012574 -87.735411 
L 167.70874 -89.720646 
L 166.404907 -93.312841 
L 165.101073 -92.497124 
L 163.79724 -95.121516 
L 162.493406 -102.952861 
L 161.189573 -96.403351 
L 159.885739 -91.716014 
L 158.581906 -88.946242 
L 157.278072 -86.484438 
L 155.974239 -87.304703 
L 154.670405 -86.583888 
L 153.366572 -86.58726 
L 152.062738 -87.360082 
L 150.758905 -86.350257 
L 149.455071 -88.253276 
L 148.151238 -86.090601 
L 146.847404 -85.594999 
L 145.543571 -86.038749 
L 144.239737 -85.26599 
L 142.935904 -85.852831 
L 141.63207 -86.22927 
L 140.328237 -85.828492 
L 139.024403 -85.849115 
L 137.72057 -85.636178 
L 136.416736 -85.847903 
L 135.112903 -85.750311 
L 133.809069 -86.542018 
L 132.505235 -85.451008 
L 131.201402 -85.713874 
L 129.897568 -85.256622 
L 128.593735 -85.572999 
L 127.289901 -85.301518 
L 125.986068 -85.408864 
L 124.682234 -85.14657 
L 123.378401 -85.66784 
L 122.074567 -85.414887 
L 120.770734 -85.064099 
L 119.4669 -85.57426 
L 118.163067 -85.66784 
L 116.859233 -85.167448 
L 115.5554 -85.217751 
L 114.251566 -85.791335 
L 112.947733 -85.572999 
L 111.643899 -85.238965 
L 110.340066 -86.394034 
L 109.036232 -85.606351 
L 107.732399 -86.377427 
L 106.428565 -85.648554 
L 105.124732 -86.680229 
L 103.820898 -85.518226 
L 102.517065 -86.282859 
L 101.213231 -85.744482 
L 99.909398 -90.111027 
L 98.605564 -86.620158 
L 97.301731 -88.352413 
L 95.997897 -85.715335 
L 94.694064 -85.301518 
L 93.39023 -87.874957 
L 92.086396 -85.988473 
L 90.782563 -86.382985 
L 89.478729 -88.292536 
L 88.174896 -86.742461 
L 86.871062 -86.07519 
L 85.567229 -89.273933 
L 84.263395 -88.390711 
L 82.959562 -90.885997 
L 81.655728 -88.49763 
L 80.351895 -89.701007 
L 79.048061 -90.02506 
L 77.744228 -95.725332 
L 76.440394 -93.59929 
L 75.136561 -91.763485 
L 73.832727 -94.226552 
z
" id="m858ffb2d19" style="stroke:#cc4f1b;stroke-opacity:0.2;"/>
    </defs>
    <g clip-path="url(#p4eed81a512)">
     <use style="fill:#ff9848;fill-opacity:0.2;stroke:#cc4f1b;stroke-opacity:0.2;" x="0" xlink:href="#m858ffb2d19" y="345.6"/>
    </g>
   </g>
   <g id="PolyCollection_2">
    <defs>
     <path d="M 73.832727 -124.355265 
L 73.832727 -84.910802 
L 75.136561 -89.93037 
L 76.440394 -89.014 
L 77.744228 -87.339647 
L 79.048061 -89.179874 
L 80.351895 -87.824439 
L 81.655728 -86.244552 
L 82.959562 -90.207947 
L 84.263395 -85.527665 
L 85.567229 -86.282207 
L 86.871062 -87.513915 
L 88.174896 -86.752028 
L 89.478729 -86.512836 
L 90.782563 -86.260758 
L 92.086396 -87.495612 
L 93.39023 -86.211731 
L 94.694064 -88.343679 
L 95.997897 -87.097246 
L 97.301731 -87.209226 
L 98.605564 -87.432267 
L 99.909398 -85.272673 
L 101.213231 -85.348497 
L 102.517065 -86.715404 
L 103.820898 -87.511164 
L 105.124732 -85.769185 
L 106.428565 -85.941917 
L 107.732399 -86.283169 
L 109.036232 -86.472717 
L 110.340066 -87.319046 
L 111.643899 -88.490608 
L 112.947733 -86.670967 
L 114.251566 -86.696315 
L 115.5554 -87.207889 
L 116.859233 -87.396696 
L 118.163067 -88.91399 
L 119.4669 -88.302462 
L 120.770734 -87.969338 
L 122.074567 -86.905389 
L 123.378401 -86.289067 
L 124.682234 -85.150176 
L 125.986068 -86.313173 
L 127.289901 -87.857812 
L 128.593735 -85.411523 
L 129.897568 -87.079925 
L 131.201402 -87.135568 
L 132.505235 -85.966809 
L 133.809069 -85.927463 
L 135.112903 -86.768992 
L 136.416736 -88.133443 
L 137.72057 -86.240679 
L 139.024403 -86.563 
L 140.328237 -86.254197 
L 141.63207 -86.447393 
L 142.935904 -85.824995 
L 144.239737 -86.810069 
L 145.543571 -88.064387 
L 146.847404 -87.11378 
L 148.151238 -86.850882 
L 149.455071 -86.683226 
L 150.758905 -86.657261 
L 152.062738 -87.03534 
L 153.366572 -87.138024 
L 154.670405 -86.370012 
L 155.974239 -86.989378 
L 157.278072 -87.37028 
L 158.581906 -87.336969 
L 159.885739 -84.870334 
L 161.189573 -90.059425 
L 162.493406 -86.512256 
L 163.79724 -87.456895 
L 165.101073 -86.450625 
L 166.404907 -84.976228 
L 167.70874 -86.532799 
L 169.012574 -86.816135 
L 170.316407 -86.942067 
L 171.620241 -86.42327 
L 172.924074 -87.437556 
L 174.227908 -88.051563 
L 175.531742 -84.450473 
L 176.835575 -87.350466 
L 178.139409 -85.988975 
L 179.443242 -87.948222 
L 180.747076 -83.964187 
L 182.050909 -87.569685 
L 183.354743 -86.541205 
L 184.658576 -85.65106 
L 185.96241 -86.392314 
L 187.266243 -87.348669 
L 188.570077 -86.403732 
L 189.87391 -87.482209 
L 191.177744 -86.816315 
L 192.481577 -85.025835 
L 193.785411 -86.644257 
L 195.089244 -88.250785 
L 196.393078 -85.612039 
L 197.696911 -82.736748 
L 199.000745 -85.458456 
L 200.304578 -84.369374 
L 201.608412 -86.724457 
L 202.912245 -86.85916 
L 204.216079 -81.248683 
L 205.519912 -86.743083 
L 206.823746 -86.472892 
L 208.127579 -85.111485 
L 209.431413 -84.869639 
L 210.735246 -87.365035 
L 212.03908 -85.4714 
L 213.342913 -86.199669 
L 214.646747 -87.069197 
L 215.950581 -80.433454 
L 217.254414 -84.42978 
L 218.558248 -79.539249 
L 219.862081 -77.810522 
L 221.165915 -80.555752 
L 222.469748 -79.526046 
L 223.773582 -75.000724 
L 225.077415 -50.112 
L 226.381249 -54.135318 
L 227.685082 -79.155388 
L 228.988916 -79.236149 
L 230.292749 -73.999915 
L 231.596583 -90.591374 
L 232.900416 -77.31777 
L 234.20425 -79.094063 
L 235.508083 -73.806889 
L 236.811917 -76.129023 
L 238.11575 -72.176564 
L 239.419584 -77.892768 
L 240.723417 -72.486908 
L 242.027251 -74.240483 
L 243.331084 -89.672796 
L 244.634918 -83.930252 
L 245.938751 -80.320966 
L 247.242585 -84.050209 
L 248.546418 -79.352139 
L 249.850252 -73.949036 
L 251.154085 -76.326887 
L 252.457919 -79.223197 
L 253.761752 -80.1558 
L 255.065586 -84.898503 
L 256.369419 -84.725562 
L 257.673253 -89.761843 
L 258.977087 -93.094566 
L 260.28092 -99.996281 
L 261.584754 -110.931215 
L 262.888587 -101.300075 
L 264.192421 -102.587324 
L 265.496254 -113.04608 
L 266.800088 -117.774668 
L 268.103921 -120.54898 
L 269.407755 -113.739741 
L 270.711588 -119.560729 
L 272.015422 -116.414952 
L 273.319255 -110.86897 
L 274.623089 -117.75246 
L 275.926922 -116.204087 
L 277.230756 -112.133494 
L 278.534589 -113.035294 
L 279.838423 -118.590807 
L 281.142256 -116.825758 
L 282.44609 -126.24281 
L 283.749923 -117.509001 
L 285.053757 -117.160159 
L 286.35759 -122.219054 
L 287.661424 -118.411901 
L 288.965257 -117.115116 
L 290.269091 -115.861503 
L 291.572924 -121.366908 
L 292.876758 -123.516225 
L 294.180591 -131.346371 
L 295.484425 -120.142275 
L 296.788258 -120.837842 
L 298.092092 -122.641595 
L 299.395926 -125.807 
L 300.699759 -127.709403 
L 302.003593 -126.246887 
L 303.307426 -123.273421 
L 304.61126 -126.224269 
L 305.915093 -125.729248 
L 307.218927 -123.982997 
L 308.52276 -124.564628 
L 309.826594 -127.009389 
L 311.130427 -130.083927 
L 312.434261 -127.802323 
L 313.738094 -119.469205 
L 315.041928 -117.079358 
L 316.345761 -118.068023 
L 317.649595 -124.281923 
L 318.953428 -121.324715 
L 320.257262 -120.926229 
L 321.561095 -122.667095 
L 322.864929 -124.866572 
L 324.168762 -126.580933 
L 325.472596 -130.934956 
L 326.776429 -134.507533 
L 328.080263 -131.16316 
L 329.384096 -122.437536 
L 330.68793 -125.93017 
L 331.991763 -126.110672 
L 333.295597 -115.40033 
L 334.59943 -124.252943 
L 335.903264 -124.386075 
L 337.207097 -122.802951 
L 338.510931 -122.296215 
L 339.814765 -124.932566 
L 341.118598 -126.912455 
L 342.422432 -121.255315 
L 343.726265 -124.198437 
L 345.030099 -118.804659 
L 346.333932 -115.976321 
L 347.637766 -118.927615 
L 348.941599 -123.867285 
L 350.245433 -118.807107 
L 351.549266 -126.778865 
L 352.8531 -128.626383 
L 354.156933 -125.528211 
L 355.460767 -122.542677 
L 356.7646 -118.422781 
L 358.068434 -125.709149 
L 359.372267 -127.464888 
L 360.676101 -128.17763 
L 361.979934 -123.748709 
L 363.283768 -122.60425 
L 364.587601 -124.248254 
L 365.891435 -130.549884 
L 367.195268 -130.385209 
L 368.499102 -128.890831 
L 369.802935 -126.974352 
L 371.106769 -133.273363 
L 372.410602 -119.496068 
L 373.714436 -126.636313 
L 375.018269 -117.893411 
L 376.322103 -134.887873 
L 377.625936 -127.246632 
L 378.92977 -136.241195 
L 380.233604 -121.770414 
L 381.537437 -122.957208 
L 382.841271 -133.009086 
L 384.145104 -122.234238 
L 385.448938 -120.257191 
L 386.752771 -124.439459 
L 388.056605 -129.526826 
L 389.360438 -109.568394 
L 390.664272 -121.632368 
L 391.968105 -127.974225 
L 393.271939 -122.040676 
L 394.575772 -119.733526 
L 395.879606 -115.229351 
L 397.183439 -123.923757 
L 398.487273 -132.219892 
L 398.487273 -281.575008 
L 398.487273 -281.575008 
L 397.183439 -275.576116 
L 395.879606 -232.771775 
L 394.575772 -238.530696 
L 393.271939 -274.893424 
L 391.968105 -249.075127 
L 390.664272 -252.484671 
L 389.360438 -251.444872 
L 388.056605 -277.30383 
L 386.752771 -269.928867 
L 385.448938 -254.226387 
L 384.145104 -230.531897 
L 382.841271 -268.231848 
L 381.537437 -220.095641 
L 380.233604 -255.462208 
L 378.92977 -292.032 
L 377.625936 -236.790581 
L 376.322103 -276.341252 
L 375.018269 -267.769611 
L 373.714436 -269.106534 
L 372.410602 -239.409598 
L 371.106769 -282.354232 
L 369.802935 -275.549469 
L 368.499102 -237.80379 
L 367.195268 -290.190665 
L 365.891435 -275.08952 
L 364.587601 -264.89689 
L 363.283768 -266.540894 
L 361.979934 -273.643565 
L 360.676101 -281.585339 
L 359.372267 -259.022846 
L 358.068434 -266.001768 
L 356.7646 -257.435319 
L 355.460767 -259.363318 
L 354.156933 -273.055315 
L 352.8531 -273.072725 
L 351.549266 -268.414174 
L 350.245433 -249.262036 
L 348.941599 -250.249755 
L 347.637766 -246.48412 
L 346.333932 -258.965431 
L 345.030099 -253.846224 
L 343.726265 -235.440307 
L 342.422432 -258.268176 
L 341.118598 -268.097315 
L 339.814765 -253.308038 
L 338.510931 -245.03985 
L 337.207097 -267.808348 
L 335.903264 -268.60773 
L 334.59943 -269.748843 
L 333.295597 -245.88784 
L 331.991763 -256.070229 
L 330.68793 -243.696765 
L 329.384096 -267.990495 
L 328.080263 -258.623427 
L 326.776429 -280.11208 
L 325.472596 -283.409753 
L 324.168762 -257.707567 
L 322.864929 -276.282727 
L 321.561095 -250.8085 
L 320.257262 -268.218915 
L 318.953428 -247.477507 
L 317.649595 -266.512646 
L 316.345761 -252.383625 
L 315.041928 -242.284481 
L 313.738094 -219.734983 
L 312.434261 -259.510125 
L 311.130427 -280.41212 
L 309.826594 -272.490485 
L 308.52276 -270.353507 
L 307.218927 -269.560616 
L 305.915093 -267.72273 
L 304.61126 -277.765709 
L 303.307426 -263.214314 
L 302.003593 -255.934013 
L 300.699759 -264.917862 
L 299.395926 -286.521743 
L 298.092092 -254.591027 
L 296.788258 -253.645736 
L 295.484425 -244.169842 
L 294.180591 -285.747381 
L 292.876758 -251.975336 
L 291.572924 -268.969487 
L 290.269091 -248.35898 
L 288.965257 -235.651019 
L 287.661424 -246.35839 
L 286.35759 -267.017725 
L 285.053757 -235.972516 
L 283.749923 -243.320995 
L 282.44609 -269.408403 
L 281.142256 -241.713368 
L 279.838423 -240.773032 
L 278.534589 -237.256702 
L 277.230756 -249.063041 
L 275.926922 -243.159753 
L 274.623089 -241.153205 
L 273.319255 -242.538609 
L 272.015422 -262.008922 
L 270.711588 -236.320989 
L 269.407755 -233.436673 
L 268.103921 -211.690964 
L 266.800088 -203.194198 
L 265.496254 -193.62776 
L 264.192421 -221.58876 
L 262.888587 -224.708704 
L 261.584754 -203.623216 
L 260.28092 -230.227698 
L 258.977087 -222.559482 
L 257.673253 -219.935945 
L 256.369419 -215.808748 
L 255.065586 -219.117928 
L 253.761752 -215.338597 
L 252.457919 -205.000121 
L 251.154085 -220.633667 
L 249.850252 -239.322508 
L 248.546418 -224.389389 
L 247.242585 -219.874587 
L 245.938751 -232.858944 
L 244.634918 -230.624179 
L 243.331084 -221.491149 
L 242.027251 -208.883218 
L 240.723417 -223.923837 
L 239.419584 -207.796707 
L 238.11575 -203.066546 
L 236.811917 -202.138035 
L 235.508083 -205.834691 
L 234.20425 -185.427778 
L 232.900416 -177.765688 
L 231.596583 -159.910345 
L 230.292749 -165.872169 
L 228.988916 -136.810892 
L 227.685082 -139.457427 
L 226.381249 -185.278593 
L 225.077415 -182.154397 
L 223.773582 -148.56037 
L 222.469748 -135.238109 
L 221.165915 -119.455202 
L 219.862081 -130.722467 
L 218.558248 -126.977775 
L 217.254414 -103.851923 
L 215.950581 -103.999588 
L 214.646747 -97.730383 
L 213.342913 -96.125772 
L 212.03908 -94.013364 
L 210.735246 -95.60185 
L 209.431413 -95.806376 
L 208.127579 -95.014721 
L 206.823746 -93.37841 
L 205.519912 -97.598324 
L 204.216079 -104.74215 
L 202.912245 -98.398595 
L 201.608412 -95.692619 
L 200.304578 -91.083459 
L 199.000745 -91.918708 
L 197.696911 -98.855616 
L 196.393078 -96.071959 
L 195.089244 -97.373509 
L 193.785411 -95.314646 
L 192.481577 -92.168059 
L 191.177744 -92.943353 
L 189.87391 -94.751597 
L 188.570077 -91.889779 
L 187.266243 -100.658129 
L 185.96241 -94.466971 
L 184.658576 -92.275912 
L 183.354743 -96.700585 
L 182.050909 -97.68807 
L 180.747076 -93.046437 
L 179.443242 -95.018663 
L 178.139409 -91.204918 
L 176.835575 -95.891324 
L 175.531742 -91.185629 
L 174.227908 -95.281861 
L 172.924074 -94.521346 
L 171.620241 -94.34438 
L 170.316407 -96.666262 
L 169.012574 -100.824124 
L 167.70874 -94.967929 
L 166.404907 -92.767475 
L 165.101073 -91.842886 
L 163.79724 -91.936233 
L 162.493406 -93.797221 
L 161.189573 -93.915442 
L 159.885739 -92.415194 
L 158.581906 -94.072125 
L 157.278072 -90.739962 
L 155.974239 -90.571055 
L 154.670405 -92.290038 
L 153.366572 -91.338757 
L 152.062738 -91.991249 
L 150.758905 -92.277694 
L 149.455071 -90.877207 
L 148.151238 -90.526282 
L 146.847404 -91.91281 
L 145.543571 -92.428359 
L 144.239737 -91.758347 
L 142.935904 -91.735438 
L 141.63207 -90.654866 
L 140.328237 -90.848062 
L 139.024403 -92.09705 
L 137.72057 -90.495041 
L 136.416736 -92.176033 
L 135.112903 -91.524519 
L 133.809069 -91.63297 
L 132.505235 -91.13545 
L 131.201402 -92.074291 
L 129.897568 -91.763395 
L 128.593735 -90.591118 
L 127.289901 -92.543299 
L 125.986068 -91.705434 
L 124.682234 -91.12737 
L 123.378401 -91.088097 
L 122.074567 -90.746679 
L 120.770734 -92.431773 
L 119.4669 -92.556823 
L 118.163067 -92.770008 
L 116.859233 -91.721528 
L 115.5554 -92.276874 
L 114.251566 -93.338257 
L 112.947733 -92.080718 
L 111.643899 -91.360694 
L 110.340066 -91.524274 
L 109.036232 -90.812812 
L 107.732399 -90.269282 
L 106.428565 -90.793803 
L 105.124732 -91.241439 
L 103.820898 -91.973599 
L 102.517065 -91.394838 
L 101.213231 -91.295588 
L 99.909398 -90.913238 
L 98.605564 -91.869227 
L 97.301731 -92.550441 
L 95.997897 -91.104631 
L 94.694064 -92.057432 
L 93.39023 -91.440337 
L 92.086396 -92.997134 
L 90.782563 -90.474962 
L 89.478729 -90.131249 
L 88.174896 -91.358214 
L 86.871062 -91.42104 
L 85.567229 -92.286209 
L 84.263395 -93.132386 
L 82.959562 -92.117494 
L 81.655728 -92.140594 
L 80.351895 -91.843594 
L 79.048061 -92.870663 
L 77.744228 -97.918108 
L 76.440394 -100.18405 
L 75.136561 -102.383263 
L 73.832727 -124.355265 
z
" id="m0faf35ed61" style="stroke:#1b2acc;stroke-opacity:0.2;"/>
    </defs>
    <g clip-path="url(#p4eed81a512)">
     <use style="fill:#089fff;fill-opacity:0.2;stroke:#1b2acc;stroke-opacity:0.2;" x="0" xlink:href="#m0faf35ed61" y="345.6"/>
    </g>
   </g>
   <g id="PolyCollection_3">
    <defs>
     <path d="M 73.832727 -93.349767 
L 73.832727 -85.310283 
L 75.136561 -83.25546 
L 76.440394 -85.201296 
L 77.744228 -84.413628 
L 79.048061 -84.933848 
L 80.351895 -83.556625 
L 81.655728 -85.030563 
L 82.959562 -85.036146 
L 84.263395 -84.319682 
L 85.567229 -84.267203 
L 86.871062 -83.572736 
L 88.174896 -84.809471 
L 89.478729 -84.455946 
L 90.782563 -83.033259 
L 92.086396 -84.672292 
L 93.39023 -81.956003 
L 94.694064 -83.95232 
L 95.997897 -84.49629 
L 97.301731 -84.594158 
L 98.605564 -82.2497 
L 99.909398 -83.68636 
L 101.213231 -84.067623 
L 102.517065 -83.735205 
L 103.820898 -83.545611 
L 105.124732 -83.034496 
L 106.428565 -83.243685 
L 107.732399 -82.263329 
L 109.036232 -82.112958 
L 110.340066 -83.030134 
L 111.643899 -76.067737 
L 112.947733 -84.205367 
L 114.251566 -80.959269 
L 115.5554 -76.438854 
L 116.859233 -70.471732 
L 118.163067 -69.667531 
L 119.4669 -72.333782 
L 120.770734 -81.068644 
L 122.074567 -79.878481 
L 123.378401 -81.191077 
L 124.682234 -82.642713 
L 125.986068 -79.021308 
L 127.289901 -81.746981 
L 128.593735 -75.146668 
L 129.897568 -81.713494 
L 131.201402 -75.822085 
L 132.505235 -79.84333 
L 133.809069 -80.768023 
L 135.112903 -74.07682 
L 136.416736 -74.537628 
L 137.72057 -75.354444 
L 139.024403 -79.316079 
L 140.328237 -76.233582 
L 141.63207 -76.915916 
L 142.935904 -77.495708 
L 144.239737 -76.01016 
L 145.543571 -75.171567 
L 146.847404 -76.978364 
L 148.151238 -74.898066 
L 149.455071 -76.151224 
L 150.758905 -79.930196 
L 152.062738 -79.101227 
L 153.366572 -77.573825 
L 154.670405 -81.588727 
L 155.974239 -81.549161 
L 157.278072 -78.599993 
L 158.581906 -77.414028 
L 159.885739 -75.305448 
L 161.189573 -74.609093 
L 162.493406 -74.322182 
L 163.79724 -76.501156 
L 165.101073 -76.032528 
L 166.404907 -73.897101 
L 167.70874 -78.733267 
L 169.012574 -75.651308 
L 170.316407 -71.216273 
L 171.620241 -75.456365 
L 172.924074 -71.86245 
L 174.227908 -71.65206 
L 175.531742 -75.959275 
L 176.835575 -76.850879 
L 178.139409 -74.537702 
L 179.443242 -73.775998 
L 180.747076 -80.884509 
L 182.050909 -79.181065 
L 183.354743 -79.732402 
L 184.658576 -83.129614 
L 185.96241 -82.957736 
L 187.266243 -84.292657 
L 188.570077 -82.943348 
L 189.87391 -91.392024 
L 191.177744 -89.739067 
L 192.481577 -100.074583 
L 193.785411 -93.30596 
L 195.089244 -101.563745 
L 196.393078 -95.513468 
L 197.696911 -102.53785 
L 199.000745 -92.686728 
L 200.304578 -100.306621 
L 201.608412 -107.397222 
L 202.912245 -106.209567 
L 204.216079 -110.226417 
L 205.519912 -111.435564 
L 206.823746 -117.22514 
L 208.127579 -120.797359 
L 209.431413 -119.376327 
L 210.735246 -120.058701 
L 212.03908 -111.465105 
L 213.342913 -112.22332 
L 214.646747 -103.859891 
L 215.950581 -118.735058 
L 217.254414 -121.891586 
L 218.558248 -124.588442 
L 219.862081 -110.730613 
L 221.165915 -113.331761 
L 222.469748 -119.657365 
L 223.773582 -120.74389 
L 225.077415 -120.224915 
L 226.381249 -118.324932 
L 227.685082 -117.00513 
L 228.988916 -113.520174 
L 230.292749 -120.31019 
L 231.596583 -122.550258 
L 232.900416 -127.573129 
L 234.20425 -127.500753 
L 235.508083 -125.399788 
L 236.811917 -124.674887 
L 238.11575 -123.598966 
L 239.419584 -125.312294 
L 240.723417 -122.696895 
L 242.027251 -124.675356 
L 243.331084 -125.084078 
L 244.634918 -133.347838 
L 245.938751 -133.030288 
L 247.242585 -132.602244 
L 248.546418 -132.9463 
L 249.850252 -129.847072 
L 251.154085 -136.133063 
L 252.457919 -140.516126 
L 253.761752 -128.151067 
L 255.065586 -136.986838 
L 256.369419 -143.82924 
L 257.673253 -134.25871 
L 258.977087 -137.507604 
L 260.28092 -129.237158 
L 261.584754 -142.601293 
L 262.888587 -137.620356 
L 264.192421 -139.780807 
L 265.496254 -133.182043 
L 266.800088 -148.478499 
L 268.103921 -131.668036 
L 269.407755 -136.192116 
L 270.711588 -141.739182 
L 272.015422 -139.753651 
L 273.319255 -135.449504 
L 274.623089 -137.91907 
L 275.926922 -140.760046 
L 277.230756 -137.055364 
L 278.534589 -138.615473 
L 279.838423 -134.21129 
L 281.142256 -139.570135 
L 282.44609 -146.111014 
L 283.749923 -139.591722 
L 285.053757 -144.385642 
L 286.35759 -144.725699 
L 287.661424 -139.243583 
L 288.965257 -144.693215 
L 290.269091 -135.166959 
L 291.572924 -139.06192 
L 292.876758 -145.856045 
L 294.180591 -133.836649 
L 295.484425 -146.481232 
L 296.788258 -129.73981 
L 298.092092 -136.042135 
L 299.395926 -137.958016 
L 300.699759 -137.152021 
L 302.003593 -140.962699 
L 303.307426 -142.489227 
L 304.61126 -137.492543 
L 305.915093 -140.261692 
L 307.218927 -138.863986 
L 308.52276 -141.84965 
L 309.826594 -146.661801 
L 311.130427 -141.081879 
L 312.434261 -135.359225 
L 313.738094 -127.307885 
L 315.041928 -131.416399 
L 316.345761 -128.655577 
L 317.649595 -127.414128 
L 318.953428 -122.793502 
L 320.257262 -139.121443 
L 321.561095 -129.138137 
L 322.864929 -121.748267 
L 324.168762 -123.814757 
L 325.472596 -116.130557 
L 326.776429 -124.937254 
L 328.080263 -119.915364 
L 329.384096 -117.716718 
L 330.68793 -123.35182 
L 331.991763 -106.114897 
L 333.295597 -114.874555 
L 334.59943 -125.274286 
L 335.903264 -119.830355 
L 337.207097 -118.135255 
L 338.510931 -108.548578 
L 339.814765 -121.19856 
L 341.118598 -120.903992 
L 342.422432 -123.488599 
L 343.726265 -124.656631 
L 345.030099 -101.40497 
L 346.333932 -106.947785 
L 347.637766 -127.956611 
L 348.941599 -129.571703 
L 350.245433 -116.110062 
L 351.549266 -117.947882 
L 352.8531 -120.851195 
L 354.156933 -121.303528 
L 355.460767 -130.757493 
L 356.7646 -112.067582 
L 358.068434 -123.410491 
L 359.372267 -124.472514 
L 360.676101 -116.516123 
L 361.979934 -114.607385 
L 363.283768 -115.712229 
L 364.587601 -113.921296 
L 365.891435 -121.661753 
L 367.195268 -121.904269 
L 368.499102 -131.016008 
L 369.802935 -113.462905 
L 371.106769 -123.536077 
L 372.410602 -124.710229 
L 373.714436 -121.861745 
L 375.018269 -120.65857 
L 376.322103 -118.686314 
L 377.625936 -109.0478 
L 378.92977 -115.339517 
L 380.233604 -140.653019 
L 381.537437 -143.172418 
L 382.841271 -124.269916 
L 384.145104 -127.513637 
L 385.448938 -134.099834 
L 386.752771 -137.184838 
L 388.056605 -124.672521 
L 389.360438 -129.943161 
L 390.664272 -124.936977 
L 391.968105 -123.880839 
L 393.271939 -138.917287 
L 394.575772 -131.984091 
L 395.879606 -124.633781 
L 397.183439 -128.950979 
L 398.487273 -124.285351 
L 398.487273 -258.353723 
L 398.487273 -258.353723 
L 397.183439 -263.126478 
L 395.879606 -244.993154 
L 394.575772 -230.128792 
L 393.271939 -192.22304 
L 391.968105 -220.179992 
L 390.664272 -220.77328 
L 389.360438 -176.089235 
L 388.056605 -216.455997 
L 386.752771 -172.604585 
L 385.448938 -187.60211 
L 384.145104 -218.838064 
L 382.841271 -224.647559 
L 381.537437 -164.509405 
L 380.233604 -173.809777 
L 378.92977 -213.601575 
L 377.625936 -207.797501 
L 376.322103 -220.517874 
L 375.018269 -215.979843 
L 373.714436 -222.015816 
L 372.410602 -217.334637 
L 371.106769 -216.034649 
L 369.802935 -219.051943 
L 368.499102 -221.291953 
L 367.195268 -221.606754 
L 365.891435 -219.833304 
L 364.587601 -216.302683 
L 363.283768 -216.069542 
L 361.979934 -217.08275 
L 360.676101 -216.365264 
L 359.372267 -239.839603 
L 358.068434 -221.291784 
L 356.7646 -172.797181 
L 355.460767 -170.968069 
L 354.156933 -172.999617 
L 352.8531 -175.742819 
L 351.549266 -168.108133 
L 350.245433 -224.377012 
L 348.941599 -178.934833 
L 347.637766 -157.457959 
L 346.333932 -207.789916 
L 345.030099 -209.025896 
L 343.726265 -163.323713 
L 342.422432 -148.364024 
L 341.118598 -149.024301 
L 339.814765 -149.096272 
L 338.510931 -202.248827 
L 337.207097 -190.554551 
L 335.903264 -173.922981 
L 334.59943 -152.626232 
L 333.295597 -170.723285 
L 331.991763 -200.558943 
L 330.68793 -174.89162 
L 329.384096 -215.073035 
L 328.080263 -244.854928 
L 326.776429 -233.785142 
L 325.472596 -211.894187 
L 324.168762 -220.979152 
L 322.864929 -224.420164 
L 321.561095 -185.049755 
L 320.257262 -178.823475 
L 318.953428 -215.311068 
L 317.649595 -200.335712 
L 316.345761 -206.974855 
L 315.041928 -186.253615 
L 313.738094 -207.956007 
L 312.434261 -181.302806 
L 311.130427 -172.739474 
L 309.826594 -182.004387 
L 308.52276 -175.453825 
L 307.218927 -170.375628 
L 305.915093 -166.045609 
L 304.61126 -170.006011 
L 303.307426 -184.069361 
L 302.003593 -166.719124 
L 300.699759 -172.087593 
L 299.395926 -163.584277 
L 298.092092 -168.43247 
L 296.788258 -166.5793 
L 295.484425 -173.479652 
L 294.180591 -176.594217 
L 292.876758 -172.730317 
L 291.572924 -159.089885 
L 290.269091 -168.849473 
L 288.965257 -164.729669 
L 287.661424 -169.99603 
L 286.35759 -168.729115 
L 285.053757 -163.204546 
L 283.749923 -166.440674 
L 282.44609 -169.084861 
L 281.142256 -176.358818 
L 279.838423 -174.111977 
L 278.534589 -170.532506 
L 277.230756 -169.618477 
L 275.926922 -160.140803 
L 274.623089 -173.153239 
L 273.319255 -157.662388 
L 272.015422 -168.844519 
L 270.711588 -164.01831 
L 269.407755 -176.804523 
L 268.103921 -213.400778 
L 266.800088 -164.426506 
L 265.496254 -176.149205 
L 264.192421 -164.418894 
L 262.888587 -161.264527 
L 261.584754 -170.212078 
L 260.28092 -199.978838 
L 258.977087 -162.293627 
L 257.673253 -184.144382 
L 256.369419 -162.203156 
L 255.065586 -163.272567 
L 253.761752 -179.80566 
L 252.457919 -165.333001 
L 251.154085 -164.492881 
L 249.850252 -176.826768 
L 248.546418 -170.611957 
L 247.242585 -165.824466 
L 245.938751 -158.432178 
L 244.634918 -174.975428 
L 243.331084 -172.334649 
L 242.027251 -170.452502 
L 240.723417 -180.678093 
L 239.419584 -168.074502 
L 238.11575 -169.329657 
L 236.811917 -163.855266 
L 235.508083 -178.525008 
L 234.20425 -172.483748 
L 232.900416 -162.60645 
L 231.596583 -183.940313 
L 230.292749 -175.550746 
L 228.988916 -183.440379 
L 227.685082 -167.584728 
L 226.381249 -175.978213 
L 225.077415 -184.158056 
L 223.773582 -187.945915 
L 222.469748 -178.494441 
L 221.165915 -183.720427 
L 219.862081 -209.688445 
L 218.558248 -175.854233 
L 217.254414 -184.50735 
L 215.950581 -182.807235 
L 214.646747 -207.120784 
L 213.342913 -182.537999 
L 212.03908 -174.774179 
L 210.735246 -197.519678 
L 209.431413 -181.157982 
L 208.127579 -210.801142 
L 206.823746 -181.843013 
L 205.519912 -168.11438 
L 204.216079 -161.534571 
L 202.912245 -175.997786 
L 201.608412 -160.331836 
L 200.304578 -185.382854 
L 199.000745 -179.990609 
L 197.696911 -155.019747 
L 196.393078 -178.721659 
L 195.089244 -152.236826 
L 193.785411 -181.020803 
L 192.481577 -151.251849 
L 191.177744 -148.483591 
L 189.87391 -156.818825 
L 188.570077 -152.530267 
L 187.266243 -145.133063 
L 185.96241 -151.141357 
L 184.658576 -151.152749 
L 183.354743 -147.219179 
L 182.050909 -137.049246 
L 180.747076 -142.768219 
L 179.443242 -153.267217 
L 178.139409 -150.581183 
L 176.835575 -143.594631 
L 175.531742 -141.553923 
L 174.227908 -163.91319 
L 172.924074 -154.997496 
L 171.620241 -146.455302 
L 170.316407 -155.093864 
L 169.012574 -143.328046 
L 167.70874 -144.644557 
L 166.404907 -143.524462 
L 165.101073 -143.313365 
L 163.79724 -139.179346 
L 162.493406 -149.238912 
L 161.189573 -150.693061 
L 159.885739 -140.558324 
L 158.581906 -135.242527 
L 157.278072 -129.932996 
L 155.974239 -128.816523 
L 154.670405 -130.609653 
L 153.366572 -131.234069 
L 152.062738 -133.188788 
L 150.758905 -133.184532 
L 149.455071 -129.541087 
L 148.151238 -127.495393 
L 146.847404 -123.307495 
L 145.543571 -126.213909 
L 144.239737 -128.857437 
L 142.935904 -126.822082 
L 141.63207 -124.28629 
L 140.328237 -126.343147 
L 139.024403 -116.754579 
L 137.72057 -127.955363 
L 136.416736 -138.027291 
L 135.112903 -121.993838 
L 133.809069 -102.382131 
L 132.505235 -105.506059 
L 131.201402 -110.993461 
L 129.897568 -97.40473 
L 128.593735 -109.652913 
L 127.289901 -99.478844 
L 125.986068 -105.778272 
L 124.682234 -94.551181 
L 123.378401 -99.759843 
L 122.074567 -96.399065 
L 120.770734 -95.850345 
L 119.4669 -110.999642 
L 118.163067 -119.438885 
L 116.859233 -116.252179 
L 115.5554 -103.962257 
L 114.251566 -94.951738 
L 112.947733 -86.940631 
L 111.643899 -102.775582 
L 110.340066 -90.040195 
L 109.036232 -92.881701 
L 107.732399 -91.540078 
L 106.428565 -89.00193 
L 105.124732 -88.203137 
L 103.820898 -87.692022 
L 102.517065 -87.960602 
L 101.213231 -87.719818 
L 99.909398 -88.925795 
L 98.605564 -91.462072 
L 97.301731 -85.177318 
L 95.997897 -86.832977 
L 94.694064 -91.317243 
L 93.39023 -92.947021 
L 92.086396 -87.206785 
L 90.782563 -93.610826 
L 89.478729 -87.423131 
L 88.174896 -87.252875 
L 86.871062 -89.405958 
L 85.567229 -89.627838 
L 84.263395 -88.567377 
L 82.959562 -89.31707 
L 81.655728 -90.788809 
L 80.351895 -95.103425 
L 79.048061 -89.052829 
L 77.744228 -93.879883 
L 76.440394 -93.642024 
L 75.136561 -95.679494 
L 73.832727 -93.349767 
z
" id="md0952de85e" style="stroke:#3f7f4c;stroke-opacity:0.2;"/>
    </defs>
    <g clip-path="url(#p4eed81a512)">
     <use style="fill:#7eff99;fill-opacity:0.2;stroke:#3f7f4c;stroke-opacity:0.2;" x="0" xlink:href="#md0952de85e" y="345.6"/>
    </g>
   </g>
   <g id="matplotlib.axis_1">
    <g id="xtick_1">
     <g id="line2d_1">
      <defs>
       <path d="M 0 0 
L 0 3.5 
" id="mdcd28fe7eb" style="stroke:#000000;stroke-width:0.8;"/>
      </defs>
      <g>
       <use style="stroke:#000000;stroke-width:0.8;" x="72.528894" xlink:href="#mdcd28fe7eb" y="307.584"/>
      </g>
     </g>
     <g id="text_1">
      <!-- 0 -->
      <defs>
       <path d="M 31.78125 66.40625 
Q 24.171875 66.40625 20.328125 58.90625 
Q 16.5 51.421875 16.5 36.375 
Q 16.5 21.390625 20.328125 13.890625 
Q 24.171875 6.390625 31.78125 6.390625 
Q 39.453125 6.390625 43.28125 13.890625 
Q 47.125 21.390625 47.125 36.375 
Q 47.125 51.421875 43.28125 58.90625 
Q 39.453125 66.40625 31.78125 66.40625 
z
M 31.78125 74.21875 
Q 44.046875 74.21875 50.515625 64.515625 
Q 56.984375 54.828125 56.984375 36.375 
Q 56.984375 17.96875 50.515625 8.265625 
Q 44.046875 -1.421875 31.78125 -1.421875 
Q 19.53125 -1.421875 13.0625 8.265625 
Q 6.59375 17.96875 6.59375 36.375 
Q 6.59375 54.828125 13.0625 64.515625 
Q 19.53125 74.21875 31.78125 74.21875 
z
" id="DejaVuSans-48"/>
      </defs>
      <g transform="translate(69.347644 322.182437)scale(0.1 -0.1)">
       <use xlink:href="#DejaVuSans-48"/>
      </g>
     </g>
    </g>
    <g id="xtick_2">
     <g id="line2d_2">
      <g>
       <use style="stroke:#000000;stroke-width:0.8;" x="137.72057" xlink:href="#mdcd28fe7eb" y="307.584"/>
      </g>
     </g>
     <g id="text_2">
      <!-- 50 -->
      <defs>
       <path d="M 10.796875 72.90625 
L 49.515625 72.90625 
L 49.515625 64.59375 
L 19.828125 64.59375 
L 19.828125 46.734375 
Q 21.96875 47.46875 24.109375 47.828125 
Q 26.265625 48.1875 28.421875 48.1875 
Q 40.625 48.1875 47.75 41.5 
Q 54.890625 34.8125 54.890625 23.390625 
Q 54.890625 11.625 47.5625 5.09375 
Q 40.234375 -1.421875 26.90625 -1.421875 
Q 22.3125 -1.421875 17.546875 -0.640625 
Q 12.796875 0.140625 7.71875 1.703125 
L 7.71875 11.625 
Q 12.109375 9.234375 16.796875 8.0625 
Q 21.484375 6.890625 26.703125 6.890625 
Q 35.15625 6.890625 40.078125 11.328125 
Q 45.015625 15.765625 45.015625 23.390625 
Q 45.015625 31 40.078125 35.4375 
Q 35.15625 39.890625 26.703125 39.890625 
Q 22.75 39.890625 18.8125 39.015625 
Q 14.890625 38.140625 10.796875 36.28125 
z
" id="DejaVuSans-53"/>
      </defs>
      <g transform="translate(131.35807 322.182437)scale(0.1 -0.1)">
       <use xlink:href="#DejaVuSans-53"/>
       <use x="63.623047" xlink:href="#DejaVuSans-48"/>
      </g>
     </g>
    </g>
    <g id="xtick_3">
     <g id="line2d_3">
      <g>
       <use style="stroke:#000000;stroke-width:0.8;" x="202.912245" xlink:href="#mdcd28fe7eb" y="307.584"/>
      </g>
     </g>
     <g id="text_3">
      <!-- 100 -->
      <defs>
       <path d="M 12.40625 8.296875 
L 28.515625 8.296875 
L 28.515625 63.921875 
L 10.984375 60.40625 
L 10.984375 69.390625 
L 28.421875 72.90625 
L 38.28125 72.90625 
L 38.28125 8.296875 
L 54.390625 8.296875 
L 54.390625 0 
L 12.40625 0 
z
" id="DejaVuSans-49"/>
      </defs>
      <g transform="translate(193.368495 322.182437)scale(0.1 -0.1)">
       <use xlink:href="#DejaVuSans-49"/>
       <use x="63.623047" xlink:href="#DejaVuSans-48"/>
       <use x="127.246094" xlink:href="#DejaVuSans-48"/>
      </g>
     </g>
    </g>
    <g id="xtick_4">
     <g id="line2d_4">
      <g>
       <use style="stroke:#000000;stroke-width:0.8;" x="268.103921" xlink:href="#mdcd28fe7eb" y="307.584"/>
      </g>
     </g>
     <g id="text_4">
      <!-- 150 -->
      <g transform="translate(258.560171 322.182437)scale(0.1 -0.1)">
       <use xlink:href="#DejaVuSans-49"/>
       <use x="63.623047" xlink:href="#DejaVuSans-53"/>
       <use x="127.246094" xlink:href="#DejaVuSans-48"/>
      </g>
     </g>
    </g>
    <g id="xtick_5">
     <g id="line2d_5">
      <g>
       <use style="stroke:#000000;stroke-width:0.8;" x="333.295597" xlink:href="#mdcd28fe7eb" y="307.584"/>
      </g>
     </g>
     <g id="text_5">
      <!-- 200 -->
      <defs>
       <path d="M 19.1875 8.296875 
L 53.609375 8.296875 
L 53.609375 0 
L 7.328125 0 
L 7.328125 8.296875 
Q 12.9375 14.109375 22.625 23.890625 
Q 32.328125 33.6875 34.8125 36.53125 
Q 39.546875 41.84375 41.421875 45.53125 
Q 43.3125 49.21875 43.3125 52.78125 
Q 43.3125 58.59375 39.234375 62.25 
Q 35.15625 65.921875 28.609375 65.921875 
Q 23.96875 65.921875 18.8125 64.3125 
Q 13.671875 62.703125 7.8125 59.421875 
L 7.8125 69.390625 
Q 13.765625 71.78125 18.9375 73 
Q 24.125 74.21875 28.421875 74.21875 
Q 39.75 74.21875 46.484375 68.546875 
Q 53.21875 62.890625 53.21875 53.421875 
Q 53.21875 48.921875 51.53125 44.890625 
Q 49.859375 40.875 45.40625 35.40625 
Q 44.1875 33.984375 37.640625 27.21875 
Q 31.109375 20.453125 19.1875 8.296875 
z
" id="DejaVuSans-50"/>
      </defs>
      <g transform="translate(323.751847 322.182437)scale(0.1 -0.1)">
       <use xlink:href="#DejaVuSans-50"/>
       <use x="63.623047" xlink:href="#DejaVuSans-48"/>
       <use x="127.246094" xlink:href="#DejaVuSans-48"/>
      </g>
     </g>
    </g>
    <g id="xtick_6">
     <g id="line2d_6">
      <g>
       <use style="stroke:#000000;stroke-width:0.8;" x="398.487273" xlink:href="#mdcd28fe7eb" y="307.584"/>
      </g>
     </g>
     <g id="text_6">
      <!-- 250 -->
      <g transform="translate(388.943523 322.182437)scale(0.1 -0.1)">
       <use xlink:href="#DejaVuSans-50"/>
       <use x="63.623047" xlink:href="#DejaVuSans-53"/>
       <use x="127.246094" xlink:href="#DejaVuSans-48"/>
      </g>
     </g>
    </g>
    <g id="text_7">
     <!-- Episodes -->
     <defs>
      <path d="M 9.8125 72.90625 
L 55.90625 72.90625 
L 55.90625 64.59375 
L 19.671875 64.59375 
L 19.671875 43.015625 
L 54.390625 43.015625 
L 54.390625 34.71875 
L 19.671875 34.71875 
L 19.671875 8.296875 
L 56.78125 8.296875 
L 56.78125 0 
L 9.8125 0 
z
" id="DejaVuSans-69"/>
      <path d="M 18.109375 8.203125 
L 18.109375 -20.796875 
L 9.078125 -20.796875 
L 9.078125 54.6875 
L 18.109375 54.6875 
L 18.109375 46.390625 
Q 20.953125 51.265625 25.265625 53.625 
Q 29.59375 56 35.59375 56 
Q 45.5625 56 51.78125 48.09375 
Q 58.015625 40.1875 58.015625 27.296875 
Q 58.015625 14.40625 51.78125 6.484375 
Q 45.5625 -1.421875 35.59375 -1.421875 
Q 29.59375 -1.421875 25.265625 0.953125 
Q 20.953125 3.328125 18.109375 8.203125 
z
M 48.6875 27.296875 
Q 48.6875 37.203125 44.609375 42.84375 
Q 40.53125 48.484375 33.40625 48.484375 
Q 26.265625 48.484375 22.1875 42.84375 
Q 18.109375 37.203125 18.109375 27.296875 
Q 18.109375 17.390625 22.1875 11.75 
Q 26.265625 6.109375 33.40625 6.109375 
Q 40.53125 6.109375 44.609375 11.75 
Q 48.6875 17.390625 48.6875 27.296875 
z
" id="DejaVuSans-112"/>
      <path d="M 9.421875 54.6875 
L 18.40625 54.6875 
L 18.40625 0 
L 9.421875 0 
z
M 9.421875 75.984375 
L 18.40625 75.984375 
L 18.40625 64.59375 
L 9.421875 64.59375 
z
" id="DejaVuSans-105"/>
      <path d="M 44.28125 53.078125 
L 44.28125 44.578125 
Q 40.484375 46.53125 36.375 47.5 
Q 32.28125 48.484375 27.875 48.484375 
Q 21.1875 48.484375 17.84375 46.4375 
Q 14.5 44.390625 14.5 40.28125 
Q 14.5 37.15625 16.890625 35.375 
Q 19.28125 33.59375 26.515625 31.984375 
L 29.59375 31.296875 
Q 39.15625 29.25 43.1875 25.515625 
Q 47.21875 21.78125 47.21875 15.09375 
Q 47.21875 7.46875 41.1875 3.015625 
Q 35.15625 -1.421875 24.609375 -1.421875 
Q 20.21875 -1.421875 15.453125 -0.5625 
Q 10.6875 0.296875 5.421875 2 
L 5.421875 11.28125 
Q 10.40625 8.6875 15.234375 7.390625 
Q 20.0625 6.109375 24.8125 6.109375 
Q 31.15625 6.109375 34.5625 8.28125 
Q 37.984375 10.453125 37.984375 14.40625 
Q 37.984375 18.0625 35.515625 20.015625 
Q 33.0625 21.96875 24.703125 23.78125 
L 21.578125 24.515625 
Q 13.234375 26.265625 9.515625 29.90625 
Q 5.8125 33.546875 5.8125 39.890625 
Q 5.8125 47.609375 11.28125 51.796875 
Q 16.75 56 26.8125 56 
Q 31.78125 56 36.171875 55.265625 
Q 40.578125 54.546875 44.28125 53.078125 
z
" id="DejaVuSans-115"/>
      <path d="M 30.609375 48.390625 
Q 23.390625 48.390625 19.1875 42.75 
Q 14.984375 37.109375 14.984375 27.296875 
Q 14.984375 17.484375 19.15625 11.84375 
Q 23.34375 6.203125 30.609375 6.203125 
Q 37.796875 6.203125 41.984375 11.859375 
Q 46.1875 17.53125 46.1875 27.296875 
Q 46.1875 37.015625 41.984375 42.703125 
Q 37.796875 48.390625 30.609375 48.390625 
z
M 30.609375 56 
Q 42.328125 56 49.015625 48.375 
Q 55.71875 40.765625 55.71875 27.296875 
Q 55.71875 13.875 49.015625 6.21875 
Q 42.328125 -1.421875 30.609375 -1.421875 
Q 18.84375 -1.421875 12.171875 6.21875 
Q 5.515625 13.875 5.515625 27.296875 
Q 5.515625 40.765625 12.171875 48.375 
Q 18.84375 56 30.609375 56 
z
" id="DejaVuSans-111"/>
      <path d="M 45.40625 46.390625 
L 45.40625 75.984375 
L 54.390625 75.984375 
L 54.390625 0 
L 45.40625 0 
L 45.40625 8.203125 
Q 42.578125 3.328125 38.25 0.953125 
Q 33.9375 -1.421875 27.875 -1.421875 
Q 17.96875 -1.421875 11.734375 6.484375 
Q 5.515625 14.40625 5.515625 27.296875 
Q 5.515625 40.1875 11.734375 48.09375 
Q 17.96875 56 27.875 56 
Q 33.9375 56 38.25 53.625 
Q 42.578125 51.265625 45.40625 46.390625 
z
M 14.796875 27.296875 
Q 14.796875 17.390625 18.875 11.75 
Q 22.953125 6.109375 30.078125 6.109375 
Q 37.203125 6.109375 41.296875 11.75 
Q 45.40625 17.390625 45.40625 27.296875 
Q 45.40625 37.203125 41.296875 42.84375 
Q 37.203125 48.484375 30.078125 48.484375 
Q 22.953125 48.484375 18.875 42.84375 
Q 14.796875 37.203125 14.796875 27.296875 
z
" id="DejaVuSans-100"/>
      <path d="M 56.203125 29.59375 
L 56.203125 25.203125 
L 14.890625 25.203125 
Q 15.484375 15.921875 20.484375 11.0625 
Q 25.484375 6.203125 34.421875 6.203125 
Q 39.59375 6.203125 44.453125 7.46875 
Q 49.3125 8.734375 54.109375 11.28125 
L 54.109375 2.78125 
Q 49.265625 0.734375 44.1875 -0.34375 
Q 39.109375 -1.421875 33.890625 -1.421875 
Q 20.796875 -1.421875 13.15625 6.1875 
Q 5.515625 13.8125 5.515625 26.8125 
Q 5.515625 40.234375 12.765625 48.109375 
Q 20.015625 56 32.328125 56 
Q 43.359375 56 49.78125 48.890625 
Q 56.203125 41.796875 56.203125 29.59375 
z
M 47.21875 32.234375 
Q 47.125 39.59375 43.09375 43.984375 
Q 39.0625 48.390625 32.421875 48.390625 
Q 24.90625 48.390625 20.390625 44.140625 
Q 15.875 39.890625 15.1875 32.171875 
z
" id="DejaVuSans-101"/>
     </defs>
     <g transform="translate(213.917812 335.860562)scale(0.1 -0.1)">
      <use xlink:href="#DejaVuSans-69"/>
      <use x="63.183594" xlink:href="#DejaVuSans-112"/>
      <use x="126.660156" xlink:href="#DejaVuSans-105"/>
      <use x="154.443359" xlink:href="#DejaVuSans-115"/>
      <use x="206.542969" xlink:href="#DejaVuSans-111"/>
      <use x="267.724609" xlink:href="#DejaVuSans-100"/>
      <use x="331.201172" xlink:href="#DejaVuSans-101"/>
      <use x="392.724609" xlink:href="#DejaVuSans-115"/>
     </g>
    </g>
   </g>
   <g id="matplotlib.axis_2">
    <g id="ytick_1">
     <g id="line2d_7">
      <defs>
       <path d="M 0 0 
L -3.5 0 
" id="m48ebe2f324" style="stroke:#000000;stroke-width:0.8;"/>
      </defs>
      <g>
       <use style="stroke:#000000;stroke-width:0.8;" x="57.6" xlink:href="#m48ebe2f324" y="305.936026"/>
      </g>
     </g>
     <g id="text_8">
      <!-- 100 -->
      <defs>
       <path d="M 10.59375 35.5 
L 73.1875 35.5 
L 73.1875 27.203125 
L 10.59375 27.203125 
z
" id="DejaVuSans-8722"/>
      </defs>
      <g transform="translate(23.132812 309.735245)scale(0.1 -0.1)">
       <use xlink:href="#DejaVuSans-8722"/>
       <use x="83.789062" xlink:href="#DejaVuSans-49"/>
       <use x="147.412109" xlink:href="#DejaVuSans-48"/>
       <use x="211.035156" xlink:href="#DejaVuSans-48"/>
      </g>
     </g>
    </g>
    <g id="ytick_2">
     <g id="line2d_8">
      <g>
       <use style="stroke:#000000;stroke-width:0.8;" x="57.6" xlink:href="#m48ebe2f324" y="264.700375"/>
      </g>
     </g>
     <g id="text_9">
      <!-- 0 -->
      <g transform="translate(44.2375 268.499594)scale(0.1 -0.1)">
       <use xlink:href="#DejaVuSans-48"/>
      </g>
     </g>
    </g>
    <g id="ytick_3">
     <g id="line2d_9">
      <g>
       <use style="stroke:#000000;stroke-width:0.8;" x="57.6" xlink:href="#m48ebe2f324" y="223.464723"/>
      </g>
     </g>
     <g id="text_10">
      <!-- 100 -->
      <g transform="translate(31.5125 227.263942)scale(0.1 -0.1)">
       <use xlink:href="#DejaVuSans-49"/>
       <use x="63.623047" xlink:href="#DejaVuSans-48"/>
       <use x="127.246094" xlink:href="#DejaVuSans-48"/>
      </g>
     </g>
    </g>
    <g id="ytick_4">
     <g id="line2d_10">
      <g>
       <use style="stroke:#000000;stroke-width:0.8;" x="57.6" xlink:href="#m48ebe2f324" y="182.229071"/>
      </g>
     </g>
     <g id="text_11">
      <!-- 200 -->
      <g transform="translate(31.5125 186.02829)scale(0.1 -0.1)">
       <use xlink:href="#DejaVuSans-50"/>
       <use x="63.623047" xlink:href="#DejaVuSans-48"/>
       <use x="127.246094" xlink:href="#DejaVuSans-48"/>
      </g>
     </g>
    </g>
    <g id="ytick_5">
     <g id="line2d_11">
      <g>
       <use style="stroke:#000000;stroke-width:0.8;" x="57.6" xlink:href="#m48ebe2f324" y="140.99342"/>
      </g>
     </g>
     <g id="text_12">
      <!-- 300 -->
      <defs>
       <path d="M 40.578125 39.3125 
Q 47.65625 37.796875 51.625 33 
Q 55.609375 28.21875 55.609375 21.1875 
Q 55.609375 10.40625 48.1875 4.484375 
Q 40.765625 -1.421875 27.09375 -1.421875 
Q 22.515625 -1.421875 17.65625 -0.515625 
Q 12.796875 0.390625 7.625 2.203125 
L 7.625 11.71875 
Q 11.71875 9.328125 16.59375 8.109375 
Q 21.484375 6.890625 26.8125 6.890625 
Q 36.078125 6.890625 40.9375 10.546875 
Q 45.796875 14.203125 45.796875 21.1875 
Q 45.796875 27.640625 41.28125 31.265625 
Q 36.765625 34.90625 28.71875 34.90625 
L 20.21875 34.90625 
L 20.21875 43.015625 
L 29.109375 43.015625 
Q 36.375 43.015625 40.234375 45.921875 
Q 44.09375 48.828125 44.09375 54.296875 
Q 44.09375 59.90625 40.109375 62.90625 
Q 36.140625 65.921875 28.71875 65.921875 
Q 24.65625 65.921875 20.015625 65.03125 
Q 15.375 64.15625 9.8125 62.3125 
L 9.8125 71.09375 
Q 15.4375 72.65625 20.34375 73.4375 
Q 25.25 74.21875 29.59375 74.21875 
Q 40.828125 74.21875 47.359375 69.109375 
Q 53.90625 64.015625 53.90625 55.328125 
Q 53.90625 49.265625 50.4375 45.09375 
Q 46.96875 40.921875 40.578125 39.3125 
z
" id="DejaVuSans-51"/>
      </defs>
      <g transform="translate(31.5125 144.792638)scale(0.1 -0.1)">
       <use xlink:href="#DejaVuSans-51"/>
       <use x="63.623047" xlink:href="#DejaVuSans-48"/>
       <use x="127.246094" xlink:href="#DejaVuSans-48"/>
      </g>
     </g>
    </g>
    <g id="ytick_6">
     <g id="line2d_12">
      <g>
       <use style="stroke:#000000;stroke-width:0.8;" x="57.6" xlink:href="#m48ebe2f324" y="99.757768"/>
      </g>
     </g>
     <g id="text_13">
      <!-- 400 -->
      <defs>
       <path d="M 37.796875 64.3125 
L 12.890625 25.390625 
L 37.796875 25.390625 
z
M 35.203125 72.90625 
L 47.609375 72.90625 
L 47.609375 25.390625 
L 58.015625 25.390625 
L 58.015625 17.1875 
L 47.609375 17.1875 
L 47.609375 0 
L 37.796875 0 
L 37.796875 17.1875 
L 4.890625 17.1875 
L 4.890625 26.703125 
z
" id="DejaVuSans-52"/>
      </defs>
      <g transform="translate(31.5125 103.556987)scale(0.1 -0.1)">
       <use xlink:href="#DejaVuSans-52"/>
       <use x="63.623047" xlink:href="#DejaVuSans-48"/>
       <use x="127.246094" xlink:href="#DejaVuSans-48"/>
      </g>
     </g>
    </g>
    <g id="ytick_7">
     <g id="line2d_13">
      <g>
       <use style="stroke:#000000;stroke-width:0.8;" x="57.6" xlink:href="#m48ebe2f324" y="58.522116"/>
      </g>
     </g>
     <g id="text_14">
      <!-- 500 -->
      <g transform="translate(31.5125 62.321335)scale(0.1 -0.1)">
       <use xlink:href="#DejaVuSans-53"/>
       <use x="63.623047" xlink:href="#DejaVuSans-48"/>
       <use x="127.246094" xlink:href="#DejaVuSans-48"/>
      </g>
     </g>
    </g>
    <g id="text_15">
     <!-- Reward -->
     <defs>
      <path d="M 44.390625 34.1875 
Q 47.5625 33.109375 50.5625 29.59375 
Q 53.5625 26.078125 56.59375 19.921875 
L 66.609375 0 
L 56 0 
L 46.6875 18.703125 
Q 43.0625 26.03125 39.671875 28.421875 
Q 36.28125 30.8125 30.421875 30.8125 
L 19.671875 30.8125 
L 19.671875 0 
L 9.8125 0 
L 9.8125 72.90625 
L 32.078125 72.90625 
Q 44.578125 72.90625 50.734375 67.671875 
Q 56.890625 62.453125 56.890625 51.90625 
Q 56.890625 45.015625 53.6875 40.46875 
Q 50.484375 35.9375 44.390625 34.1875 
z
M 19.671875 64.796875 
L 19.671875 38.921875 
L 32.078125 38.921875 
Q 39.203125 38.921875 42.84375 42.21875 
Q 46.484375 45.515625 46.484375 51.90625 
Q 46.484375 58.296875 42.84375 61.546875 
Q 39.203125 64.796875 32.078125 64.796875 
z
" id="DejaVuSans-82"/>
      <path d="M 4.203125 54.6875 
L 13.1875 54.6875 
L 24.421875 12.015625 
L 35.59375 54.6875 
L 46.1875 54.6875 
L 57.421875 12.015625 
L 68.609375 54.6875 
L 77.59375 54.6875 
L 63.28125 0 
L 52.6875 0 
L 40.921875 44.828125 
L 29.109375 0 
L 18.5 0 
z
" id="DejaVuSans-119"/>
      <path d="M 34.28125 27.484375 
Q 23.390625 27.484375 19.1875 25 
Q 14.984375 22.515625 14.984375 16.5 
Q 14.984375 11.71875 18.140625 8.90625 
Q 21.296875 6.109375 26.703125 6.109375 
Q 34.1875 6.109375 38.703125 11.40625 
Q 43.21875 16.703125 43.21875 25.484375 
L 43.21875 27.484375 
z
M 52.203125 31.203125 
L 52.203125 0 
L 43.21875 0 
L 43.21875 8.296875 
Q 40.140625 3.328125 35.546875 0.953125 
Q 30.953125 -1.421875 24.3125 -1.421875 
Q 15.921875 -1.421875 10.953125 3.296875 
Q 6 8.015625 6 15.921875 
Q 6 25.140625 12.171875 29.828125 
Q 18.359375 34.515625 30.609375 34.515625 
L 43.21875 34.515625 
L 43.21875 35.40625 
Q 43.21875 41.609375 39.140625 45 
Q 35.0625 48.390625 27.6875 48.390625 
Q 23 48.390625 18.546875 47.265625 
Q 14.109375 46.140625 10.015625 43.890625 
L 10.015625 52.203125 
Q 14.9375 54.109375 19.578125 55.046875 
Q 24.21875 56 28.609375 56 
Q 40.484375 56 46.34375 49.84375 
Q 52.203125 43.703125 52.203125 31.203125 
z
" id="DejaVuSans-97"/>
      <path d="M 41.109375 46.296875 
Q 39.59375 47.171875 37.8125 47.578125 
Q 36.03125 48 33.890625 48 
Q 26.265625 48 22.1875 43.046875 
Q 18.109375 38.09375 18.109375 28.8125 
L 18.109375 0 
L 9.078125 0 
L 9.078125 54.6875 
L 18.109375 54.6875 
L 18.109375 46.1875 
Q 20.953125 51.171875 25.484375 53.578125 
Q 30.03125 56 36.53125 56 
Q 37.453125 56 38.578125 55.875 
Q 39.703125 55.765625 41.0625 55.515625 
z
" id="DejaVuSans-114"/>
     </defs>
     <g transform="translate(17.053125 193.457687)rotate(-90)scale(0.1 -0.1)">
      <use xlink:href="#DejaVuSans-82"/>
      <use x="69.419922" xlink:href="#DejaVuSans-101"/>
      <use x="130.943359" xlink:href="#DejaVuSans-119"/>
      <use x="212.730469" xlink:href="#DejaVuSans-97"/>
      <use x="274.009766" xlink:href="#DejaVuSans-114"/>
      <use x="315.107422" xlink:href="#DejaVuSans-100"/>
     </g>
    </g>
   </g>
   <g id="line2d_14">
    <path clip-path="url(#p4eed81a512)" d="M 73.832727 255.174939 
L 75.136561 257.4429 
L 77.744228 254.803818 
L 79.048061 258.226377 
L 80.351895 258.473791 
L 82.959562 258.267613 
L 84.263395 258.844912 
L 85.567229 258.886148 
L 86.871062 260.246924 
L 88.174896 260.040746 
L 89.478729 259.133562 
L 90.782563 260.081982 
L 92.086396 260.370631 
L 93.39023 259.33974 
L 94.694064 260.741752 
L 95.997897 260.370631 
L 97.301731 259.380976 
L 98.605564 260.329396 
L 99.909398 259.257269 
L 101.213231 260.494338 
L 102.517065 260.164453 
L 103.820898 260.535574 
L 105.124732 260.164453 
L 106.428565 260.494338 
L 107.732399 260.28816 
L 109.036232 260.57681 
L 110.340066 260.205689 
L 111.643899 260.700517 
L 112.947733 260.57681 
L 115.5554 260.782988 
L 116.859233 260.782988 
L 118.163067 260.618045 
L 120.770734 260.824223 
L 123.378401 260.618045 
L 124.682234 260.741752 
L 125.986068 260.659281 
L 127.289901 260.741752 
L 128.593735 260.57681 
L 129.897568 260.741752 
L 131.201402 260.329396 
L 132.505235 260.700517 
L 133.809069 260.28816 
L 135.112903 260.535574 
L 137.72057 260.659281 
L 139.024403 260.453103 
L 140.328237 260.535574 
L 141.63207 260.205689 
L 142.935904 260.535574 
L 144.239737 260.659281 
L 145.543571 260.453103 
L 146.847404 260.535574 
L 148.151238 260.28816 
L 149.455071 259.669625 
L 150.758905 260.370631 
L 152.062738 260.081982 
L 153.366572 260.28816 
L 154.670405 260.205689 
L 157.278072 260.205689 
L 159.885739 258.10267 
L 161.189573 257.360429 
L 162.493406 255.587296 
L 163.79724 257.525371 
L 165.101073 258.308849 
L 166.404907 257.73155 
L 167.70874 259.092326 
L 169.012574 259.793332 
L 170.316407 255.83471 
L 171.620241 257.360429 
L 174.227908 257.937728 
L 175.531742 257.690314 
L 176.835575 255.793474 
L 178.139409 255.628531 
L 179.443242 257.896492 
L 180.747076 250.350368 
L 182.050909 248.783413 
L 183.354743 245.195912 
L 184.658576 249.773069 
L 185.96241 246.06186 
L 187.266243 239.505392 
L 188.570077 238.845621 
L 189.87391 243.793899 
L 191.177744 242.680537 
L 192.481577 242.103238 
L 193.785411 233.979814 
L 195.089244 237.319902 
L 196.393078 236.412718 
L 197.696911 241.113582 
L 199.000745 231.46444 
L 200.304578 232.206681 
L 201.608412 236.86631 
L 202.912245 232.577802 
L 204.216079 236.825074 
L 205.519912 233.979814 
L 206.823746 228.701651 
L 208.127579 226.43369 
L 209.431413 228.866593 
L 210.735246 223.87708 
L 212.03908 223.670901 
L 213.342913 227.134696 
L 214.646747 222.598774 
L 215.950581 224.619321 
L 217.254414 219.506101 
L 218.558248 220.949348 
L 219.862081 212.743454 
L 221.165915 217.691732 
L 222.469748 211.753798 
L 223.773582 214.227937 
L 225.077415 218.598916 
L 226.381249 211.877505 
L 227.685082 212.949632 
L 228.988916 213.114575 
L 230.292749 208.207532 
L 231.596583 210.557964 
L 232.900416 209.774487 
L 234.20425 207.382819 
L 235.508083 205.485979 
L 236.811917 202.640719 
L 238.11575 201.857242 
L 239.419584 196.125486 
L 240.723417 206.393163 
L 242.027251 198.434683 
L 243.331084 201.651063 
L 244.634918 195.218302 
L 245.938751 197.733676 
L 247.242585 198.847039 
L 248.546418 201.115 
L 249.850252 194.146175 
L 251.154085 188.744304 
L 252.457919 188.991718 
L 253.761752 194.393589 
L 255.065586 204.991151 
L 256.369419 194.352353 
L 257.673253 200.620172 
L 258.977087 199.053217 
L 260.28092 196.537843 
L 261.584754 192.166863 
L 262.888587 192.331806 
L 264.192421 181.899186 
L 265.496254 182.600192 
L 266.800088 187.589706 
L 268.103921 183.507377 
L 269.407755 172.250044 
L 270.711588 184.785682 
L 272.015422 190.270023 
L 273.319255 181.404358 
L 274.623089 173.89947 
L 275.926922 177.734385 
L 277.230756 179.672461 
L 278.534589 182.930077 
L 279.838423 198.228504 
L 281.142256 186.435108 
L 282.44609 183.218727 
L 283.749923 188.620597 
L 285.053757 183.507377 
L 286.35759 190.352495 
L 287.661424 191.507093 
L 288.965257 188.826776 
L 290.269091 179.260104 
L 291.572924 183.09502 
L 292.876758 176.249902 
L 294.180591 177.198322 
L 295.484425 183.878497 
L 296.788258 186.641286 
L 298.092092 193.321462 
L 299.395926 192.909105 
L 300.699759 184.620739 
L 302.003593 186.806229 
L 303.307426 187.754649 
L 304.61126 192.86787 
L 305.915093 189.321603 
L 307.218927 189.362839 
L 308.52276 187.630942 
L 309.826594 192.331806 
L 311.130427 180.126053 
L 312.434261 193.981232 
L 313.738094 190.434966 
L 315.041928 188.579362 
L 316.345761 195.919308 
L 317.649595 179.30134 
L 318.953428 194.517296 
L 320.257262 185.156803 
L 321.561095 179.425047 
L 322.864929 183.218727 
L 324.168762 183.919733 
L 325.472596 185.115567 
L 326.776429 180.785824 
L 328.080263 190.146317 
L 329.384096 180.002346 
L 330.68793 176.74473 
L 331.991763 177.69315 
L 333.295597 181.569301 
L 334.59943 189.197897 
L 335.903264 175.301482 
L 337.207097 186.971171 
L 338.510931 184.99186 
L 339.814765 187.012407 
L 341.118598 178.64157 
L 342.422432 179.796168 
L 343.726265 179.796168 
L 345.030099 177.610678 
L 346.333932 167.301765 
L 347.637766 183.589848 
L 348.941599 181.693008 
L 350.245433 186.063987 
L 351.549266 186.187694 
L 352.8531 178.187978 
L 354.156933 193.898761 
L 355.460767 184.620739 
L 356.7646 184.002204 
L 358.068434 187.094878 
L 359.372267 199.712988 
L 360.676101 175.466425 
L 361.979934 195.960543 
L 363.283768 205.56845 
L 364.587601 207.341583 
L 365.891435 215.300064 
L 368.499102 201.156236 
L 369.802935 190.764851 
L 371.106769 202.104656 
L 372.410602 198.475918 
L 373.714436 203.094311 
L 375.018269 204.537559 
L 376.322103 195.754365 
L 377.625936 197.774912 
L 378.92977 198.352211 
L 380.233604 201.032529 
L 381.537437 196.207957 
L 382.841271 198.723332 
L 384.145104 186.476344 
L 385.448938 186.105223 
L 386.752771 176.621023 
L 388.056605 184.909389 
L 389.360438 191.177208 
L 390.664272 196.207957 
L 391.968105 193.981232 
L 393.271939 196.331664 
L 394.575772 190.929794 
L 395.879606 187.754649 
L 397.183439 191.713271 
L 398.487273 189.156661 
L 398.487273 189.156661 
" style="fill:none;stroke:#cc4f1b;stroke-linecap:square;stroke-width:1.5;"/>
   </g>
   <g id="line2d_15">
    <path clip-path="url(#p4eed81a512)" d="M 73.832727 240.966966 
L 75.136561 249.443184 
L 76.440394 251.000975 
L 77.744228 252.971123 
L 79.048061 254.574731 
L 80.351895 255.765984 
L 81.655728 256.407427 
L 82.959562 254.437279 
L 84.263395 256.269975 
L 85.567229 256.315792 
L 86.871062 256.132523 
L 88.174896 256.544879 
L 89.478729 257.277957 
L 90.782563 257.23214 
L 92.086396 255.353627 
L 93.39023 256.773966 
L 94.694064 255.399444 
L 95.997897 256.499062 
L 97.301731 255.720166 
L 98.605564 255.949253 
L 99.909398 257.507044 
L 101.213231 257.277957 
L 103.820898 255.857618 
L 105.124732 257.094688 
L 107.732399 257.323775 
L 109.036232 256.957236 
L 110.340066 256.17834 
L 111.643899 255.674349 
L 112.947733 256.224157 
L 114.251566 255.582714 
L 116.859233 256.040888 
L 118.163067 254.758001 
L 119.4669 255.170357 
L 120.770734 255.399444 
L 122.074567 256.773966 
L 123.378401 256.911418 
L 124.682234 257.461227 
L 125.986068 256.590697 
L 127.289901 255.399444 
L 128.593735 257.598679 
L 129.897568 256.17834 
L 131.201402 255.995071 
L 132.505235 257.04887 
L 133.809069 256.819784 
L 135.112903 256.453244 
L 136.416736 255.445262 
L 137.72057 257.23214 
L 139.024403 256.269975 
L 140.328237 257.04887 
L 141.63207 257.04887 
L 142.935904 256.819784 
L 144.239737 256.315792 
L 145.543571 255.353627 
L 148.151238 256.911418 
L 149.455071 256.819784 
L 150.758905 256.132523 
L 152.062738 256.086705 
L 153.366572 256.36161 
L 154.670405 256.269975 
L 155.974239 256.819784 
L 157.278072 256.544879 
L 158.581906 254.895453 
L 159.885739 256.957236 
L 161.189573 253.612566 
L 162.493406 255.445262 
L 166.404907 256.728149 
L 167.70874 254.849636 
L 169.012574 251.779871 
L 170.316407 253.795836 
L 171.620241 255.216175 
L 174.227908 253.933288 
L 175.531742 257.781949 
L 176.835575 253.979105 
L 178.139409 257.003053 
L 179.443242 254.116557 
L 180.747076 257.094688 
L 182.050909 252.971123 
L 183.354743 253.979105 
L 184.658576 256.636514 
L 185.96241 255.170357 
L 187.266243 251.596601 
L 188.570077 256.453244 
L 189.87391 254.483097 
L 192.481577 257.003053 
L 193.785411 254.620549 
L 195.089244 252.787853 
L 196.393078 254.758001 
L 197.696911 254.803818 
L 199.000745 256.911418 
L 200.304578 257.873584 
L 201.608412 254.391462 
L 202.912245 252.971123 
L 204.216079 252.604584 
L 205.519912 253.429297 
L 206.823746 255.674349 
L 208.127579 255.536897 
L 209.431413 255.261992 
L 210.735246 254.116557 
L 212.03908 255.857618 
L 213.342913 254.437279 
L 214.646747 253.20021 
L 215.950581 253.383479 
L 217.254414 251.459149 
L 218.558248 242.341488 
L 219.862081 241.333505 
L 221.165915 245.594523 
L 222.469748 238.217923 
L 225.077415 229.466801 
L 226.381249 225.893045 
L 227.685082 236.293592 
L 228.988916 237.576479 
L 230.292749 225.663958 
L 231.596583 220.34914 
L 232.900416 218.058271 
L 234.20425 213.33908 
L 235.508083 205.77921 
L 236.811917 206.466471 
L 238.11575 207.978445 
L 240.723417 197.394628 
L 242.027251 204.038149 
L 243.331084 190.018028 
L 244.634918 188.322784 
L 245.938751 189.010045 
L 247.242585 193.637602 
L 248.546418 193.729236 
L 249.850252 188.964228 
L 251.154085 197.119723 
L 252.457919 203.488341 
L 253.761752 197.852802 
L 255.065586 193.591784 
L 256.369419 195.332845 
L 257.673253 190.751106 
L 258.977087 187.772976 
L 260.28092 180.488011 
L 261.584754 188.322784 
L 262.888587 182.595611 
L 264.192421 183.511958 
L 265.496254 192.26308 
L 266.800088 185.115567 
L 268.103921 179.480028 
L 269.407755 172.011793 
L 270.711588 167.659141 
L 272.015422 156.388063 
L 273.319255 168.896211 
L 274.623089 166.147167 
L 275.926922 165.91808 
L 277.230756 165.001732 
L 278.534589 170.454002 
L 279.838423 165.91808 
L 281.142256 166.330437 
L 282.44609 147.774394 
L 283.749923 165.185002 
L 285.053757 169.033663 
L 286.35759 150.981611 
L 287.661424 163.214854 
L 288.965257 169.216932 
L 290.269091 163.489759 
L 291.572924 150.431802 
L 292.876758 157.85422 
L 294.180591 137.053124 
L 295.484425 163.443941 
L 296.788258 158.358211 
L 298.092092 156.983689 
L 299.395926 139.435628 
L 300.699759 149.286367 
L 302.003593 154.50955 
L 303.307426 152.356133 
L 304.61126 143.605011 
L 305.915093 148.874011 
L 307.218927 148.828194 
L 308.52276 148.140933 
L 309.826594 145.850063 
L 311.130427 140.351976 
L 312.434261 151.943776 
L 313.738094 175.997906 
L 315.041928 165.91808 
L 316.345761 160.374176 
L 317.649595 150.202715 
L 318.953428 161.198889 
L 320.257262 151.027428 
L 321.561095 158.862202 
L 322.864929 145.02535 
L 324.168762 153.45575 
L 325.472596 138.427646 
L 326.776429 138.290194 
L 328.080263 150.706707 
L 329.384096 150.385985 
L 330.68793 160.786533 
L 331.991763 154.50955 
L 333.295597 164.955915 
L 334.59943 148.599107 
L 335.903264 149.103098 
L 337.207097 150.29435 
L 338.510931 161.931967 
L 339.814765 156.479698 
L 341.118598 148.095115 
L 342.422432 155.838254 
L 343.726265 165.780628 
L 345.030099 159.274559 
L 346.333932 158.129124 
L 347.637766 162.894132 
L 348.941599 158.54148 
L 350.245433 161.565428 
L 351.549266 148.00348 
L 352.8531 144.750446 
L 354.156933 146.308237 
L 355.460767 154.647002 
L 356.7646 157.67095 
L 358.068434 149.744541 
L 359.372267 152.356133 
L 360.676101 140.718515 
L 361.979934 146.903863 
L 363.283768 151.027428 
L 364.587601 151.027428 
L 365.891435 142.780298 
L 367.195268 135.312063 
L 368.499102 162.252689 
L 369.802935 144.338089 
L 371.106769 137.786202 
L 372.410602 166.147167 
L 373.714436 147.728576 
L 375.018269 152.768489 
L 376.322103 139.985437 
L 377.625936 163.581393 
L 378.92977 131.463402 
L 380.233604 156.983689 
L 381.537437 174.073576 
L 382.841271 144.979533 
L 384.145104 169.216932 
L 386.752771 148.415837 
L 388.056605 142.184672 
L 389.360438 165.093367 
L 390.664272 158.54148 
L 391.968105 157.075324 
L 393.271939 147.13295 
L 394.575772 166.467889 
L 395.879606 171.599437 
L 397.183439 145.850063 
L 398.487273 138.70255 
L 398.487273 138.70255 
" style="fill:none;stroke:#1b2acc;stroke-linecap:square;stroke-width:1.5;"/>
   </g>
   <g id="line2d_16">
    <path clip-path="url(#p4eed81a512)" d="M 73.832727 256.269975 
L 75.136561 256.132523 
L 76.440394 256.17834 
L 77.744228 256.453244 
L 79.048061 258.606662 
L 80.351895 256.269975 
L 81.655728 257.690314 
L 84.263395 259.15647 
L 85.567229 258.652479 
L 88.174896 259.568827 
L 89.478729 259.660462 
L 90.782563 257.277957 
L 92.086396 259.660462 
L 93.39023 258.148488 
L 94.694064 257.965218 
L 95.997897 259.935366 
L 97.301731 260.714262 
L 98.605564 258.744114 
L 99.909398 259.293923 
L 101.213231 259.706279 
L 102.517065 259.752097 
L 103.820898 259.981184 
L 105.124732 259.981184 
L 106.428565 259.477192 
L 107.732399 258.698297 
L 109.036232 258.10267 
L 110.340066 259.064836 
L 111.643899 256.17834 
L 112.947733 260.027001 
L 115.5554 255.399444 
L 116.859233 252.238044 
L 118.163067 251.046792 
L 119.4669 253.933288 
L 120.770734 257.140505 
L 122.074567 257.461227 
L 123.378401 255.12454 
L 124.682234 257.003053 
L 125.986068 253.20021 
L 127.289901 254.987088 
L 128.593735 253.20021 
L 129.897568 256.040888 
L 131.201402 252.192227 
L 132.505235 252.925305 
L 133.809069 254.024923 
L 135.112903 247.564671 
L 136.416736 239.31754 
L 137.72057 243.945097 
L 139.024403 247.564671 
L 140.328237 244.311636 
L 141.63207 244.998897 
L 142.935904 243.441105 
L 144.239737 243.166201 
L 145.543571 244.907262 
L 146.847404 245.457071 
L 148.151238 244.403271 
L 149.455071 242.753845 
L 150.758905 239.042636 
L 152.062738 239.454992 
L 153.366572 241.196053 
L 154.670405 239.50081 
L 157.278072 241.333505 
L 158.581906 239.271723 
L 159.885739 237.668114 
L 161.189573 232.948923 
L 162.493406 233.819453 
L 163.79724 237.759749 
L 165.101073 235.927053 
L 166.404907 236.889219 
L 167.70874 233.911088 
L 169.012574 236.110323 
L 170.316407 232.444932 
L 171.620241 234.644166 
L 172.924074 232.170027 
L 174.227908 227.817375 
L 175.531742 236.843401 
L 176.835575 235.377245 
L 178.139409 233.040558 
L 179.443242 232.078393 
L 180.747076 233.773636 
L 182.050909 237.484845 
L 183.354743 232.12421 
L 184.658576 228.458819 
L 185.96241 228.550453 
L 187.266243 230.88714 
L 188.570077 227.863193 
L 189.87391 221.494575 
L 191.177744 226.488671 
L 192.481577 219.936784 
L 193.785411 208.436619 
L 195.089244 218.699714 
L 196.393078 208.482436 
L 197.696911 216.821201 
L 199.000745 209.261332 
L 200.304578 202.755262 
L 201.608412 211.735471 
L 202.912245 204.496323 
L 204.216079 209.719506 
L 205.519912 205.825028 
L 206.823746 196.065923 
L 208.127579 179.80075 
L 209.431413 195.332845 
L 210.735246 186.81081 
L 212.03908 202.480358 
L 213.342913 198.219341 
L 214.646747 190.109663 
L 215.950581 194.828854 
L 217.254414 192.400532 
L 218.558248 195.378663 
L 219.862081 185.390471 
L 221.165915 197.073906 
L 222.469748 196.524097 
L 223.773582 191.255097 
L 225.077415 193.408515 
L 227.685082 203.305071 
L 228.988916 197.119723 
L 230.292749 197.669532 
L 231.596583 192.354715 
L 232.900416 200.51021 
L 234.20425 195.607749 
L 235.508083 193.637602 
L 236.811917 201.334923 
L 238.11575 199.135689 
L 239.419584 198.906602 
L 240.723417 193.912506 
L 242.027251 198.036071 
L 243.331084 196.890636 
L 244.634918 191.438367 
L 245.938751 199.868767 
L 247.242585 196.386645 
L 248.546418 193.820871 
L 249.850252 192.26308 
L 251.154085 195.287028 
L 252.457919 192.675436 
L 253.761752 191.621637 
L 255.065586 195.470297 
L 256.369419 192.583802 
L 257.673253 186.398454 
L 258.977087 195.699384 
L 260.28092 180.992002 
L 261.584754 189.193315 
L 262.888587 196.157558 
L 265.496254 190.934376 
L 266.800088 189.147497 
L 268.103921 173.065593 
L 269.407755 189.10168 
L 270.711588 192.721254 
L 272.015422 191.300915 
L 273.319255 199.044054 
L 274.623089 190.063845 
L 275.926922 195.149576 
L 277.230756 192.26308 
L 278.534589 191.02601 
L 279.838423 191.438367 
L 281.142256 187.635523 
L 282.44609 188.002063 
L 283.749923 192.583802 
L 285.053757 191.804906 
L 286.35759 188.872593 
L 287.661424 190.980193 
L 288.965257 190.888558 
L 291.572924 196.524097 
L 292.876758 186.306819 
L 294.180591 190.384567 
L 295.484425 185.619558 
L 296.788258 197.440445 
L 298.092092 193.362697 
L 299.395926 194.828854 
L 300.699759 190.980193 
L 302.003593 191.759089 
L 303.307426 182.320706 
L 304.61126 191.850723 
L 305.915093 192.44635 
L 307.218927 190.980193 
L 308.52276 186.948263 
L 309.826594 181.266906 
L 311.130427 188.689324 
L 312.434261 187.268984 
L 313.738094 177.968054 
L 315.041928 186.764993 
L 316.345761 177.784784 
L 317.649595 181.72508 
L 318.953428 176.547715 
L 320.257262 186.627541 
L 321.561095 188.506054 
L 322.864929 172.515785 
L 324.168762 173.203045 
L 325.472596 181.587628 
L 326.776429 166.238802 
L 328.080263 163.214854 
L 330.68793 196.47828 
L 331.991763 192.26308 
L 333.295597 202.80108 
L 334.59943 206.649741 
L 337.207097 191.255097 
L 338.510931 190.201297 
L 339.814765 210.452584 
L 341.118598 210.635854 
L 342.422432 209.673688 
L 343.726265 201.609828 
L 345.030099 190.384567 
L 346.333932 188.23115 
L 347.637766 202.892715 
L 348.941599 191.346732 
L 350.245433 175.356463 
L 351.549266 202.571993 
L 352.8531 197.302993 
L 354.156933 198.448428 
L 355.460767 194.737219 
L 356.7646 203.167619 
L 358.068434 173.248863 
L 359.372267 163.443941 
L 360.676101 179.159306 
L 361.979934 179.754932 
L 363.283768 179.709115 
L 364.587601 180.488011 
L 365.891435 174.852471 
L 367.195268 173.844489 
L 368.499102 169.446019 
L 369.802935 179.342576 
L 371.106769 175.814637 
L 372.410602 174.577567 
L 373.714436 173.661219 
L 375.018269 177.280793 
L 376.322103 175.997906 
L 377.625936 187.17735 
L 378.92977 181.129454 
L 380.233604 188.368602 
L 381.537437 191.759089 
L 382.841271 171.141263 
L 384.145104 172.42415 
L 385.448938 184.749028 
L 386.752771 190.705289 
L 388.056605 175.035741 
L 389.360438 192.583802 
L 390.664272 172.744872 
L 391.968105 173.569585 
L 393.271939 180.029837 
L 394.575772 164.543559 
L 395.879606 160.786533 
L 397.183439 149.561272 
L 398.487273 154.280463 
L 398.487273 154.280463 
" style="fill:none;stroke:#3f7f4c;stroke-linecap:square;stroke-width:1.5;"/>
   </g>
   <g id="patch_3">
    <path d="M 57.6 307.584 
L 57.6 41.472 
" style="fill:none;stroke:#000000;stroke-linecap:square;stroke-linejoin:miter;stroke-width:0.8;"/>
   </g>
   <g id="patch_4">
    <path d="M 414.72 307.584 
L 414.72 41.472 
" style="fill:none;stroke:#000000;stroke-linecap:square;stroke-linejoin:miter;stroke-width:0.8;"/>
   </g>
   <g id="patch_5">
    <path d="M 57.6 307.584 
L 414.72 307.584 
" style="fill:none;stroke:#000000;stroke-linecap:square;stroke-linejoin:miter;stroke-width:0.8;"/>
   </g>
   <g id="patch_6">
    <path d="M 57.6 41.472 
L 414.72 41.472 
" style="fill:none;stroke:#000000;stroke-linecap:square;stroke-linejoin:miter;stroke-width:0.8;"/>
   </g>
   <g id="text_16">
    <!-- Reward Comparison CartPole -->
    <defs>
     <path id="DejaVuSans-32"/>
     <path d="M 64.40625 67.28125 
L 64.40625 56.890625 
Q 59.421875 61.53125 53.78125 63.8125 
Q 48.140625 66.109375 41.796875 66.109375 
Q 29.296875 66.109375 22.65625 58.46875 
Q 16.015625 50.828125 16.015625 36.375 
Q 16.015625 21.96875 22.65625 14.328125 
Q 29.296875 6.6875 41.796875 6.6875 
Q 48.140625 6.6875 53.78125 8.984375 
Q 59.421875 11.28125 64.40625 15.921875 
L 64.40625 5.609375 
Q 59.234375 2.09375 53.4375 0.328125 
Q 47.65625 -1.421875 41.21875 -1.421875 
Q 24.65625 -1.421875 15.125 8.703125 
Q 5.609375 18.84375 5.609375 36.375 
Q 5.609375 53.953125 15.125 64.078125 
Q 24.65625 74.21875 41.21875 74.21875 
Q 47.75 74.21875 53.53125 72.484375 
Q 59.328125 70.75 64.40625 67.28125 
z
" id="DejaVuSans-67"/>
     <path d="M 52 44.1875 
Q 55.375 50.25 60.0625 53.125 
Q 64.75 56 71.09375 56 
Q 79.640625 56 84.28125 50.015625 
Q 88.921875 44.046875 88.921875 33.015625 
L 88.921875 0 
L 79.890625 0 
L 79.890625 32.71875 
Q 79.890625 40.578125 77.09375 44.375 
Q 74.3125 48.1875 68.609375 48.1875 
Q 61.625 48.1875 57.5625 43.546875 
Q 53.515625 38.921875 53.515625 30.90625 
L 53.515625 0 
L 44.484375 0 
L 44.484375 32.71875 
Q 44.484375 40.625 41.703125 44.40625 
Q 38.921875 48.1875 33.109375 48.1875 
Q 26.21875 48.1875 22.15625 43.53125 
Q 18.109375 38.875 18.109375 30.90625 
L 18.109375 0 
L 9.078125 0 
L 9.078125 54.6875 
L 18.109375 54.6875 
L 18.109375 46.1875 
Q 21.1875 51.21875 25.484375 53.609375 
Q 29.78125 56 35.6875 56 
Q 41.65625 56 45.828125 52.96875 
Q 50 49.953125 52 44.1875 
z
" id="DejaVuSans-109"/>
     <path d="M 54.890625 33.015625 
L 54.890625 0 
L 45.90625 0 
L 45.90625 32.71875 
Q 45.90625 40.484375 42.875 44.328125 
Q 39.84375 48.1875 33.796875 48.1875 
Q 26.515625 48.1875 22.3125 43.546875 
Q 18.109375 38.921875 18.109375 30.90625 
L 18.109375 0 
L 9.078125 0 
L 9.078125 54.6875 
L 18.109375 54.6875 
L 18.109375 46.1875 
Q 21.34375 51.125 25.703125 53.5625 
Q 30.078125 56 35.796875 56 
Q 45.21875 56 50.046875 50.171875 
Q 54.890625 44.34375 54.890625 33.015625 
z
" id="DejaVuSans-110"/>
     <path d="M 18.3125 70.21875 
L 18.3125 54.6875 
L 36.8125 54.6875 
L 36.8125 47.703125 
L 18.3125 47.703125 
L 18.3125 18.015625 
Q 18.3125 11.328125 20.140625 9.421875 
Q 21.96875 7.515625 27.59375 7.515625 
L 36.8125 7.515625 
L 36.8125 0 
L 27.59375 0 
Q 17.1875 0 13.234375 3.875 
Q 9.28125 7.765625 9.28125 18.015625 
L 9.28125 47.703125 
L 2.6875 47.703125 
L 2.6875 54.6875 
L 9.28125 54.6875 
L 9.28125 70.21875 
z
" id="DejaVuSans-116"/>
     <path d="M 19.671875 64.796875 
L 19.671875 37.40625 
L 32.078125 37.40625 
Q 38.96875 37.40625 42.71875 40.96875 
Q 46.484375 44.53125 46.484375 51.125 
Q 46.484375 57.671875 42.71875 61.234375 
Q 38.96875 64.796875 32.078125 64.796875 
z
M 9.8125 72.90625 
L 32.078125 72.90625 
Q 44.34375 72.90625 50.609375 67.359375 
Q 56.890625 61.8125 56.890625 51.125 
Q 56.890625 40.328125 50.609375 34.8125 
Q 44.34375 29.296875 32.078125 29.296875 
L 19.671875 29.296875 
L 19.671875 0 
L 9.8125 0 
z
" id="DejaVuSans-80"/>
     <path d="M 9.421875 75.984375 
L 18.40625 75.984375 
L 18.40625 0 
L 9.421875 0 
z
" id="DejaVuSans-108"/>
    </defs>
    <g transform="translate(148.37625 35.472)scale(0.12 -0.12)">
     <use xlink:href="#DejaVuSans-82"/>
     <use x="69.419922" xlink:href="#DejaVuSans-101"/>
     <use x="130.943359" xlink:href="#DejaVuSans-119"/>
     <use x="212.730469" xlink:href="#DejaVuSans-97"/>
     <use x="274.009766" xlink:href="#DejaVuSans-114"/>
     <use x="315.107422" xlink:href="#DejaVuSans-100"/>
     <use x="378.583984" xlink:href="#DejaVuSans-32"/>
     <use x="410.371094" xlink:href="#DejaVuSans-67"/>
     <use x="480.195312" xlink:href="#DejaVuSans-111"/>
     <use x="541.376953" xlink:href="#DejaVuSans-109"/>
     <use x="638.789062" xlink:href="#DejaVuSans-112"/>
     <use x="702.265625" xlink:href="#DejaVuSans-97"/>
     <use x="763.544922" xlink:href="#DejaVuSans-114"/>
     <use x="804.658203" xlink:href="#DejaVuSans-105"/>
     <use x="832.441406" xlink:href="#DejaVuSans-115"/>
     <use x="884.541016" xlink:href="#DejaVuSans-111"/>
     <use x="945.722656" xlink:href="#DejaVuSans-110"/>
     <use x="1009.101562" xlink:href="#DejaVuSans-32"/>
     <use x="1040.888672" xlink:href="#DejaVuSans-67"/>
     <use x="1110.712891" xlink:href="#DejaVuSans-97"/>
     <use x="1171.992188" xlink:href="#DejaVuSans-114"/>
     <use x="1213.105469" xlink:href="#DejaVuSans-116"/>
     <use x="1252.314453" xlink:href="#DejaVuSans-80"/>
     <use x="1312.570312" xlink:href="#DejaVuSans-111"/>
     <use x="1373.751953" xlink:href="#DejaVuSans-108"/>
     <use x="1401.535156" xlink:href="#DejaVuSans-101"/>
    </g>
   </g>
   <g id="legend_1">
    <g id="patch_7">
     <path d="M 318.634063 93.506375 
L 407.72 93.506375 
Q 409.72 93.506375 409.72 91.506375 
L 409.72 48.472 
Q 409.72 46.472 407.72 46.472 
L 318.634063 46.472 
Q 316.634063 46.472 316.634063 48.472 
L 316.634063 91.506375 
Q 316.634063 93.506375 318.634063 93.506375 
z
" style="fill:#ffffff;opacity:0.8;stroke:#cccccc;stroke-linejoin:miter;"/>
    </g>
    <g id="line2d_17">
     <path d="M 320.634063 54.570438 
L 340.634063 54.570438 
" style="fill:none;stroke:#cc4f1b;stroke-linecap:square;stroke-width:1.5;"/>
    </g>
    <g id="line2d_18"/>
    <g id="text_17">
     <!-- DQN -->
     <defs>
      <path d="M 19.671875 64.796875 
L 19.671875 8.109375 
L 31.59375 8.109375 
Q 46.6875 8.109375 53.6875 14.9375 
Q 60.6875 21.78125 60.6875 36.53125 
Q 60.6875 51.171875 53.6875 57.984375 
Q 46.6875 64.796875 31.59375 64.796875 
z
M 9.8125 72.90625 
L 30.078125 72.90625 
Q 51.265625 72.90625 61.171875 64.09375 
Q 71.09375 55.28125 71.09375 36.53125 
Q 71.09375 17.671875 61.125 8.828125 
Q 51.171875 0 30.078125 0 
L 9.8125 0 
z
" id="DejaVuSans-68"/>
      <path d="M 39.40625 66.21875 
Q 28.65625 66.21875 22.328125 58.203125 
Q 16.015625 50.203125 16.015625 36.375 
Q 16.015625 22.609375 22.328125 14.59375 
Q 28.65625 6.59375 39.40625 6.59375 
Q 50.140625 6.59375 56.421875 14.59375 
Q 62.703125 22.609375 62.703125 36.375 
Q 62.703125 50.203125 56.421875 58.203125 
Q 50.140625 66.21875 39.40625 66.21875 
z
M 53.21875 1.3125 
L 66.21875 -12.890625 
L 54.296875 -12.890625 
L 43.5 -1.21875 
Q 41.890625 -1.3125 41.03125 -1.359375 
Q 40.1875 -1.421875 39.40625 -1.421875 
Q 24.03125 -1.421875 14.8125 8.859375 
Q 5.609375 19.140625 5.609375 36.375 
Q 5.609375 53.65625 14.8125 63.9375 
Q 24.03125 74.21875 39.40625 74.21875 
Q 54.734375 74.21875 63.90625 63.9375 
Q 73.09375 53.65625 73.09375 36.375 
Q 73.09375 23.6875 67.984375 14.640625 
Q 62.890625 5.609375 53.21875 1.3125 
z
" id="DejaVuSans-81"/>
      <path d="M 9.8125 72.90625 
L 23.09375 72.90625 
L 55.421875 11.921875 
L 55.421875 72.90625 
L 64.984375 72.90625 
L 64.984375 0 
L 51.703125 0 
L 19.390625 60.984375 
L 19.390625 0 
L 9.8125 0 
z
" id="DejaVuSans-78"/>
     </defs>
     <g transform="translate(348.634063 58.070438)scale(0.1 -0.1)">
      <use xlink:href="#DejaVuSans-68"/>
      <use x="77.001953" xlink:href="#DejaVuSans-81"/>
      <use x="155.712891" xlink:href="#DejaVuSans-78"/>
     </g>
    </g>
    <g id="line2d_19">
     <path d="M 320.634063 69.248563 
L 340.634063 69.248563 
" style="fill:none;stroke:#1b2acc;stroke-linecap:square;stroke-width:1.5;"/>
    </g>
    <g id="line2d_20"/>
    <g id="text_18">
     <!-- DQN + CM -->
     <defs>
      <path d="M 46 62.703125 
L 46 35.5 
L 73.1875 35.5 
L 73.1875 27.203125 
L 46 27.203125 
L 46 0 
L 37.796875 0 
L 37.796875 27.203125 
L 10.59375 27.203125 
L 10.59375 35.5 
L 37.796875 35.5 
L 37.796875 62.703125 
z
" id="DejaVuSans-43"/>
      <path d="M 9.8125 72.90625 
L 24.515625 72.90625 
L 43.109375 23.296875 
L 61.8125 72.90625 
L 76.515625 72.90625 
L 76.515625 0 
L 66.890625 0 
L 66.890625 64.015625 
L 48.09375 14.015625 
L 38.1875 14.015625 
L 19.390625 64.015625 
L 19.390625 0 
L 9.8125 0 
z
" id="DejaVuSans-77"/>
     </defs>
     <g transform="translate(348.634063 72.748563)scale(0.1 -0.1)">
      <use xlink:href="#DejaVuSans-68"/>
      <use x="77.001953" xlink:href="#DejaVuSans-81"/>
      <use x="155.712891" xlink:href="#DejaVuSans-78"/>
      <use x="230.517578" xlink:href="#DejaVuSans-32"/>
      <use x="262.304688" xlink:href="#DejaVuSans-43"/>
      <use x="346.09375" xlink:href="#DejaVuSans-32"/>
      <use x="377.880859" xlink:href="#DejaVuSans-67"/>
      <use x="447.705078" xlink:href="#DejaVuSans-77"/>
     </g>
    </g>
    <g id="line2d_21">
     <path d="M 320.634063 83.926688 
L 340.634063 83.926688 
" style="fill:none;stroke:#3f7f4c;stroke-linecap:square;stroke-width:1.5;"/>
    </g>
    <g id="line2d_22"/>
    <g id="text_19">
     <!-- DQN + PER -->
     <g transform="translate(348.634063 87.426688)scale(0.1 -0.1)">
      <use xlink:href="#DejaVuSans-68"/>
      <use x="77.001953" xlink:href="#DejaVuSans-81"/>
      <use x="155.712891" xlink:href="#DejaVuSans-78"/>
      <use x="230.517578" xlink:href="#DejaVuSans-32"/>
      <use x="262.304688" xlink:href="#DejaVuSans-43"/>
      <use x="346.09375" xlink:href="#DejaVuSans-32"/>
      <use x="377.880859" xlink:href="#DejaVuSans-80"/>
      <use x="438.183594" xlink:href="#DejaVuSans-69"/>
      <use x="501.367188" xlink:href="#DejaVuSans-82"/>
     </g>
    </g>
   </g>
  </g>
 </g>
 <defs>
  <clipPath id="p4eed81a512">
   <rect height="266.112" width="357.12" x="57.6" y="41.472"/>
  </clipPath>
 </defs>
</svg>
