<?xml version="1.0" encoding="utf-8" standalone="no"?>
<!DOCTYPE svg PUBLIC "-//W3C//DTD SVG 1.1//EN"
  "http://www.w3.org/Graphics/SVG/1.1/DTD/svg11.dtd">
<!-- Created with matplotlib (https://matplotlib.org/) -->
<svg height="345.6pt" version="1.1" viewBox="0 0 460.8 345.6" width="460.8pt" xmlns="http://www.w3.org/2000/svg" xmlns:xlink="http://www.w3.org/1999/xlink">
 <defs>
  <style type="text/css">
*{stroke-linecap:butt;stroke-linejoin:round;}
  </style>
 </defs>
 <g id="figure_1">
  <g id="patch_1">
   <path d="M 0 345.6 
L 460.8 345.6 
L 460.8 0 
L 0 0 
z
" style="fill:#ffffff;"/>
  </g>
  <g id="axes_1">
   <g id="patch_2">
    <path d="M 57.6 307.584 
L 414.72 307.584 
L 414.72 41.472 
L 57.6 41.472 
z
" style="fill:#ffffff;"/>
   </g>
   <g id="PolyCollection_1">
    <defs>
     <path d="M 73.832727 -72.295855 
L 73.832727 -67.534549 
L 75.136561 -66.028924 
L 76.440394 -67.911766 
L 77.744228 -67.039455 
L 79.048061 -65.214094 
L 80.351895 -64.62359 
L 81.655728 -63.96277 
L 82.959562 -64.257264 
L 84.263395 -64.380814 
L 85.567229 -64.331802 
L 86.871062 -63.947487 
L 88.174896 -64.102262 
L 89.478729 -63.605263 
L 90.782563 -63.39813 
L 92.086396 -63.539126 
L 93.39023 -62.78061 
L 94.694064 -62.723522 
L 95.997897 -62.993475 
L 97.301731 -63.021245 
L 98.605564 -62.764848 
L 99.909398 -63.063504 
L 101.213231 -63.077329 
L 102.517065 -63.010086 
L 103.820898 -62.792578 
L 105.124732 -62.677749 
L 106.428565 -62.731714 
L 107.732399 -62.965609 
L 109.036232 -62.339355 
L 110.340066 -62.544221 
L 111.643899 -62.496728 
L 112.947733 -63.002703 
L 114.251566 -62.770295 
L 115.5554 -62.515016 
L 116.859233 -62.412054 
L 118.163067 -62.671391 
L 119.4669 -62.854868 
L 120.770734 -62.382115 
L 122.074567 -62.73559 
L 123.378401 -62.496259 
L 124.682234 -62.245675 
L 125.986068 -62.236604 
L 127.289901 -62.537431 
L 128.593735 -62.444696 
L 129.897568 -62.422302 
L 131.201402 -62.444128 
L 132.505235 -62.48098 
L 133.809069 -61.373931 
L 135.112903 -62.470667 
L 136.416736 -62.719322 
L 137.72057 -62.01039 
L 139.024403 -61.697829 
L 140.328237 -60.714749 
L 141.63207 -62.120609 
L 142.935904 -62.329909 
L 144.239737 -60.940481 
L 145.543571 -62.440639 
L 146.847404 -60.019045 
L 148.151238 -58.055126 
L 149.455071 -54.352997 
L 150.758905 -56.816322 
L 152.062738 -52.175499 
L 153.366572 -57.777363 
L 154.670405 -52.807058 
L 155.974239 -57.115166 
L 157.278072 -53.820077 
L 158.581906 -54.442788 
L 159.885739 -52.10029 
L 161.189573 -56.119665 
L 162.493406 -50.112 
L 163.79724 -53.868657 
L 165.101073 -54.698757 
L 166.404907 -53.120828 
L 167.70874 -52.105113 
L 169.012574 -51.53639 
L 170.316407 -56.235909 
L 171.620241 -56.945654 
L 172.924074 -56.578288 
L 174.227908 -55.765149 
L 175.531742 -57.314681 
L 176.835575 -61.707371 
L 178.139409 -59.043241 
L 179.443242 -59.581127 
L 180.747076 -61.187134 
L 182.050909 -61.901882 
L 183.354743 -61.631327 
L 184.658576 -61.805058 
L 185.96241 -58.204692 
L 187.266243 -55.930395 
L 188.570077 -54.473028 
L 189.87391 -58.576486 
L 191.177744 -58.062018 
L 192.481577 -57.950754 
L 193.785411 -57.907807 
L 195.089244 -56.835064 
L 196.393078 -56.823559 
L 197.696911 -56.422823 
L 199.000745 -56.983912 
L 200.304578 -56.798624 
L 201.608412 -58.422435 
L 202.912245 -58.118877 
L 204.216079 -58.150885 
L 205.519912 -58.84735 
L 206.823746 -61.419957 
L 208.127579 -62.093754 
L 209.431413 -65.931202 
L 210.735246 -66.581995 
L 212.03908 -68.377574 
L 213.342913 -67.882911 
L 214.646747 -67.916741 
L 215.950581 -72.018896 
L 217.254414 -72.321414 
L 218.558248 -72.958496 
L 219.862081 -72.700352 
L 221.165915 -74.762144 
L 222.469748 -75.283327 
L 223.773582 -78.319436 
L 225.077415 -76.069404 
L 226.381249 -77.536477 
L 227.685082 -79.805872 
L 228.988916 -83.943933 
L 230.292749 -84.148069 
L 231.596583 -115.002033 
L 232.900416 -102.029422 
L 234.20425 -101.833064 
L 235.508083 -105.394771 
L 236.811917 -118.742281 
L 238.11575 -106.494936 
L 239.419584 -114.747155 
L 240.723417 -132.114898 
L 242.027251 -120.45897 
L 243.331084 -140.784106 
L 244.634918 -140.324185 
L 245.938751 -140.744396 
L 247.242585 -139.170126 
L 248.546418 -140.204933 
L 249.850252 -142.438127 
L 251.154085 -138.886724 
L 252.457919 -141.502631 
L 253.761752 -144.459545 
L 255.065586 -139.995657 
L 256.369419 -139.900384 
L 257.673253 -136.45288 
L 258.977087 -137.532242 
L 260.28092 -145.89394 
L 261.584754 -142.702698 
L 262.888587 -140.419929 
L 264.192421 -142.00145 
L 265.496254 -144.583261 
L 266.800088 -145.42339 
L 268.103921 -144.249908 
L 269.407755 -141.356257 
L 270.711588 -140.817898 
L 272.015422 -142.480142 
L 273.319255 -139.878238 
L 274.623089 -138.906823 
L 275.926922 -141.395576 
L 277.230756 -138.990585 
L 278.534589 -126.304077 
L 279.838423 -143.278458 
L 281.142256 -113.449441 
L 282.44609 -141.586923 
L 283.749923 -139.708658 
L 285.053757 -132.288871 
L 286.35759 -136.920787 
L 287.661424 -141.588304 
L 288.965257 -141.909488 
L 290.269091 -139.695439 
L 291.572924 -137.714973 
L 292.876758 -140.982968 
L 294.180591 -141.313323 
L 295.484425 -112.728578 
L 296.788258 -127.304241 
L 298.092092 -129.376268 
L 299.395926 -116.990326 
L 300.699759 -126.719511 
L 302.003593 -128.922469 
L 303.307426 -134.842032 
L 304.61126 -124.240217 
L 305.915093 -123.500375 
L 307.218927 -118.028474 
L 308.52276 -126.386584 
L 309.826594 -117.888984 
L 311.130427 -123.382314 
L 312.434261 -104.428944 
L 313.738094 -109.985235 
L 315.041928 -126.411873 
L 316.345761 -112.71158 
L 317.649595 -116.8197 
L 318.953428 -131.093942 
L 320.257262 -130.270935 
L 321.561095 -134.073982 
L 322.864929 -150.510328 
L 324.168762 -139.605721 
L 325.472596 -136.751472 
L 326.776429 -127.929752 
L 328.080263 -123.203976 
L 329.384096 -128.770877 
L 330.68793 -120.02853 
L 331.991763 -129.195304 
L 333.295597 -142.941417 
L 334.59943 -132.938439 
L 335.903264 -142.766191 
L 337.207097 -136.386052 
L 338.510931 -129.032211 
L 339.814765 -122.231545 
L 341.118598 -136.112755 
L 342.422432 -138.366317 
L 343.726265 -134.60332 
L 345.030099 -115.688722 
L 346.333932 -110.864196 
L 347.637766 -121.256205 
L 348.941599 -126.047169 
L 350.245433 -128.276665 
L 351.549266 -125.395736 
L 352.8531 -122.819203 
L 354.156933 -121.502077 
L 355.460767 -126.848146 
L 356.7646 -126.77047 
L 358.068434 -123.690615 
L 359.372267 -99.471708 
L 360.676101 -124.24368 
L 361.979934 -122.884145 
L 363.283768 -131.621503 
L 364.587601 -102.275089 
L 365.891435 -121.536577 
L 367.195268 -121.806307 
L 368.499102 -93.93181 
L 369.802935 -129.160296 
L 371.106769 -109.447321 
L 372.410602 -92.59322 
L 373.714436 -130.24553 
L 375.018269 -125.879396 
L 376.322103 -130.408037 
L 377.625936 -120.664686 
L 378.92977 -123.316296 
L 380.233604 -109.61966 
L 381.537437 -131.68981 
L 382.841271 -121.255076 
L 384.145104 -122.743189 
L 385.448938 -127.241259 
L 386.752771 -122.715513 
L 388.056605 -126.927013 
L 389.360438 -91.581769 
L 390.664272 -113.129306 
L 391.968105 -123.299911 
L 393.271939 -115.523118 
L 394.575772 -133.500201 
L 395.879606 -111.455715 
L 397.183439 -117.239994 
L 398.487273 -120.808009 
L 398.487273 -190.973272 
L 398.487273 -190.973272 
L 397.183439 -199.643522 
L 395.879606 -201.351559 
L 394.575772 -147.584478 
L 393.271939 -200.02938 
L 391.968105 -172.925097 
L 390.664272 -200.315747 
L 389.360438 -282.785083 
L 388.056605 -173.318779 
L 386.752771 -198.937483 
L 385.448938 -167.846838 
L 384.145104 -155.263512 
L 382.841271 -190.387557 
L 381.537437 -158.656537 
L 380.233604 -216.802817 
L 378.92977 -159.376697 
L 377.625936 -155.622784 
L 376.322103 -153.116843 
L 375.018269 -154.151562 
L 373.714436 -166.617258 
L 372.410602 -279.693917 
L 371.106769 -224.489862 
L 369.802935 -148.957323 
L 368.499102 -272.532123 
L 367.195268 -162.134516 
L 365.891435 -172.026396 
L 364.587601 -260.944488 
L 363.283768 -170.814923 
L 361.979934 -169.098244 
L 360.676101 -196.549701 
L 359.372267 -292.032 
L 358.068434 -188.312502 
L 356.7646 -182.071479 
L 355.460767 -152.711409 
L 354.156933 -193.523559 
L 352.8531 -199.69341 
L 351.549266 -200.388962 
L 350.245433 -225.625787 
L 348.941599 -183.903962 
L 347.637766 -186.615211 
L 346.333932 -200.390223 
L 345.030099 -216.224205 
L 343.726265 -218.550434 
L 342.422432 -226.378385 
L 341.118598 -220.340814 
L 339.814765 -189.854761 
L 338.510931 -200.080032 
L 337.207097 -195.998277 
L 335.903264 -200.294011 
L 334.59943 -183.972807 
L 333.295597 -237.803229 
L 331.991763 -231.112671 
L 330.68793 -233.901651 
L 329.384096 -203.696641 
L 328.080263 -210.760936 
L 326.776429 -201.87573 
L 325.472596 -220.977656 
L 324.168762 -231.100832 
L 322.864929 -213.180651 
L 321.561095 -226.954961 
L 320.257262 -213.510235 
L 318.953428 -194.884863 
L 317.649595 -227.793355 
L 316.345761 -227.825233 
L 315.041928 -195.767985 
L 313.738094 -224.506538 
L 312.434261 -248.308866 
L 311.130427 -188.537614 
L 309.826594 -211.389637 
L 308.52276 -189.304562 
L 307.218927 -219.735386 
L 305.915093 -264.453951 
L 304.61126 -195.527171 
L 303.307426 -173.944459 
L 302.003593 -186.519111 
L 300.699759 -227.84845 
L 299.395926 -206.714656 
L 298.092092 -158.030746 
L 296.788258 -172.747444 
L 295.484425 -210.172248 
L 294.180591 -156.242704 
L 292.876758 -176.427409 
L 291.572924 -187.15465 
L 290.269091 -152.176032 
L 288.965257 -177.996548 
L 287.661424 -160.764933 
L 286.35759 -174.111796 
L 285.053757 -201.093721 
L 283.749923 -168.5787 
L 282.44609 -154.166684 
L 281.142256 -239.593395 
L 279.838423 -158.936132 
L 278.534589 -222.329762 
L 277.230756 -158.981385 
L 275.926922 -160.042586 
L 274.623089 -152.548705 
L 273.319255 -144.977659 
L 272.015422 -155.35318 
L 270.711588 -153.798798 
L 269.407755 -152.789036 
L 268.103921 -153.278389 
L 266.800088 -162.642132 
L 265.496254 -146.65043 
L 264.192421 -147.651657 
L 262.888587 -155.111841 
L 261.584754 -151.387136 
L 260.28092 -147.169901 
L 258.977087 -148.904239 
L 257.673253 -153.394335 
L 256.369419 -148.005762 
L 255.065586 -145.165265 
L 253.761752 -154.011556 
L 252.457919 -153.724114 
L 251.154085 -152.957018 
L 249.850252 -148.213244 
L 248.546418 -156.075535 
L 247.242585 -152.701345 
L 245.938751 -149.990164 
L 244.634918 -152.295984 
L 243.331084 -150.920988 
L 242.027251 -155.468016 
L 240.723417 -150.966309 
L 239.419584 -158.21277 
L 238.11575 -151.990169 
L 236.811917 -154.43948 
L 235.508083 -157.887544 
L 234.20425 -155.598318 
L 232.900416 -157.592594 
L 231.596583 -151.607827 
L 230.292749 -161.359611 
L 228.988916 -159.511761 
L 227.685082 -161.597837 
L 226.381249 -158.459972 
L 225.077415 -158.124624 
L 223.773582 -160.477696 
L 222.469748 -153.337064 
L 221.165915 -158.821834 
L 219.862081 -161.160922 
L 218.558248 -159.044899 
L 217.254414 -160.014735 
L 215.950581 -164.476684 
L 214.646747 -168.634298 
L 213.342913 -161.458447 
L 212.03908 -163.265336 
L 210.735246 -165.088645 
L 209.431413 -161.690925 
L 208.127579 -165.916587 
L 206.823746 -157.77239 
L 205.519912 -165.863176 
L 204.216079 -166.448722 
L 202.912245 -166.674837 
L 201.608412 -164.541129 
L 200.304578 -172.376357 
L 199.000745 -173.549817 
L 197.696911 -175.66376 
L 196.393078 -172.406881 
L 195.089244 -177.164858 
L 193.785411 -164.806191 
L 192.481577 -171.862007 
L 191.177744 -174.995099 
L 189.87391 -174.674737 
L 188.570077 -189.232232 
L 187.266243 -186.416118 
L 185.96241 -168.308253 
L 184.658576 -160.215702 
L 183.354743 -155.980436 
L 182.050909 -148.001069 
L 180.747076 -151.57196 
L 179.443242 -140.117354 
L 178.139409 -136.440349 
L 176.835575 -143.259722 
L 175.531742 -133.565806 
L 174.227908 -129.070298 
L 172.924074 -124.042269 
L 171.620241 -121.622918 
L 170.316407 -124.440108 
L 169.012574 -122.401348 
L 167.70874 -129.236412 
L 166.404907 -121.593337 
L 165.101073 -112.66708 
L 163.79724 -120.290917 
L 162.493406 -121.052784 
L 161.189573 -109.804236 
L 159.885739 -119.203141 
L 158.581906 -101.831233 
L 157.278072 -100.90109 
L 155.974239 -98.909289 
L 154.670405 -106.517213 
L 153.366572 -94.75317 
L 152.062738 -100.244116 
L 150.758905 -85.066068 
L 149.455071 -89.276354 
L 148.151238 -80.610637 
L 146.847404 -74.182263 
L 145.543571 -69.015444 
L 144.239737 -75.479189 
L 142.935904 -68.821149 
L 141.63207 -68.475858 
L 140.328237 -72.100081 
L 139.024403 -71.22792 
L 137.72057 -71.525408 
L 136.416736 -67.683039 
L 135.112903 -67.54348 
L 133.809069 -73.908828 
L 132.505235 -68.642348 
L 131.201402 -67.098617 
L 129.897568 -68.701027 
L 128.593735 -66.37708 
L 127.289901 -67.476716 
L 125.986068 -64.477727 
L 124.682234 -65.49465 
L 123.378401 -66.270058 
L 122.074567 -67.528123 
L 120.770734 -65.635505 
L 119.4669 -63.748545 
L 118.163067 -64.209318 
L 116.859233 -63.886334 
L 115.5554 -64.504341 
L 114.251566 -63.971766 
L 112.947733 -63.794817 
L 111.643899 -64.134415 
L 110.340066 -65.972531 
L 109.036232 -64.735461 
L 107.732399 -63.582345 
L 106.428565 -63.566675 
L 105.124732 -64.147501 
L 103.820898 -63.699917 
L 102.517065 -63.149655 
L 101.213231 -63.609273 
L 99.909398 -63.706287 
L 98.605564 -63.672188 
L 97.301731 -63.914923 
L 95.997897 -64.275448 
L 94.694064 -64.129458 
L 93.39023 -65.264739 
L 92.086396 -64.395306 
L 90.782563 -64.314465 
L 89.478729 -64.8283 
L 88.174896 -66.383287 
L 86.871062 -66.149848 
L 85.567229 -67.623413 
L 84.263395 -68.018073 
L 82.959562 -69.389452 
L 81.655728 -70.266267 
L 80.351895 -69.549988 
L 79.048061 -67.101605 
L 77.744228 -68.797895 
L 76.440394 -70.0053 
L 75.136561 -77.434049 
L 73.832727 -72.295855 
z
" id="m6d8ba74c67" style="stroke:#cc4f1b;stroke-opacity:0.2;"/>
    </defs>
    <g clip-path="url(#p0274ba2ac3)">
     <use style="fill:#ff9848;fill-opacity:0.2;stroke:#cc4f1b;stroke-opacity:0.2;" x="0" xlink:href="#m6d8ba74c67" y="345.6"/>
    </g>
   </g>
   <g id="matplotlib.axis_1">
    <g id="xtick_1">
     <g id="line2d_1">
      <defs>
       <path d="M 0 0 
L 0 3.5 
" id="m2597cf3ecc" style="stroke:#000000;stroke-width:0.8;"/>
      </defs>
      <g>
       <use style="stroke:#000000;stroke-width:0.8;" x="72.528894" xlink:href="#m2597cf3ecc" y="307.584"/>
      </g>
     </g>
     <g id="text_1">
      <!-- 0 -->
      <defs>
       <path d="M 31.78125 66.40625 
Q 24.171875 66.40625 20.328125 58.90625 
Q 16.5 51.421875 16.5 36.375 
Q 16.5 21.390625 20.328125 13.890625 
Q 24.171875 6.390625 31.78125 6.390625 
Q 39.453125 6.390625 43.28125 13.890625 
Q 47.125 21.390625 47.125 36.375 
Q 47.125 51.421875 43.28125 58.90625 
Q 39.453125 66.40625 31.78125 66.40625 
z
M 31.78125 74.21875 
Q 44.046875 74.21875 50.515625 64.515625 
Q 56.984375 54.828125 56.984375 36.375 
Q 56.984375 17.96875 50.515625 8.265625 
Q 44.046875 -1.421875 31.78125 -1.421875 
Q 19.53125 -1.421875 13.0625 8.265625 
Q 6.59375 17.96875 6.59375 36.375 
Q 6.59375 54.828125 13.0625 64.515625 
Q 19.53125 74.21875 31.78125 74.21875 
z
" id="DejaVuSans-48"/>
      </defs>
      <g transform="translate(69.347644 322.182437)scale(0.1 -0.1)">
       <use xlink:href="#DejaVuSans-48"/>
      </g>
     </g>
    </g>
    <g id="xtick_2">
     <g id="line2d_2">
      <g>
       <use style="stroke:#000000;stroke-width:0.8;" x="137.72057" xlink:href="#m2597cf3ecc" y="307.584"/>
      </g>
     </g>
     <g id="text_2">
      <!-- 50 -->
      <defs>
       <path d="M 10.796875 72.90625 
L 49.515625 72.90625 
L 49.515625 64.59375 
L 19.828125 64.59375 
L 19.828125 46.734375 
Q 21.96875 47.46875 24.109375 47.828125 
Q 26.265625 48.1875 28.421875 48.1875 
Q 40.625 48.1875 47.75 41.5 
Q 54.890625 34.8125 54.890625 23.390625 
Q 54.890625 11.625 47.5625 5.09375 
Q 40.234375 -1.421875 26.90625 -1.421875 
Q 22.3125 -1.421875 17.546875 -0.640625 
Q 12.796875 0.140625 7.71875 1.703125 
L 7.71875 11.625 
Q 12.109375 9.234375 16.796875 8.0625 
Q 21.484375 6.890625 26.703125 6.890625 
Q 35.15625 6.890625 40.078125 11.328125 
Q 45.015625 15.765625 45.015625 23.390625 
Q 45.015625 31 40.078125 35.4375 
Q 35.15625 39.890625 26.703125 39.890625 
Q 22.75 39.890625 18.8125 39.015625 
Q 14.890625 38.140625 10.796875 36.28125 
z
" id="DejaVuSans-53"/>
      </defs>
      <g transform="translate(131.35807 322.182437)scale(0.1 -0.1)">
       <use xlink:href="#DejaVuSans-53"/>
       <use x="63.623047" xlink:href="#DejaVuSans-48"/>
      </g>
     </g>
    </g>
    <g id="xtick_3">
     <g id="line2d_3">
      <g>
       <use style="stroke:#000000;stroke-width:0.8;" x="202.912245" xlink:href="#m2597cf3ecc" y="307.584"/>
      </g>
     </g>
     <g id="text_3">
      <!-- 100 -->
      <defs>
       <path d="M 12.40625 8.296875 
L 28.515625 8.296875 
L 28.515625 63.921875 
L 10.984375 60.40625 
L 10.984375 69.390625 
L 28.421875 72.90625 
L 38.28125 72.90625 
L 38.28125 8.296875 
L 54.390625 8.296875 
L 54.390625 0 
L 12.40625 0 
z
" id="DejaVuSans-49"/>
      </defs>
      <g transform="translate(193.368495 322.182437)scale(0.1 -0.1)">
       <use xlink:href="#DejaVuSans-49"/>
       <use x="63.623047" xlink:href="#DejaVuSans-48"/>
       <use x="127.246094" xlink:href="#DejaVuSans-48"/>
      </g>
     </g>
    </g>
    <g id="xtick_4">
     <g id="line2d_4">
      <g>
       <use style="stroke:#000000;stroke-width:0.8;" x="268.103921" xlink:href="#m2597cf3ecc" y="307.584"/>
      </g>
     </g>
     <g id="text_4">
      <!-- 150 -->
      <g transform="translate(258.560171 322.182437)scale(0.1 -0.1)">
       <use xlink:href="#DejaVuSans-49"/>
       <use x="63.623047" xlink:href="#DejaVuSans-53"/>
       <use x="127.246094" xlink:href="#DejaVuSans-48"/>
      </g>
     </g>
    </g>
    <g id="xtick_5">
     <g id="line2d_5">
      <g>
       <use style="stroke:#000000;stroke-width:0.8;" x="333.295597" xlink:href="#m2597cf3ecc" y="307.584"/>
      </g>
     </g>
     <g id="text_5">
      <!-- 200 -->
      <defs>
       <path d="M 19.1875 8.296875 
L 53.609375 8.296875 
L 53.609375 0 
L 7.328125 0 
L 7.328125 8.296875 
Q 12.9375 14.109375 22.625 23.890625 
Q 32.328125 33.6875 34.8125 36.53125 
Q 39.546875 41.84375 41.421875 45.53125 
Q 43.3125 49.21875 43.3125 52.78125 
Q 43.3125 58.59375 39.234375 62.25 
Q 35.15625 65.921875 28.609375 65.921875 
Q 23.96875 65.921875 18.8125 64.3125 
Q 13.671875 62.703125 7.8125 59.421875 
L 7.8125 69.390625 
Q 13.765625 71.78125 18.9375 73 
Q 24.125 74.21875 28.421875 74.21875 
Q 39.75 74.21875 46.484375 68.546875 
Q 53.21875 62.890625 53.21875 53.421875 
Q 53.21875 48.921875 51.53125 44.890625 
Q 49.859375 40.875 45.40625 35.40625 
Q 44.1875 33.984375 37.640625 27.21875 
Q 31.109375 20.453125 19.1875 8.296875 
z
" id="DejaVuSans-50"/>
      </defs>
      <g transform="translate(323.751847 322.182437)scale(0.1 -0.1)">
       <use xlink:href="#DejaVuSans-50"/>
       <use x="63.623047" xlink:href="#DejaVuSans-48"/>
       <use x="127.246094" xlink:href="#DejaVuSans-48"/>
      </g>
     </g>
    </g>
    <g id="xtick_6">
     <g id="line2d_6">
      <g>
       <use style="stroke:#000000;stroke-width:0.8;" x="398.487273" xlink:href="#m2597cf3ecc" y="307.584"/>
      </g>
     </g>
     <g id="text_6">
      <!-- 250 -->
      <g transform="translate(388.943523 322.182437)scale(0.1 -0.1)">
       <use xlink:href="#DejaVuSans-50"/>
       <use x="63.623047" xlink:href="#DejaVuSans-53"/>
       <use x="127.246094" xlink:href="#DejaVuSans-48"/>
      </g>
     </g>
    </g>
    <g id="text_7">
     <!-- Episodes -->
     <defs>
      <path d="M 9.8125 72.90625 
L 55.90625 72.90625 
L 55.90625 64.59375 
L 19.671875 64.59375 
L 19.671875 43.015625 
L 54.390625 43.015625 
L 54.390625 34.71875 
L 19.671875 34.71875 
L 19.671875 8.296875 
L 56.78125 8.296875 
L 56.78125 0 
L 9.8125 0 
z
" id="DejaVuSans-69"/>
      <path d="M 18.109375 8.203125 
L 18.109375 -20.796875 
L 9.078125 -20.796875 
L 9.078125 54.6875 
L 18.109375 54.6875 
L 18.109375 46.390625 
Q 20.953125 51.265625 25.265625 53.625 
Q 29.59375 56 35.59375 56 
Q 45.5625 56 51.78125 48.09375 
Q 58.015625 40.1875 58.015625 27.296875 
Q 58.015625 14.40625 51.78125 6.484375 
Q 45.5625 -1.421875 35.59375 -1.421875 
Q 29.59375 -1.421875 25.265625 0.953125 
Q 20.953125 3.328125 18.109375 8.203125 
z
M 48.6875 27.296875 
Q 48.6875 37.203125 44.609375 42.84375 
Q 40.53125 48.484375 33.40625 48.484375 
Q 26.265625 48.484375 22.1875 42.84375 
Q 18.109375 37.203125 18.109375 27.296875 
Q 18.109375 17.390625 22.1875 11.75 
Q 26.265625 6.109375 33.40625 6.109375 
Q 40.53125 6.109375 44.609375 11.75 
Q 48.6875 17.390625 48.6875 27.296875 
z
" id="DejaVuSans-112"/>
      <path d="M 9.421875 54.6875 
L 18.40625 54.6875 
L 18.40625 0 
L 9.421875 0 
z
M 9.421875 75.984375 
L 18.40625 75.984375 
L 18.40625 64.59375 
L 9.421875 64.59375 
z
" id="DejaVuSans-105"/>
      <path d="M 44.28125 53.078125 
L 44.28125 44.578125 
Q 40.484375 46.53125 36.375 47.5 
Q 32.28125 48.484375 27.875 48.484375 
Q 21.1875 48.484375 17.84375 46.4375 
Q 14.5 44.390625 14.5 40.28125 
Q 14.5 37.15625 16.890625 35.375 
Q 19.28125 33.59375 26.515625 31.984375 
L 29.59375 31.296875 
Q 39.15625 29.25 43.1875 25.515625 
Q 47.21875 21.78125 47.21875 15.09375 
Q 47.21875 7.46875 41.1875 3.015625 
Q 35.15625 -1.421875 24.609375 -1.421875 
Q 20.21875 -1.421875 15.453125 -0.5625 
Q 10.6875 0.296875 5.421875 2 
L 5.421875 11.28125 
Q 10.40625 8.6875 15.234375 7.390625 
Q 20.0625 6.109375 24.8125 6.109375 
Q 31.15625 6.109375 34.5625 8.28125 
Q 37.984375 10.453125 37.984375 14.40625 
Q 37.984375 18.0625 35.515625 20.015625 
Q 33.0625 21.96875 24.703125 23.78125 
L 21.578125 24.515625 
Q 13.234375 26.265625 9.515625 29.90625 
Q 5.8125 33.546875 5.8125 39.890625 
Q 5.8125 47.609375 11.28125 51.796875 
Q 16.75 56 26.8125 56 
Q 31.78125 56 36.171875 55.265625 
Q 40.578125 54.546875 44.28125 53.078125 
z
" id="DejaVuSans-115"/>
      <path d="M 30.609375 48.390625 
Q 23.390625 48.390625 19.1875 42.75 
Q 14.984375 37.109375 14.984375 27.296875 
Q 14.984375 17.484375 19.15625 11.84375 
Q 23.34375 6.203125 30.609375 6.203125 
Q 37.796875 6.203125 41.984375 11.859375 
Q 46.1875 17.53125 46.1875 27.296875 
Q 46.1875 37.015625 41.984375 42.703125 
Q 37.796875 48.390625 30.609375 48.390625 
z
M 30.609375 56 
Q 42.328125 56 49.015625 48.375 
Q 55.71875 40.765625 55.71875 27.296875 
Q 55.71875 13.875 49.015625 6.21875 
Q 42.328125 -1.421875 30.609375 -1.421875 
Q 18.84375 -1.421875 12.171875 6.21875 
Q 5.515625 13.875 5.515625 27.296875 
Q 5.515625 40.765625 12.171875 48.375 
Q 18.84375 56 30.609375 56 
z
" id="DejaVuSans-111"/>
      <path d="M 45.40625 46.390625 
L 45.40625 75.984375 
L 54.390625 75.984375 
L 54.390625 0 
L 45.40625 0 
L 45.40625 8.203125 
Q 42.578125 3.328125 38.25 0.953125 
Q 33.9375 -1.421875 27.875 -1.421875 
Q 17.96875 -1.421875 11.734375 6.484375 
Q 5.515625 14.40625 5.515625 27.296875 
Q 5.515625 40.1875 11.734375 48.09375 
Q 17.96875 56 27.875 56 
Q 33.9375 56 38.25 53.625 
Q 42.578125 51.265625 45.40625 46.390625 
z
M 14.796875 27.296875 
Q 14.796875 17.390625 18.875 11.75 
Q 22.953125 6.109375 30.078125 6.109375 
Q 37.203125 6.109375 41.296875 11.75 
Q 45.40625 17.390625 45.40625 27.296875 
Q 45.40625 37.203125 41.296875 42.84375 
Q 37.203125 48.484375 30.078125 48.484375 
Q 22.953125 48.484375 18.875 42.84375 
Q 14.796875 37.203125 14.796875 27.296875 
z
" id="DejaVuSans-100"/>
      <path d="M 56.203125 29.59375 
L 56.203125 25.203125 
L 14.890625 25.203125 
Q 15.484375 15.921875 20.484375 11.0625 
Q 25.484375 6.203125 34.421875 6.203125 
Q 39.59375 6.203125 44.453125 7.46875 
Q 49.3125 8.734375 54.109375 11.28125 
L 54.109375 2.78125 
Q 49.265625 0.734375 44.1875 -0.34375 
Q 39.109375 -1.421875 33.890625 -1.421875 
Q 20.796875 -1.421875 13.15625 6.1875 
Q 5.515625 13.8125 5.515625 26.8125 
Q 5.515625 40.234375 12.765625 48.109375 
Q 20.015625 56 32.328125 56 
Q 43.359375 56 49.78125 48.890625 
Q 56.203125 41.796875 56.203125 29.59375 
z
M 47.21875 32.234375 
Q 47.125 39.59375 43.09375 43.984375 
Q 39.0625 48.390625 32.421875 48.390625 
Q 24.90625 48.390625 20.390625 44.140625 
Q 15.875 39.890625 15.1875 32.171875 
z
" id="DejaVuSans-101"/>
     </defs>
     <g transform="translate(213.917812 335.860562)scale(0.1 -0.1)">
      <use xlink:href="#DejaVuSans-69"/>
      <use x="63.183594" xlink:href="#DejaVuSans-112"/>
      <use x="126.660156" xlink:href="#DejaVuSans-105"/>
      <use x="154.443359" xlink:href="#DejaVuSans-115"/>
      <use x="206.542969" xlink:href="#DejaVuSans-111"/>
      <use x="267.724609" xlink:href="#DejaVuSans-100"/>
      <use x="331.201172" xlink:href="#DejaVuSans-101"/>
      <use x="392.724609" xlink:href="#DejaVuSans-115"/>
     </g>
    </g>
   </g>
   <g id="matplotlib.axis_2">
    <g id="ytick_1">
     <g id="line2d_7">
      <defs>
       <path d="M 0 0 
L -3.5 0 
" id="m68454ccf3f" style="stroke:#000000;stroke-width:0.8;"/>
      </defs>
      <g>
       <use style="stroke:#000000;stroke-width:0.8;" x="57.6" xlink:href="#m68454ccf3f" y="287.941255"/>
      </g>
     </g>
     <g id="text_8">
      <!-- 0 -->
      <g transform="translate(44.2375 291.740473)scale(0.1 -0.1)">
       <use xlink:href="#DejaVuSans-48"/>
      </g>
     </g>
    </g>
    <g id="ytick_2">
     <g id="line2d_8">
      <g>
       <use style="stroke:#000000;stroke-width:0.8;" x="57.6" xlink:href="#m68454ccf3f" y="232.482175"/>
      </g>
     </g>
     <g id="text_9">
      <!-- 100 -->
      <g transform="translate(31.5125 236.281394)scale(0.1 -0.1)">
       <use xlink:href="#DejaVuSans-49"/>
       <use x="63.623047" xlink:href="#DejaVuSans-48"/>
       <use x="127.246094" xlink:href="#DejaVuSans-48"/>
      </g>
     </g>
    </g>
    <g id="ytick_3">
     <g id="line2d_9">
      <g>
       <use style="stroke:#000000;stroke-width:0.8;" x="57.6" xlink:href="#m68454ccf3f" y="177.023095"/>
      </g>
     </g>
     <g id="text_10">
      <!-- 200 -->
      <g transform="translate(31.5125 180.822314)scale(0.1 -0.1)">
       <use xlink:href="#DejaVuSans-50"/>
       <use x="63.623047" xlink:href="#DejaVuSans-48"/>
       <use x="127.246094" xlink:href="#DejaVuSans-48"/>
      </g>
     </g>
    </g>
    <g id="ytick_4">
     <g id="line2d_10">
      <g>
       <use style="stroke:#000000;stroke-width:0.8;" x="57.6" xlink:href="#m68454ccf3f" y="121.564016"/>
      </g>
     </g>
     <g id="text_11">
      <!-- 300 -->
      <defs>
       <path d="M 40.578125 39.3125 
Q 47.65625 37.796875 51.625 33 
Q 55.609375 28.21875 55.609375 21.1875 
Q 55.609375 10.40625 48.1875 4.484375 
Q 40.765625 -1.421875 27.09375 -1.421875 
Q 22.515625 -1.421875 17.65625 -0.515625 
Q 12.796875 0.390625 7.625 2.203125 
L 7.625 11.71875 
Q 11.71875 9.328125 16.59375 8.109375 
Q 21.484375 6.890625 26.8125 6.890625 
Q 36.078125 6.890625 40.9375 10.546875 
Q 45.796875 14.203125 45.796875 21.1875 
Q 45.796875 27.640625 41.28125 31.265625 
Q 36.765625 34.90625 28.71875 34.90625 
L 20.21875 34.90625 
L 20.21875 43.015625 
L 29.109375 43.015625 
Q 36.375 43.015625 40.234375 45.921875 
Q 44.09375 48.828125 44.09375 54.296875 
Q 44.09375 59.90625 40.109375 62.90625 
Q 36.140625 65.921875 28.71875 65.921875 
Q 24.65625 65.921875 20.015625 65.03125 
Q 15.375 64.15625 9.8125 62.3125 
L 9.8125 71.09375 
Q 15.4375 72.65625 20.34375 73.4375 
Q 25.25 74.21875 29.59375 74.21875 
Q 40.828125 74.21875 47.359375 69.109375 
Q 53.90625 64.015625 53.90625 55.328125 
Q 53.90625 49.265625 50.4375 45.09375 
Q 46.96875 40.921875 40.578125 39.3125 
z
" id="DejaVuSans-51"/>
      </defs>
      <g transform="translate(31.5125 125.363234)scale(0.1 -0.1)">
       <use xlink:href="#DejaVuSans-51"/>
       <use x="63.623047" xlink:href="#DejaVuSans-48"/>
       <use x="127.246094" xlink:href="#DejaVuSans-48"/>
      </g>
     </g>
    </g>
    <g id="ytick_5">
     <g id="line2d_11">
      <g>
       <use style="stroke:#000000;stroke-width:0.8;" x="57.6" xlink:href="#m68454ccf3f" y="66.104936"/>
      </g>
     </g>
     <g id="text_12">
      <!-- 400 -->
      <defs>
       <path d="M 37.796875 64.3125 
L 12.890625 25.390625 
L 37.796875 25.390625 
z
M 35.203125 72.90625 
L 47.609375 72.90625 
L 47.609375 25.390625 
L 58.015625 25.390625 
L 58.015625 17.1875 
L 47.609375 17.1875 
L 47.609375 0 
L 37.796875 0 
L 37.796875 17.1875 
L 4.890625 17.1875 
L 4.890625 26.703125 
z
" id="DejaVuSans-52"/>
      </defs>
      <g transform="translate(31.5125 69.904155)scale(0.1 -0.1)">
       <use xlink:href="#DejaVuSans-52"/>
       <use x="63.623047" xlink:href="#DejaVuSans-48"/>
       <use x="127.246094" xlink:href="#DejaVuSans-48"/>
      </g>
     </g>
    </g>
    <g id="text_13">
     <!-- Reward -->
     <defs>
      <path d="M 44.390625 34.1875 
Q 47.5625 33.109375 50.5625 29.59375 
Q 53.5625 26.078125 56.59375 19.921875 
L 66.609375 0 
L 56 0 
L 46.6875 18.703125 
Q 43.0625 26.03125 39.671875 28.421875 
Q 36.28125 30.8125 30.421875 30.8125 
L 19.671875 30.8125 
L 19.671875 0 
L 9.8125 0 
L 9.8125 72.90625 
L 32.078125 72.90625 
Q 44.578125 72.90625 50.734375 67.671875 
Q 56.890625 62.453125 56.890625 51.90625 
Q 56.890625 45.015625 53.6875 40.46875 
Q 50.484375 35.9375 44.390625 34.1875 
z
M 19.671875 64.796875 
L 19.671875 38.921875 
L 32.078125 38.921875 
Q 39.203125 38.921875 42.84375 42.21875 
Q 46.484375 45.515625 46.484375 51.90625 
Q 46.484375 58.296875 42.84375 61.546875 
Q 39.203125 64.796875 32.078125 64.796875 
z
" id="DejaVuSans-82"/>
      <path d="M 4.203125 54.6875 
L 13.1875 54.6875 
L 24.421875 12.015625 
L 35.59375 54.6875 
L 46.1875 54.6875 
L 57.421875 12.015625 
L 68.609375 54.6875 
L 77.59375 54.6875 
L 63.28125 0 
L 52.6875 0 
L 40.921875 44.828125 
L 29.109375 0 
L 18.5 0 
z
" id="DejaVuSans-119"/>
      <path d="M 34.28125 27.484375 
Q 23.390625 27.484375 19.1875 25 
Q 14.984375 22.515625 14.984375 16.5 
Q 14.984375 11.71875 18.140625 8.90625 
Q 21.296875 6.109375 26.703125 6.109375 
Q 34.1875 6.109375 38.703125 11.40625 
Q 43.21875 16.703125 43.21875 25.484375 
L 43.21875 27.484375 
z
M 52.203125 31.203125 
L 52.203125 0 
L 43.21875 0 
L 43.21875 8.296875 
Q 40.140625 3.328125 35.546875 0.953125 
Q 30.953125 -1.421875 24.3125 -1.421875 
Q 15.921875 -1.421875 10.953125 3.296875 
Q 6 8.015625 6 15.921875 
Q 6 25.140625 12.171875 29.828125 
Q 18.359375 34.515625 30.609375 34.515625 
L 43.21875 34.515625 
L 43.21875 35.40625 
Q 43.21875 41.609375 39.140625 45 
Q 35.0625 48.390625 27.6875 48.390625 
Q 23 48.390625 18.546875 47.265625 
Q 14.109375 46.140625 10.015625 43.890625 
L 10.015625 52.203125 
Q 14.9375 54.109375 19.578125 55.046875 
Q 24.21875 56 28.609375 56 
Q 40.484375 56 46.34375 49.84375 
Q 52.203125 43.703125 52.203125 31.203125 
z
" id="DejaVuSans-97"/>
      <path d="M 41.109375 46.296875 
Q 39.59375 47.171875 37.8125 47.578125 
Q 36.03125 48 33.890625 48 
Q 26.265625 48 22.1875 43.046875 
Q 18.109375 38.09375 18.109375 28.8125 
L 18.109375 0 
L 9.078125 0 
L 9.078125 54.6875 
L 18.109375 54.6875 
L 18.109375 46.1875 
Q 20.953125 51.171875 25.484375 53.578125 
Q 30.03125 56 36.53125 56 
Q 37.453125 56 38.578125 55.875 
Q 39.703125 55.765625 41.0625 55.515625 
z
" id="DejaVuSans-114"/>
     </defs>
     <g transform="translate(25.432812 193.457687)rotate(-90)scale(0.1 -0.1)">
      <use xlink:href="#DejaVuSans-82"/>
      <use x="69.419922" xlink:href="#DejaVuSans-101"/>
      <use x="130.943359" xlink:href="#DejaVuSans-119"/>
      <use x="212.730469" xlink:href="#DejaVuSans-97"/>
      <use x="274.009766" xlink:href="#DejaVuSans-114"/>
      <use x="315.107422" xlink:href="#DejaVuSans-100"/>
     </g>
    </g>
   </g>
   <g id="line2d_12">
    <path clip-path="url(#p0274ba2ac3)" d="M 73.832727 275.684798 
L 75.136561 273.868513 
L 76.440394 276.641467 
L 77.744228 277.681325 
L 79.048061 279.442151 
L 80.351895 278.513211 
L 81.655728 278.485482 
L 82.959562 278.776642 
L 84.263395 279.400556 
L 85.567229 279.622393 
L 86.871062 280.551332 
L 88.174896 280.357225 
L 89.478729 281.383218 
L 90.782563 281.743702 
L 93.39023 281.577325 
L 94.694064 282.17351 
L 95.997897 281.965539 
L 98.605564 282.381482 
L 99.909398 282.215105 
L 101.213231 282.256699 
L 102.517065 282.52013 
L 105.124732 282.187375 
L 106.428565 282.450806 
L 107.732399 282.326023 
L 109.036232 282.062592 
L 110.340066 281.341624 
L 111.643899 282.284428 
L 115.5554 282.090322 
L 116.859233 282.450806 
L 118.163067 282.159646 
L 119.4669 282.298293 
L 120.770734 281.59119 
L 122.074567 280.468144 
L 123.378401 281.216841 
L 125.986068 282.242834 
L 127.289901 280.592927 
L 128.593735 281.189112 
L 129.897568 280.038336 
L 131.201402 280.828628 
L 132.505235 280.038336 
L 133.809069 277.95862 
L 135.112903 280.592927 
L 136.416736 280.39882 
L 137.72057 278.832101 
L 139.024403 279.137126 
L 140.328237 279.192585 
L 141.63207 280.301766 
L 142.935904 280.024471 
L 144.239737 277.390165 
L 145.543571 279.871959 
L 146.847404 278.499346 
L 148.151238 276.267118 
L 149.455071 273.785325 
L 150.758905 274.658805 
L 152.062738 269.390192 
L 153.366572 269.334733 
L 154.670405 265.937865 
L 155.974239 267.587772 
L 157.278072 268.239417 
L 158.581906 267.462989 
L 159.885739 259.948284 
L 161.189573 262.638049 
L 162.493406 260.017608 
L 163.79724 258.520213 
L 165.101073 261.917081 
L 166.404907 258.242917 
L 167.70874 254.929237 
L 169.012574 258.631131 
L 170.316407 255.261992 
L 171.620241 256.315714 
L 172.924074 255.289721 
L 174.227908 253.182276 
L 175.531742 250.159757 
L 176.835575 243.116453 
L 178.139409 247.858205 
L 179.443242 245.75076 
L 180.747076 239.220453 
L 182.050909 240.648524 
L 183.354743 236.794118 
L 185.96241 232.343527 
L 187.266243 224.426744 
L 188.570077 223.74737 
L 189.87391 228.974388 
L 191.177744 229.071442 
L 192.481577 230.69362 
L 193.785411 234.243001 
L 195.089244 228.600039 
L 196.393078 230.98478 
L 197.696911 229.556708 
L 200.304578 231.012509 
L 201.608412 234.118218 
L 202.912245 233.203143 
L 204.216079 233.300196 
L 205.519912 233.244737 
L 206.823746 236.003826 
L 208.127579 231.59483 
L 209.431413 231.788936 
L 210.735246 229.76468 
L 212.03908 229.778545 
L 213.342913 230.929321 
L 214.646747 227.324481 
L 215.950581 227.35221 
L 217.254414 229.431926 
L 218.558248 229.598303 
L 219.862081 228.669363 
L 221.165915 228.808011 
L 222.469748 231.289805 
L 223.773582 226.201434 
L 225.077415 228.502986 
L 226.381249 227.601776 
L 227.685082 224.898146 
L 230.292749 222.84616 
L 231.596583 212.29507 
L 232.900416 215.788992 
L 234.20425 216.884309 
L 235.508083 213.958842 
L 236.811917 209.009119 
L 238.11575 216.357448 
L 239.419584 209.120038 
L 240.723417 204.059397 
L 242.027251 207.636507 
L 243.331084 199.747453 
L 244.634918 199.289916 
L 245.938751 200.23272 
L 247.242585 199.664265 
L 248.546418 197.459766 
L 249.850252 200.274314 
L 251.154085 199.678129 
L 253.761752 196.364449 
L 255.065586 203.019539 
L 256.369419 201.646927 
L 257.673253 200.676393 
L 258.977087 202.381759 
L 260.28092 199.068079 
L 261.584754 198.555083 
L 262.888587 197.834115 
L 264.192421 200.773446 
L 265.496254 199.983154 
L 266.800088 191.567239 
L 268.103921 196.835851 
L 269.407755 198.527353 
L 270.711588 198.291652 
L 272.015422 196.683339 
L 273.319255 203.172051 
L 274.623089 199.872236 
L 275.926922 194.880919 
L 277.230756 196.614015 
L 278.534589 171.283081 
L 279.838423 194.492705 
L 281.142256 169.078582 
L 282.44609 197.723197 
L 283.749923 191.456321 
L 285.053757 178.908704 
L 286.35759 190.083709 
L 287.661424 194.423382 
L 288.965257 185.646982 
L 290.269091 199.664265 
L 291.572924 183.165188 
L 292.876758 186.894811 
L 294.180591 196.821987 
L 295.484425 184.149587 
L 296.788258 195.574157 
L 298.092092 201.896493 
L 299.395926 183.747509 
L 300.699759 168.31602 
L 302.003593 187.87921 
L 303.307426 191.206755 
L 304.61126 185.716306 
L 305.915093 151.622837 
L 307.218927 176.71807 
L 308.52276 187.754427 
L 309.826594 180.96069 
L 311.130427 189.640036 
L 312.434261 169.231095 
L 313.738094 178.354113 
L 315.041928 184.510071 
L 316.345761 175.331593 
L 317.649595 173.293472 
L 318.953428 182.610598 
L 321.561095 165.085528 
L 322.864929 163.75451 
L 324.168762 160.246724 
L 325.472596 166.735436 
L 326.776429 180.697259 
L 328.080263 178.617544 
L 329.384096 179.366241 
L 330.68793 168.634909 
L 331.991763 165.446012 
L 333.295597 155.227677 
L 334.59943 187.144377 
L 335.903264 174.069899 
L 337.207097 179.407836 
L 338.510931 181.043879 
L 339.814765 189.556847 
L 341.118598 167.373215 
L 342.422432 163.227649 
L 343.726265 169.023123 
L 346.333932 189.97279 
L 347.637766 191.664292 
L 348.941599 190.624435 
L 350.245433 168.648774 
L 351.549266 182.707651 
L 352.8531 184.343694 
L 354.156933 188.087182 
L 355.460767 205.820222 
L 356.7646 191.179025 
L 358.068434 189.598442 
L 359.372267 149.848146 
L 360.676101 185.20331 
L 361.979934 199.608805 
L 363.283768 194.381787 
L 364.587601 163.990212 
L 365.891435 198.818514 
L 367.195268 203.629589 
L 368.499102 162.368033 
L 369.802935 206.54119 
L 371.106769 178.631409 
L 372.410602 159.456432 
L 373.714436 197.168606 
L 375.018269 205.584521 
L 376.322103 203.83756 
L 377.625936 207.456265 
L 378.92977 204.253503 
L 380.233604 182.388761 
L 381.537437 200.426827 
L 382.841271 189.778684 
L 384.145104 206.59665 
L 385.448938 198.055951 
L 386.752771 184.773502 
L 388.056605 195.477104 
L 389.360438 158.416574 
L 390.664272 188.877474 
L 391.968105 197.487496 
L 393.271939 187.823751 
L 394.575772 205.05766 
L 395.879606 189.196363 
L 397.183439 187.158242 
L 398.487273 189.70936 
L 398.487273 189.70936 
" style="fill:none;stroke:#cc4f1b;stroke-linecap:square;stroke-width:1.5;"/>
   </g>
   <g id="line2d_13">
    <path clip-path="url(#p0274ba2ac3)" d="M 73.832727 260.863359 
L 75.136561 263.83042 
L 76.440394 270.125025 
L 77.744228 272.967303 
L 80.351895 274.506293 
L 81.655728 275.920499 
L 82.959562 274.991559 
L 84.263395 276.114606 
L 86.871062 276.669197 
L 88.174896 277.126734 
L 89.478729 276.530549 
L 90.782563 277.279247 
L 92.086396 276.197794 
L 93.39023 277.736784 
L 94.694064 277.126734 
L 95.997897 277.473353 
L 97.301731 277.08514 
L 98.605564 277.029681 
L 99.909398 277.140599 
L 101.213231 276.807844 
L 102.517065 277.279247 
L 103.820898 276.655332 
L 105.124732 277.306976 
L 106.428565 276.780115 
L 107.732399 277.071275 
L 109.036232 277.126734 
L 110.340066 276.904898 
L 111.643899 276.391901 
L 112.947733 277.417894 
L 114.251566 276.669197 
L 115.5554 276.974222 
L 116.859233 276.364172 
L 118.163067 276.558278 
L 119.4669 277.528812 
L 120.770734 277.05741 
L 122.074567 277.431759 
L 123.378401 277.459489 
L 124.682234 277.001951 
L 125.986068 277.223787 
L 127.289901 276.683061 
L 129.897568 277.847702 
L 131.201402 277.612001 
L 132.505235 276.405766 
L 133.809069 277.570407 
L 135.112903 276.891033 
L 136.416736 277.431759 
L 137.72057 276.239389 
L 139.024403 277.334706 
L 140.328237 276.599873 
L 141.63207 277.209923 
L 144.239737 276.44736 
L 145.543571 277.08514 
L 146.847404 276.197794 
L 148.151238 276.807844 
L 149.455071 276.669197 
L 152.062738 277.584271 
L 153.366572 277.390165 
L 154.670405 276.76625 
L 155.974239 277.293111 
L 157.278072 276.239389 
L 158.581906 275.962093 
L 159.885739 277.778378 
L 161.189573 276.710791 
L 162.493406 276.405766 
L 163.79724 277.196058 
L 165.101073 276.946492 
L 166.404907 276.364172 
L 167.70874 277.514948 
L 169.012574 276.752385 
L 170.316407 276.835574 
L 171.620241 276.79398 
L 174.227908 277.390165 
L 175.531742 275.795716 
L 176.835575 276.488955 
L 178.139409 277.043545 
L 179.443242 275.421367 
L 180.747076 276.44736 
L 182.050909 275.532286 
L 183.354743 276.641467 
L 184.658576 276.239389 
L 185.96241 275.199531 
L 187.266243 275.352044 
L 188.570077 276.294848 
L 189.87391 275.407503 
L 191.177744 275.712528 
L 192.481577 274.797453 
L 193.785411 274.547887 
L 195.089244 275.338179 
L 196.393078 275.851175 
L 197.696911 274.811317 
L 199.000745 275.25499 
L 200.304578 273.036627 
L 201.608412 273.577353 
L 202.912245 274.797453 
L 204.216079 275.435232 
L 205.519912 273.13368 
L 206.823746 275.144072 
L 208.127579 272.967303 
L 209.431413 275.726392 
L 212.03908 272.121552 
L 213.342913 273.702136 
L 214.646747 270.984641 
L 215.950581 273.577353 
L 217.254414 272.84252 
L 218.558248 269.806136 
L 219.862081 274.215132 
L 221.165915 272.315659 
L 222.469748 271.747203 
L 223.773582 271.428314 
L 225.077415 273.674406 
L 226.381249 273.896243 
L 227.685082 271.053965 
L 228.988916 270.471645 
L 230.292749 269.542705 
L 231.596583 272.384983 
L 232.900416 271.095559 
L 234.20425 272.468171 
L 235.508083 269.320869 
L 236.811917 268.835602 
L 238.11575 268.988114 
L 239.419584 269.709082 
L 240.723417 269.778406 
L 242.027251 264.523658 
L 243.331084 266.520185 
L 244.634918 270.097296 
L 245.938751 268.710819 
L 247.242585 271.525367 
L 248.546418 269.736812 
L 249.850252 271.844257 
L 251.154085 271.913581 
L 252.457919 265.618975 
L 253.761752 271.566961 
L 255.065586 268.835602 
L 256.369419 269.126762 
L 257.673253 266.686562 
L 258.977087 270.291402 
L 260.28092 266.894534 
L 261.584754 265.161438 
L 262.888587 268.073039 
L 264.192421 265.521922 
L 265.496254 264.41274 
L 266.800088 265.216897 
L 268.103921 248.482119 
L 269.407755 248.593038 
L 270.711588 253.029764 
L 273.319255 233.244737 
L 274.623089 230.98478 
L 275.926922 238.51335 
L 277.230756 231.206616 
L 278.534589 225.106117 
L 279.838423 230.527242 
L 281.142256 221.889491 
L 282.44609 217.633006 
L 283.749923 223.830559 
L 285.053757 223.13732 
L 286.35759 217.397305 
L 287.661424 212.821931 
L 288.965257 204.877418 
L 290.269091 206.707568 
L 291.572924 209.716223 
L 292.876758 204.877418 
L 294.180591 192.690285 
L 295.484425 193.744008 
L 296.788258 181.972818 
L 298.092092 191.165161 
L 299.395926 179.865373 
L 300.699759 186.908676 
L 302.003593 156.919179 
L 303.307426 164.447749 
L 304.61126 146.2849 
L 305.915093 149.9452 
L 307.218927 181.473686 
L 308.52276 145.050936 
L 309.826594 139.297056 
L 312.434261 151.151435 
L 313.738094 158.291791 
L 315.041928 155.241542 
L 316.345761 148.364616 
L 317.649595 155.449513 
L 318.953428 151.151435 
L 320.257262 131.740757 
L 321.561095 133.473853 
L 322.864929 138.437441 
L 324.168762 137.314394 
L 325.472596 141.959092 
L 326.776429 172.364533 
L 328.080263 135.373326 
L 329.384096 126.527603 
L 330.68793 137.799661 
L 331.991763 152.163563 
L 333.295597 184.371423 
L 334.59943 131.491191 
L 335.903264 146.756303 
L 337.207097 134.319604 
L 338.510931 145.134124 
L 339.814765 178.950298 
L 341.118598 190.846271 
L 342.422432 148.40621 
L 343.726265 172.835935 
L 345.030099 185.328092 
L 346.333932 169.383607 
L 347.637766 149.695634 
L 348.941599 141.099476 
L 350.245433 189.321146 
L 351.549266 169.134041 
L 352.8531 157.903578 
L 354.156933 162.215521 
L 355.460767 158.222467 
L 356.7646 158.05609 
L 358.068434 163.394026 
L 359.372267 170.062981 
L 360.676101 170.964191 
L 361.979934 156.697343 
L 363.283768 184.828961 
L 364.587601 180.517017 
L 365.891435 174.180817 
L 367.195268 188.530854 
L 368.499102 176.246668 
L 369.802935 176.926042 
L 371.106769 163.255379 
L 372.410602 164.960745 
L 373.714436 190.028249 
L 375.018269 150.388872 
L 376.322103 161.161798 
L 377.625936 189.653901 
L 378.92977 172.932988 
L 380.233604 160.898368 
L 381.537437 153.134097 
L 382.841271 171.782212 
L 384.145104 182.776975 
L 385.448938 178.645273 
L 386.752771 176.856718 
L 388.056605 184.56553 
L 389.360438 176.607152 
L 390.664272 156.378453 
L 391.968105 169.425201 
L 393.271939 157.903578 
L 394.575772 187.532591 
L 395.879606 164.114994 
L 397.183439 180.087209 
L 398.487273 152.385399 
L 398.487273 152.385399 
" style="fill:none;stroke:#1b2acc;stroke-linecap:square;stroke-width:1.5;"/>
   </g>
   <g id="line2d_14">
    <path clip-path="url(#p0274ba2ac3)" d="M 73.832727 277.917026 
L 75.136561 277.681325 
L 76.440394 276.100741 
L 77.744228 277.473353 
L 79.048061 278.637994 
L 80.351895 279.317368 
L 81.655728 280.149254 
L 84.263395 280.482008 
L 85.567229 280.190848 
L 86.871062 281.286165 
L 88.174896 281.840756 
L 89.478729 281.785297 
L 90.782563 281.00887 
L 92.086396 281.688243 
L 94.694064 282.312158 
L 95.997897 281.951674 
L 97.301731 282.298293 
L 99.909398 282.298293 
L 101.213231 282.090322 
L 103.820898 282.561724 
L 107.732399 282.450806 
L 109.036232 282.326023 
L 110.340066 282.672642 
L 111.643899 282.603318 
L 112.947733 282.672642 
L 114.251566 282.52013 
L 115.5554 282.631048 
L 118.163067 282.575589 
L 119.4669 282.741966 
L 120.770734 282.46467 
L 122.074567 282.741966 
L 123.378401 282.589453 
L 127.289901 282.644912 
L 128.593735 282.797425 
L 131.201402 282.672642 
L 133.809069 282.672642 
L 135.112903 282.533994 
L 136.416736 282.658777 
L 137.72057 282.436941 
L 139.024403 281.799162 
L 140.328237 281.61892 
L 141.63207 281.743702 
L 142.935904 281.688243 
L 144.239737 281.286165 
L 145.543571 279.858094 
L 148.151238 280.468144 
L 149.455071 279.774905 
L 150.758905 281.189112 
L 152.062738 280.301766 
L 153.366572 281.61892 
L 154.670405 281.092058 
L 155.974239 280.884087 
L 157.278072 281.105923 
L 158.581906 280.731574 
L 159.885739 280.68998 
L 161.189573 280.39882 
L 165.101073 280.703845 
L 166.404907 278.346834 
L 167.70874 276.835574 
L 169.012574 279.428286 
L 170.316407 279.012343 
L 171.620241 279.456015 
L 172.924074 277.930891 
L 175.531742 276.877168 
L 176.835575 275.033154 
L 178.139409 277.98635 
L 179.443242 278.457752 
L 180.747076 275.809581 
L 182.050909 277.69519 
L 183.354743 277.750649 
L 184.658576 273.092086 
L 185.96241 266.270619 
L 187.266243 266.367673 
L 188.570077 271.899716 
L 189.87391 265.383274 
L 191.177744 262.818292 
L 192.481577 256.163202 
L 193.785411 256.107743 
L 195.089244 251.989906 
L 196.393078 254.554889 
L 197.696911 249.688354 
L 199.000745 251.435315 
L 200.304578 252.697009 
L 201.608412 244.447471 
L 202.912245 246.263756 
L 204.216079 242.797564 
L 205.519912 245.917137 
L 206.823746 236.267257 
L 208.127579 236.475229 
L 209.431413 237.570545 
L 210.735246 235.560154 
L 212.03908 238.984752 
L 213.342913 235.296723 
L 214.646747 229.750815 
L 215.950581 229.418061 
L 218.558248 222.444082 
L 219.862081 213.418116 
L 221.165915 215.830586 
L 222.469748 224.565391 
L 223.773582 221.293306 
L 225.077415 221.404224 
L 226.381249 219.574074 
L 227.685082 216.329718 
L 228.988916 212.308935 
L 230.292749 210.312408 
L 231.596583 205.08539 
L 232.900416 210.437191 
L 234.20425 210.631298 
L 235.508083 211.879127 
L 236.811917 207.525589 
L 238.11575 207.331482 
L 239.419584 205.459738 
L 240.723417 196.724933 
L 242.027251 175.969373 
L 243.331084 188.267424 
L 244.634918 203.5464 
L 245.938751 201.785574 
L 247.242585 201.106201 
L 248.546418 196.655609 
L 249.850252 189.806413 
L 251.154085 200.177261 
L 252.457919 196.156478 
L 253.761752 198.610542 
L 255.065586 197.321118 
L 256.369419 195.380051 
L 257.673253 194.270869 
L 258.977087 193.60536 
L 260.28092 194.562029 
L 261.584754 196.558556 
L 262.888587 195.449374 
L 264.192421 195.546428 
L 265.496254 196.198072 
L 266.800088 188.530854 
L 268.103921 187.893075 
L 269.407755 190.236221 
L 270.711588 193.078499 
L 272.015422 194.977972 
L 273.319255 191.761346 
L 274.623089 192.828933 
L 275.926922 194.062898 
L 277.230756 196.406044 
L 278.534589 194.270869 
L 279.838423 193.92425 
L 281.142256 196.198072 
L 282.44609 197.515225 
L 283.749923 194.562029 
L 285.053757 197.52909 
L 286.35759 198.277788 
L 287.661424 194.270869 
L 288.965257 191.248349 
L 290.269091 193.258741 
L 291.572924 193.522171 
L 292.876758 185.896548 
L 294.180591 190.374869 
L 295.484425 193.272606 
L 296.788258 199.165133 
L 298.092092 193.120093 
L 299.395926 189.057716 
L 300.699759 193.106228 
L 302.003593 187.962399 
L 304.61126 198.763055 
L 305.915093 192.718015 
L 307.218927 200.454556 
L 308.52276 195.782129 
L 309.826594 187.768292 
L 311.130427 196.794257 
L 312.434261 195.685076 
L 313.738094 196.406044 
L 315.041928 197.806385 
L 316.345761 195.560293 
L 317.649595 196.863581 
L 318.953428 194.381787 
L 320.257262 197.168606 
L 321.561095 201.71625 
L 322.864929 201.646927 
L 324.168762 202.243112 
L 325.472596 201.549873 
L 326.776429 198.887837 
L 328.080263 197.889574 
L 329.384096 199.192862 
L 330.68793 197.307254 
L 331.991763 174.097629 
L 333.295597 194.049033 
L 334.59943 196.378314 
L 335.903264 199.35924 
L 337.207097 202.617461 
L 338.510931 197.2102 
L 339.814765 195.851453 
L 341.118598 176.704206 
L 342.422432 168.426938 
L 343.726265 192.690285 
L 345.030099 190.111438 
L 346.333932 190.305545 
L 347.637766 198.042086 
L 348.941599 197.515225 
L 350.245433 201.674656 
L 351.549266 196.974499 
L 352.8531 203.158187 
L 354.156933 200.84277 
L 355.460767 198.194599 
L 356.7646 160.662667 
L 358.068434 200.773446 
L 359.372267 200.731852 
L 360.676101 200.038613 
L 361.979934 193.508307 
L 363.283768 205.251767 
L 364.587601 185.452875 
L 365.891435 202.423354 
L 367.195268 199.927695 
L 368.499102 200.121802 
L 369.802935 177.605416 
L 371.106769 192.274342 
L 372.410602 186.132249 
L 373.714436 120.787589 
L 375.018269 152.260616 
L 376.322103 142.929626 
L 377.625936 148.40621 
L 378.92977 148.655776 
L 380.233604 143.595135 
L 381.537437 147.255434 
L 382.841271 142.97122 
L 384.145104 152.246751 
L 385.448938 146.992004 
L 386.752771 153.730282 
L 388.056605 151.165299 
L 389.360438 173.362796 
L 390.664272 174.180817 
L 391.968105 189.376605 
L 393.271939 150.472061 
L 394.575772 167.581187 
L 395.879606 166.679977 
L 397.183439 161.411364 
L 398.487273 162.201656 
L 398.487273 162.201656 
" style="fill:none;stroke:#3f7f4c;stroke-linecap:square;stroke-width:1.5;"/>
   </g>
   <g id="patch_3">
    <path d="M 57.6 307.584 
L 57.6 41.472 
" style="fill:none;stroke:#000000;stroke-linecap:square;stroke-linejoin:miter;stroke-width:0.8;"/>
   </g>
   <g id="patch_4">
    <path d="M 414.72 307.584 
L 414.72 41.472 
" style="fill:none;stroke:#000000;stroke-linecap:square;stroke-linejoin:miter;stroke-width:0.8;"/>
   </g>
   <g id="patch_5">
    <path d="M 57.6 307.584 
L 414.72 307.584 
" style="fill:none;stroke:#000000;stroke-linecap:square;stroke-linejoin:miter;stroke-width:0.8;"/>
   </g>
   <g id="patch_6">
    <path d="M 57.6 41.472 
L 414.72 41.472 
" style="fill:none;stroke:#000000;stroke-linecap:square;stroke-linejoin:miter;stroke-width:0.8;"/>
   </g>
   <g id="text_14">
    <!-- Reward Comparison CartPole -->
    <defs>
     <path id="DejaVuSans-32"/>
     <path d="M 64.40625 67.28125 
L 64.40625 56.890625 
Q 59.421875 61.53125 53.78125 63.8125 
Q 48.140625 66.109375 41.796875 66.109375 
Q 29.296875 66.109375 22.65625 58.46875 
Q 16.015625 50.828125 16.015625 36.375 
Q 16.015625 21.96875 22.65625 14.328125 
Q 29.296875 6.6875 41.796875 6.6875 
Q 48.140625 6.6875 53.78125 8.984375 
Q 59.421875 11.28125 64.40625 15.921875 
L 64.40625 5.609375 
Q 59.234375 2.09375 53.4375 0.328125 
Q 47.65625 -1.421875 41.21875 -1.421875 
Q 24.65625 -1.421875 15.125 8.703125 
Q 5.609375 18.84375 5.609375 36.375 
Q 5.609375 53.953125 15.125 64.078125 
Q 24.65625 74.21875 41.21875 74.21875 
Q 47.75 74.21875 53.53125 72.484375 
Q 59.328125 70.75 64.40625 67.28125 
z
" id="DejaVuSans-67"/>
     <path d="M 52 44.1875 
Q 55.375 50.25 60.0625 53.125 
Q 64.75 56 71.09375 56 
Q 79.640625 56 84.28125 50.015625 
Q 88.921875 44.046875 88.921875 33.015625 
L 88.921875 0 
L 79.890625 0 
L 79.890625 32.71875 
Q 79.890625 40.578125 77.09375 44.375 
Q 74.3125 48.1875 68.609375 48.1875 
Q 61.625 48.1875 57.5625 43.546875 
Q 53.515625 38.921875 53.515625 30.90625 
L 53.515625 0 
L 44.484375 0 
L 44.484375 32.71875 
Q 44.484375 40.625 41.703125 44.40625 
Q 38.921875 48.1875 33.109375 48.1875 
Q 26.21875 48.1875 22.15625 43.53125 
Q 18.109375 38.875 18.109375 30.90625 
L 18.109375 0 
L 9.078125 0 
L 9.078125 54.6875 
L 18.109375 54.6875 
L 18.109375 46.1875 
Q 21.1875 51.21875 25.484375 53.609375 
Q 29.78125 56 35.6875 56 
Q 41.65625 56 45.828125 52.96875 
Q 50 49.953125 52 44.1875 
z
" id="DejaVuSans-109"/>
     <path d="M 54.890625 33.015625 
L 54.890625 0 
L 45.90625 0 
L 45.90625 32.71875 
Q 45.90625 40.484375 42.875 44.328125 
Q 39.84375 48.1875 33.796875 48.1875 
Q 26.515625 48.1875 22.3125 43.546875 
Q 18.109375 38.921875 18.109375 30.90625 
L 18.109375 0 
L 9.078125 0 
L 9.078125 54.6875 
L 18.109375 54.6875 
L 18.109375 46.1875 
Q 21.34375 51.125 25.703125 53.5625 
Q 30.078125 56 35.796875 56 
Q 45.21875 56 50.046875 50.171875 
Q 54.890625 44.34375 54.890625 33.015625 
z
" id="DejaVuSans-110"/>
     <path d="M 18.3125 70.21875 
L 18.3125 54.6875 
L 36.8125 54.6875 
L 36.8125 47.703125 
L 18.3125 47.703125 
L 18.3125 18.015625 
Q 18.3125 11.328125 20.140625 9.421875 
Q 21.96875 7.515625 27.59375 7.515625 
L 36.8125 7.515625 
L 36.8125 0 
L 27.59375 0 
Q 17.1875 0 13.234375 3.875 
Q 9.28125 7.765625 9.28125 18.015625 
L 9.28125 47.703125 
L 2.6875 47.703125 
L 2.6875 54.6875 
L 9.28125 54.6875 
L 9.28125 70.21875 
z
" id="DejaVuSans-116"/>
     <path d="M 19.671875 64.796875 
L 19.671875 37.40625 
L 32.078125 37.40625 
Q 38.96875 37.40625 42.71875 40.96875 
Q 46.484375 44.53125 46.484375 51.125 
Q 46.484375 57.671875 42.71875 61.234375 
Q 38.96875 64.796875 32.078125 64.796875 
z
M 9.8125 72.90625 
L 32.078125 72.90625 
Q 44.34375 72.90625 50.609375 67.359375 
Q 56.890625 61.8125 56.890625 51.125 
Q 56.890625 40.328125 50.609375 34.8125 
Q 44.34375 29.296875 32.078125 29.296875 
L 19.671875 29.296875 
L 19.671875 0 
L 9.8125 0 
z
" id="DejaVuSans-80"/>
     <path d="M 9.421875 75.984375 
L 18.40625 75.984375 
L 18.40625 0 
L 9.421875 0 
z
" id="DejaVuSans-108"/>
    </defs>
    <g transform="translate(148.37625 35.472)scale(0.12 -0.12)">
     <use xlink:href="#DejaVuSans-82"/>
     <use x="69.419922" xlink:href="#DejaVuSans-101"/>
     <use x="130.943359" xlink:href="#DejaVuSans-119"/>
     <use x="212.730469" xlink:href="#DejaVuSans-97"/>
     <use x="274.009766" xlink:href="#DejaVuSans-114"/>
     <use x="315.107422" xlink:href="#DejaVuSans-100"/>
     <use x="378.583984" xlink:href="#DejaVuSans-32"/>
     <use x="410.371094" xlink:href="#DejaVuSans-67"/>
     <use x="480.195312" xlink:href="#DejaVuSans-111"/>
     <use x="541.376953" xlink:href="#DejaVuSans-109"/>
     <use x="638.789062" xlink:href="#DejaVuSans-112"/>
     <use x="702.265625" xlink:href="#DejaVuSans-97"/>
     <use x="763.544922" xlink:href="#DejaVuSans-114"/>
     <use x="804.658203" xlink:href="#DejaVuSans-105"/>
     <use x="832.441406" xlink:href="#DejaVuSans-115"/>
     <use x="884.541016" xlink:href="#DejaVuSans-111"/>
     <use x="945.722656" xlink:href="#DejaVuSans-110"/>
     <use x="1009.101562" xlink:href="#DejaVuSans-32"/>
     <use x="1040.888672" xlink:href="#DejaVuSans-67"/>
     <use x="1110.712891" xlink:href="#DejaVuSans-97"/>
     <use x="1171.992188" xlink:href="#DejaVuSans-114"/>
     <use x="1213.105469" xlink:href="#DejaVuSans-116"/>
     <use x="1252.314453" xlink:href="#DejaVuSans-80"/>
     <use x="1312.570312" xlink:href="#DejaVuSans-111"/>
     <use x="1373.751953" xlink:href="#DejaVuSans-108"/>
     <use x="1401.535156" xlink:href="#DejaVuSans-101"/>
    </g>
   </g>
   <g id="legend_1">
    <g id="patch_7">
     <path d="M 318.634063 93.506375 
L 407.72 93.506375 
Q 409.72 93.506375 409.72 91.506375 
L 409.72 48.472 
Q 409.72 46.472 407.72 46.472 
L 318.634063 46.472 
Q 316.634063 46.472 316.634063 48.472 
L 316.634063 91.506375 
Q 316.634063 93.506375 318.634063 93.506375 
z
" style="fill:#ffffff;opacity:0.8;stroke:#cccccc;stroke-linejoin:miter;"/>
    </g>
    <g id="line2d_15">
     <path d="M 320.634063 54.570438 
L 340.634063 54.570438 
" style="fill:none;stroke:#cc4f1b;stroke-linecap:square;stroke-width:1.5;"/>
    </g>
    <g id="line2d_16"/>
    <g id="text_15">
     <!-- DQN -->
     <defs>
      <path d="M 19.671875 64.796875 
L 19.671875 8.109375 
L 31.59375 8.109375 
Q 46.6875 8.109375 53.6875 14.9375 
Q 60.6875 21.78125 60.6875 36.53125 
Q 60.6875 51.171875 53.6875 57.984375 
Q 46.6875 64.796875 31.59375 64.796875 
z
M 9.8125 72.90625 
L 30.078125 72.90625 
Q 51.265625 72.90625 61.171875 64.09375 
Q 71.09375 55.28125 71.09375 36.53125 
Q 71.09375 17.671875 61.125 8.828125 
Q 51.171875 0 30.078125 0 
L 9.8125 0 
z
" id="DejaVuSans-68"/>
      <path d="M 39.40625 66.21875 
Q 28.65625 66.21875 22.328125 58.203125 
Q 16.015625 50.203125 16.015625 36.375 
Q 16.015625 22.609375 22.328125 14.59375 
Q 28.65625 6.59375 39.40625 6.59375 
Q 50.140625 6.59375 56.421875 14.59375 
Q 62.703125 22.609375 62.703125 36.375 
Q 62.703125 50.203125 56.421875 58.203125 
Q 50.140625 66.21875 39.40625 66.21875 
z
M 53.21875 1.3125 
L 66.21875 -12.890625 
L 54.296875 -12.890625 
L 43.5 -1.21875 
Q 41.890625 -1.3125 41.03125 -1.359375 
Q 40.1875 -1.421875 39.40625 -1.421875 
Q 24.03125 -1.421875 14.8125 8.859375 
Q 5.609375 19.140625 5.609375 36.375 
Q 5.609375 53.65625 14.8125 63.9375 
Q 24.03125 74.21875 39.40625 74.21875 
Q 54.734375 74.21875 63.90625 63.9375 
Q 73.09375 53.65625 73.09375 36.375 
Q 73.09375 23.6875 67.984375 14.640625 
Q 62.890625 5.609375 53.21875 1.3125 
z
" id="DejaVuSans-81"/>
      <path d="M 9.8125 72.90625 
L 23.09375 72.90625 
L 55.421875 11.921875 
L 55.421875 72.90625 
L 64.984375 72.90625 
L 64.984375 0 
L 51.703125 0 
L 19.390625 60.984375 
L 19.390625 0 
L 9.8125 0 
z
" id="DejaVuSans-78"/>
     </defs>
     <g transform="translate(348.634063 58.070438)scale(0.1 -0.1)">
      <use xlink:href="#DejaVuSans-68"/>
      <use x="77.001953" xlink:href="#DejaVuSans-81"/>
      <use x="155.712891" xlink:href="#DejaVuSans-78"/>
     </g>
    </g>
    <g id="line2d_17">
     <path d="M 320.634063 69.248563 
L 340.634063 69.248563 
" style="fill:none;stroke:#1b2acc;stroke-linecap:square;stroke-width:1.5;"/>
    </g>
    <g id="line2d_18"/>
    <g id="text_16">
     <!-- DQN + CM -->
     <defs>
      <path d="M 46 62.703125 
L 46 35.5 
L 73.1875 35.5 
L 73.1875 27.203125 
L 46 27.203125 
L 46 0 
L 37.796875 0 
L 37.796875 27.203125 
L 10.59375 27.203125 
L 10.59375 35.5 
L 37.796875 35.5 
L 37.796875 62.703125 
z
" id="DejaVuSans-43"/>
      <path d="M 9.8125 72.90625 
L 24.515625 72.90625 
L 43.109375 23.296875 
L 61.8125 72.90625 
L 76.515625 72.90625 
L 76.515625 0 
L 66.890625 0 
L 66.890625 64.015625 
L 48.09375 14.015625 
L 38.1875 14.015625 
L 19.390625 64.015625 
L 19.390625 0 
L 9.8125 0 
z
" id="DejaVuSans-77"/>
     </defs>
     <g transform="translate(348.634063 72.748563)scale(0.1 -0.1)">
      <use xlink:href="#DejaVuSans-68"/>
      <use x="77.001953" xlink:href="#DejaVuSans-81"/>
      <use x="155.712891" xlink:href="#DejaVuSans-78"/>
      <use x="230.517578" xlink:href="#DejaVuSans-32"/>
      <use x="262.304688" xlink:href="#DejaVuSans-43"/>
      <use x="346.09375" xlink:href="#DejaVuSans-32"/>
      <use x="377.880859" xlink:href="#DejaVuSans-67"/>
      <use x="447.705078" xlink:href="#DejaVuSans-77"/>
     </g>
    </g>
    <g id="line2d_19">
     <path d="M 320.634063 83.926688 
L 340.634063 83.926688 
" style="fill:none;stroke:#3f7f4c;stroke-linecap:square;stroke-width:1.5;"/>
    </g>
    <g id="line2d_20"/>
    <g id="text_17">
     <!-- DQN + PER -->
     <g transform="translate(348.634063 87.426688)scale(0.1 -0.1)">
      <use xlink:href="#DejaVuSans-68"/>
      <use x="77.001953" xlink:href="#DejaVuSans-81"/>
      <use x="155.712891" xlink:href="#DejaVuSans-78"/>
      <use x="230.517578" xlink:href="#DejaVuSans-32"/>
      <use x="262.304688" xlink:href="#DejaVuSans-43"/>
      <use x="346.09375" xlink:href="#DejaVuSans-32"/>
      <use x="377.880859" xlink:href="#DejaVuSans-80"/>
      <use x="438.183594" xlink:href="#DejaVuSans-69"/>
      <use x="501.367188" xlink:href="#DejaVuSans-82"/>
     </g>
    </g>
   </g>
  </g>
 </g>
 <defs>
  <clipPath id="p0274ba2ac3">
   <rect height="266.112" width="357.12" x="57.6" y="41.472"/>
  </clipPath>
 </defs>
</svg>
